<svg width="38" height="24" viewBox="0 0 38 24" fill="none" xmlns="http://www.w3.org/2000/svg">
<path d="M12.45 23.5L10.8 21.85L15.05 17.55C10.7833 17.05 7.20833 16.0334 4.325 14.5C1.44167 12.9667 0 11.0667 0 8.80002C0 6.43336 1.85 4.40003 5.55 2.70003C9.25 1.00003 13.7333 0.150024 19 0.150024C24.3 0.150024 28.7917 1.00003 32.475 2.70003C36.1583 4.40003 38 6.43336 38 8.80002C38 10.4667 37.0167 11.9834 35.05 13.35C33.0833 14.7167 30.4667 15.7834 27.2 16.55V14.15C29.8667 13.4834 31.9583 12.625 33.475 11.575C34.9917 10.525 35.75 9.60002 35.75 8.80002C35.75 7.66669 34.3417 6.31669 31.525 4.75002C28.7083 3.18336 24.5333 2.40002 19 2.40002C13.4667 2.40002 9.29167 3.18336 6.475 4.75002C3.65833 6.31669 2.25 7.66669 2.25 8.80002C2.25 10.1667 3.30833 11.4167 5.425 12.55C7.54167 13.6834 10.8167 14.6334 15.25 15.4L10.8 11L12.45 9.35003L19.5 16.4L12.45 23.5Z" fill="#1C1B1F"/>
</svg>
