<svg id="buzo" class="classClothes" width="400" height="550" version="1.1" viewBox="0 0 105.83 145.52" xmlns="http://www.w3.org/2000/svg" xmlns:xlink="http://www.w3.org/1999/xlink">
	<defs id="defs1131">
		<linearGradient id="linearGradient1061">
			<stop id="stop1057" stop-opacity=".2" offset="0"/>
			<stop id="stop1059" stop-opacity=".7" offset="1"/>
		</linearGradient>
		<mask id="mask-powermask-path-effect4288" maskUnits="userSpaceOnUse">
			<path id="mask-powermask-path-effect4288_box" d="m23.776 21.489h34.579v58.782h-34.579z" fill="#fff"/>
			<path id="path1128" d="m52.393 46.857q0-0.33864-0.18806-0.53873-0.18805-0.2001-0.44744-0.2001-0.23344 0-0.35017 0.15392-0.01297 0.0154-0.49283 0.36942t-1.3942 0.76962q-0.91433 0.4156-2.2437 0.75423t-3.0413 0.33863q-1.2191 0-2.516-0.18471t-2.6717-0.56952q-1.3747-0.4002-2.529-0.86967t-2.101-1.0544q-0.11672-0.07696-0.29829-0.07696-0.25938 0-0.44095 0.2078t-0.18157 0.54643q0 0.46177 0.36314 0.67726 2.7235 1.6162 6.2901 2.355v1.7393q0.19454 2.4936 1.1802 4.0328 0.95972 1.5085 2.4771 1.5085 0.58362 0 1.0829-0.26937 0.49931-0.26937 0.88839-0.78501t0.64846-1.2468q0.25939-0.73114 0.37611-1.6547v-3.0785q0.93378-0.10775 1.8222-0.4079 0.88839-0.30015 1.6082-0.65418 0.71979-0.35402 1.2256-0.69266 0.5058-0.33863 0.68737-0.53873 0.24641-0.2155 0.24641-0.63109zm-17.223-5.3412q0 0.38481 0.10375 0.73884t0.29829 0.62339q0.19454 0.26937 0.47337 0.43099 0.27884 0.16162 0.62901 0.16162 0.83003 0 1.4785-0.83119 0.63549-0.8004 0.63549-1.8933 0-0.38481-0.10375-0.73883t-0.29829-0.63109q-0.19454-0.27706-0.47338-0.43868t-0.629-0.16162q-0.83003 0-1.4785 0.8158-0.63549 0.8158-0.63549 1.924zm10.609 1.57q0 0.24628 0.07782 0.34633t0.26587 0.12314q0.18805 0.0231 0.49931 0.0231t0.76518 0.03849 1.0635 0.15392q0.60955 0.11544 1.4136 0.37712l0.11672 0.0154q0.14266 0 0.26587-0.14623t0.12321-0.36172-0.14266-0.34633q-0.14266-0.13083-0.47986-0.22319-0.3372-0.09235-0.86894-0.18471-0.53174-0.09235-1.3099-0.21549 0.51877-0.30785 1.1218-0.608 0.60307-0.30015 1.2904-0.608 0.28532-0.09235 0.28532-0.46177 0-0.2155-0.12321-0.35403t-0.27884-0.13853q-0.20751 0-1.5693 0.69266-0.68737 0.35402-1.2645 0.71575-0.57713 0.36172-1.057 0.76193-0.19454 0.13853-0.19454 0.4002zm9.9344 5.7568q0 0.49256-0.02593 1.0159t-0.06485 1.0467q-0.46689 0.66187-1.6341 1.1698-0.58362 0.26167-1.3164 0.49256t-1.6276 0.44638q-0.88191 0.2001-1.7638 0.33863-0.88191 0.13853-1.7768 0.2155-0.83003 4.1713-3.6962 4.1713-3.0218 0-4.0853-3.9097-2.6587-0.12314-4.7597-0.36942t-3.4368-0.6157q-1.3229-0.36942-2.2437-0.78501-0.46689-0.2155-0.843-0.4156t-0.68737-0.38481q-0.57064-0.35402-1.3099-1.1544-0.03891-0.15392-0.06485-0.50025t-0.02594-0.90046q0-0.92354 0.11024-1.7778 0.11024-0.85428 0.32423-1.6855t0.53174-1.6624q0.31774-0.83119 0.73276-1.7086 0.42798-0.89276 0.99214-1.7393 0.56416-0.84658 1.245-1.6085t1.459-1.4161 1.6082-1.1621l-1.7508-6.08-0.05187-0.4156q0-0.49256 0.27884-0.87737t0.74573-0.38481q0.3372 0 0.62901 0.23089t0.39556 0.63109l1.673 5.8953q2.3734-1.0775 5.3563-1.0775 1.1543 0 2.2048 0.12314t2.0232 0.35403q1.9194 0.47716 4.1112 1.7547l1.5693-5.4335q0.10375-0.38481 0.3761-0.6157t0.60955-0.23089q0.23345 0 0.42799 0.10775t0.33071 0.28476q0.13618 0.17701 0.21399 0.4002 0.07782 0.22319 0.07782 0.46947l-0.05187 0.4002-1.7249 6.003q1.284 1.1544 2.2113 2.4012t1.5304 2.6398q0.60307 1.393 0.88839 2.9553t0.28532 3.3632z" fill="currentColor" stroke-width=".014129"/>
		</mask>
		<radialGradient id="radialGradient982" cx="52.758" cy="-25.621" r="17.818" gradientTransform="matrix(2.9053 -.0043251 .0023383 1.5705 -100.3 47.213)" gradientUnits="userSpaceOnUse">
			<stop id="stop976" stop-opacity=".7" offset="0"/>
			<stop id="stop978" stop-opacity=".2" offset="1"/>
		</radialGradient>
		<radialGradient id="radialGradient1043" cx="52.912" cy="54.24" r="29.966" gradientTransform="matrix(1.7276 .00092835 -.0016143 3.0046 -38.411 -108.78)" gradientUnits="userSpaceOnUse">
			<stop id="stop1039" stop-opacity=".2" offset="0"/>
			<stop id="stop1037" stop-opacity=".7" offset="1"/>
		</radialGradient>
		<radialGradient id="radialGradient1063" cx="85.061" cy="50.768" r="14.244" gradientTransform="matrix(1.7337 -.28093 1.0646 6.5696 -116.45 -255.29)" gradientUnits="userSpaceOnUse" xlink:href="#linearGradient1061"/>
		<radialGradient id="radialGradient1063-3" cx="85.061" cy="50.768" r="14.244" gradientTransform="matrix(-1.7337 -.28093 -1.0646 6.5696 197.2 -256.96)" gradientUnits="userSpaceOnUse" xlink:href="#linearGradient1061"/>
	</defs>
	<g id="corte 2" class="cutClothes" transform="translate(13.232,39.099)">
		<g id="dorsal" class="viewClothes" transform="translate(-1.3872,2.0367)">
			<g id="color" class="colors">
				<path id="torso" class="torso" transform="translate(-11.845 -2.9533)" d="m52.917 6.7472c-5.6344-0.23035-10.515-1.2773-14.572-3.2174 0 0-3.7282 3.0949-9.6779 5.6981-0.97525 0.42754-3.1113 1.3062-5.0673 2.5272-0.67685 0.67573-0.84059 1.7754-0.43302 2.6631 0.04913 0.1087 0.10006 0.22281 0.15464 0.34237 0.0037 0.0091 0.0091 0.01818 0.01275 0.02538 1.7049 3.779 5.3748 12.333 6.3155 26.937v0.0036c-0.09721 3.1034-0.09949 4.1245-0.18865 5.9543-0.38085 4.317-0.22867 5.1954-0.34721 9.316-0.20459 5.3289 0.02862 6.0785-0.58154 11.626-0.4016 4.9159-0.55692 6.3812-1.0276 9.2277-0.68807 2.8535-1.0946 5.3684-1.2989 7.8967-0.05357 0.97608-0.08335 1.2411-0.16324 3.7727 0.0052 1.6969 0.03696 3.0704 0.14219 5.6086 0.23888 2.6218 1.3954 3.3072 1.3954 3.3072 0.25745 0.18023 0.66502 0.32153 1.1563 0.43384h3e-6c0.41485 0.0942 0.88792 0.17028 1.3792 0.22825 0.49126 0.05979 0.9989 0.10326 1.4811 0.13587 2.1798 0.24637 5.5204-0.54346 9.727-0.30072 2.9567 0.17028 6.3428 0.40216 10.055 0.56701 0.23654 0.01087 0.90247 0.05434 1.5611 0.05254 0.75327-0.0018 1.5102-0.05073 1.8341-0.06522 3.5917-0.16485 6.8741-0.38767 9.7507-0.55433 4.2067-0.24274 7.5473 0.54709 9.727 0.30072 0.48035-0.03261 0.98981-0.07429 1.4811-0.13586 0.49126-0.05797 0.96616-0.13406 1.381-0.22826 0.50036-0.11412 0.91157-0.25905 1.1609-0.43839 0 0 1.1483-0.6809 1.3862-3.2986 0.10316-2.9268 0.15667-4.149 0.1466-5.4291-0.06954-2.492 0.0091-2.9372-0.16791-3.9613-0.20616-2.5429-0.61219-5.0496-1.2977-7.8924-0.47073-2.8466-0.62605-4.312-1.0276-9.228-0.61016-5.5479-0.37695-6.2975-0.58154-11.627-0.11855-4.1208 0.03364-4.9992-0.34721-9.3163-0.08916-1.8298-0.09144-2.851-0.18865-5.9545v-0.0018c0.94068-14.603 4.6088-23.159 6.3155-26.937 0.0018-0.0091 0.0073-0.01628 0.01274-0.02538 0.05459-0.12138 0.10553-0.23368 0.15466-0.34237 0.40939-0.88768 0.24745-1.9891-1.0717-2.9373-1.3192-0.94821-3.4553-1.8268-4.4305-2.2543-5.9498-2.6032-9.6779-5.697-9.6779-5.697-4.178 1.9695-9.0599 3.0148-14.583 3.2184zm25.357 91.684c-0.24929 0.17934-0.6605 0.32427-1.1609 0.43839l6e-6 1e-6c-0.41485 0.0942-0.88974 0.17028-1.381 0.22826-0.49126 0.06159-1.0007 0.10326-1.4811 0.13586-2.1798 0.24637-5.5204-0.54346-9.727-0.30072-2.8766 0.16666-6.159 0.38948-9.7507 0.55433-0.32387 0.01449-1.0808 0.0634-1.8341 0.06522-0.65866 0.0018-1.3246-0.04167-1.5611-0.05254-3.7118-0.16485-7.0979-0.39673-10.055-0.56701-4.2067-0.24275-7.5473 0.54709-9.727 0.30072-0.48215-0.03261-0.98979-0.07608-1.4811-0.13586-0.49126-0.05797-0.96434-0.13406-1.3792-0.22826-0.49126-0.11232-0.89883-0.25362-1.1481-0.42934-0.1219 0.77172 0.02455 3.4021-0.22653 4.1394-0.08006 0.23368-0.32205 0.70649 0.06368 1.1249 0.21652 0.23368 0.68959 0.41302 1.29 0.55069 0.82787 0.19021 1.8959 0.29891 2.8603 0.36411 2.1798 0.24818 5.5204-0.54344 9.727-0.3007 3.3624 0.19383 7.278 0.46736 11.597 0.6322h0.03275c4.3195-0.16484 8.2351-0.43837 11.597-0.6322 4.2067-0.24274 7.5473 0.54888 9.727 0.3007 0.96434-0.0634 2.0324-0.1739 2.8603-0.36411 0.60044-0.13767 1.0735-0.31701 1.29-0.55069 0.38573-0.41844 0.14374-0.88943 0.06368-1.1249-0.25109-0.73729-0.07732-3.3786-0.19742-4.1485z" fill="#f0f" opacity=".8"/>
				<path id="mangas" class="mangas" transform="translate(1.3923,-1.6443)" d="m-10.609 80.256c-0.06732-0.04167-0.13828-0.07428-0.20196-0.1105-0.18195-0.10145-0.46943-0.31521-0.46943-0.31521s-0.25505-0.18063-0.48138-0.42624c-1.0949-1.1881 1.1051-5.8513 2.3371-10.245 1.5596-5.5615 2.7059-8.9787 3.7228-14.838 1.3468-7.7598 2.8699-9.9469 4.166-16.011 1.0127-4.7377 2.0218-7.9912 2.9031-12.432 2.0287-8.5432 4.232-10.958 6.419-13.36 0.25473-0.2808 0.76419-0.79529 1.0462-1.0109v2.2e-5c0.47853-0.36776 0.98981-0.72466 1.5175-1.0507-0.67685 0.66669-0.84061 1.7555-0.43304 2.6323 0.04913 0.10688 0.10007 0.2192 0.15466 0.33877 0.0036 0.0091 0.0091 0.01812 0.01274 0.02536 1.7049 3.7337 5.3748 12.187 6.3155 26.618v0.0018c-0.03457 0.08243-0.73505 3.4453-1.9767 7.6017-1.2416 4.1564-2.8922 7.5197-4.5305 13.02-0.81912 2.7503-1.6706 6.4696-2.6487 11.233-0.97809 4.7632-2.2151 10.703-3.0384 11.992-0.21776 0.34104-0.98084 0.32357-0.98084 0.32357-5.0782-0.31522-11.612-2.6449-13.834-3.9872zm13.834 3.9872c-0.09643 0.50361-0.33661 0.77172-0.46579 1.0127-0.35844 0.66846-0.36754 1.0253-0.51856 1.2645-0.09097 0.14674-0.24017 0.26086-0.41303 0.26267-3.9119 0.06341-10.267-2.1123-12.46-3.326-0.06004-0.03261-0.4949-0.3134-0.54949-0.346-0.79512-0.44926-1.0113-0.71622-0.86033-1.2687 0.07642-0.27898 0.36542-0.49752 0.53464-1.2475 0.05458-0.23912 0.10114-0.3727 0.22744-0.76449 0.13282 0.10869 0.2893 0.21197 0.46943 0.31523 0.06368 0.03623 0.13464 0.07065 0.20196 0.1105 1.8523 1.134 7.853 3.4872 13.834 3.9872zm86.743-3.9673c0.06732-0.04167 0.13828-0.07428 0.20196-0.1105 0.18195-0.10145 0.46943-0.31521 0.46943-0.31521s0.25505-0.18063 0.48138-0.42624c1.0949-1.1881-1.1051-5.8513-2.3371-10.245-1.5596-5.5615-2.7059-8.9787-3.7228-14.838-1.3468-7.7598-2.8699-9.9469-4.166-16.011-1.0127-4.7377-2.0218-7.9912-2.9031-12.432-2.0287-8.5432-4.232-10.958-6.419-13.36-0.25473-0.2808-0.76419-0.79529-1.0462-1.0109v2.2e-5c-0.47853-0.36776-0.98981-0.72466-1.5175-1.0507 0.67686 0.66669 0.84061 1.7555 0.43304 2.6323-0.04913 0.10688-0.10007 0.2192-0.15466 0.33877-0.0036 0.0091-0.0091 0.01812-0.01274 0.02536-1.7049 3.7337-5.3748 12.187-6.3155 26.618v0.0018c0.03457 0.08243 0.73505 3.4453 1.9767 7.6017 1.2416 4.1564 2.8922 7.5197 4.5305 13.02 0.81912 2.7503 1.6706 6.4696 2.6487 11.233 0.97809 4.7632 2.2151 10.703 3.0384 11.992 0.21776 0.34104 0.98084 0.32357 0.98084 0.32357 5.0782-0.31522 11.612-2.6449 13.834-3.9872zm-13.834 3.9872c0.09643 0.50361 0.33661 0.77172 0.46579 1.0127 0.35844 0.66846 0.36754 1.0253 0.51856 1.2645 0.09097 0.14674 0.24017 0.26086 0.41303 0.26267 3.9119 0.06341 10.267-2.1123 12.46-3.326 0.06004-0.03261 0.4949-0.3134 0.54949-0.346 0.79512-0.44926 1.0113-0.71622 0.86033-1.2687-0.07642-0.27898-0.36542-0.49752-0.53464-1.2475-0.05458-0.23912-0.10114-0.3727-0.22744-0.76449-0.13282 0.10869-0.2893 0.21197-0.46943 0.31523-0.06368 0.03623-0.13464 0.07065-0.20196 0.1105-1.8523 1.134-7.853 3.4872-13.834 3.9872z" fill="#800080"/>
				<path id="capucha" class="capucha" transform="translate(-11.845 -2.9533)" d="m65.234 0.65331c0.07422 0.9614 2.2661 2.877 2.2661 2.877-4.4189 1.8481-9.127 3.1888-14.583 3.2169-5.6443-0.028374-10.247-1.4374-14.571-3.2169 0 0 2.1918-1.9156 2.2661-2.877-2.9115-3.6775-5.1523-8.2961-5.5076-14.853 0.0984-8.4351 2.0016-13.317 5.7316-16.613 3.0439-2.7584 5.8868-4.591 12.087-4.9861 6.2 0.39512 9.0429 2.2277 12.087 4.9861 3.73 3.2958 5.6332 8.1777 5.7316 16.613-0.35524 6.5566-2.5961 11.175-5.5076 14.853" fill="#800080" opacity=".8"/>
			</g>
			<g id="sombras">
				<path id="sombra completa" transform="translate(-11.845,-2.9533)" d="m48.576 5.759c0.23472-0.14755 0.37514-0.35622 0.37514-0.58526 0-0.48752-0.63616-0.88273-1.4209-0.88273-0.78475 0-1.4209 0.39521-1.4209 0.88273 0 0.33127 0.29373 0.61992 0.72721 0.77047l0.3306 1.3572c-2.9617-0.99843-5.9389-2.4587-8.8215-3.7711 1.5639-1.2085 2.1918-1.9156 2.2661-2.877 1.1374 1.6393 3.0178 3.1413 4.9896 4.484-1.9881-1.367-3.8419-2.8435-4.9896-4.484-2.9115-3.6775-5.1523-8.2961-5.5076-14.853 0.0984-8.4351 2.0016-13.317 5.7316-16.613 3.0439-2.7584 5.8868-4.591 12.087-4.9861 6.2 0.39512 9.0429 2.2277 12.087 4.9861 3.73 3.2958 5.6332 8.1777 5.7316 16.613-0.35524 6.5566-2.5961 11.175-5.5076 14.853-1.1477 1.6405-3.0015 3.117-4.9896 4.484 1.9719-1.3427 3.8522-2.8447 4.9896-4.484 0.07422 0.9614 0.70218 1.6684 2.2661 2.877-2.9202 1.3295-5.9375 2.8107-8.9401 3.7924l0.34173-1.3785c0.43348-0.15056 0.72721-0.43922 0.72721-0.77049 0-0.48753-0.63616-0.88276-1.4209-0.88276-0.78475-1e-6 -1.4209 0.39522-1.4209 0.88276 0 0.22905 0.14042 0.43773 0.37514 0.58528l-0.53926 2.12c-1.2281 0.3018-2.4738 0.49501-3.6999 0.52332-1.2683-0.029242-2.5575-0.23494-3.8322-0.54282zm-45.947 75.806c-0.06732-0.04167-0.13828-0.07428-0.20196-0.1105-0.18195-0.10145-0.46943-0.31521-0.46943-0.31521s-0.25505-0.18063-0.48138-0.42624c-1.0949-1.1881 1.1051-5.8513 2.3371-10.245 1.5596-5.5615 2.7059-8.9787 3.7228-14.838 1.3468-7.7598 2.8699-9.9469 4.166-16.011 1.0127-4.7377 2.0218-7.9912 2.9031-12.432 2.0287-8.5432 4.232-10.958 6.419-13.36 0.25473-0.2808 0.76419-0.79529 1.0462-1.0109v2.2e-5c0.47853-0.36776 0.98981-0.72466 1.5175-1.0507-0.67685 0.66669-0.84061 1.7555-0.43304 2.6323 0.04913 0.10688 0.10007 0.2192 0.15466 0.33877 0.0036 0.0091 0.0091 0.01812 0.01274 0.02536 1.7049 3.7337 5.3748 12.187 6.3155 26.618v0.0018c-0.03457 0.08243-0.73505 3.4453-1.9767 7.6017-1.2416 4.1564-2.8922 7.5197-4.5305 13.02-0.81912 2.7503-1.6706 6.4696-2.6487 11.233-0.9781 4.7632-2.2151 10.703-3.0384 11.992-0.21776 0.34104-0.98084 0.32357-0.98084 0.32357-5.0782-0.31522-11.612-2.6449-13.834-3.9872zm13.834 3.9872c-0.09643 0.50361-0.33661 0.77172-0.46579 1.0127-0.35844 0.66846-0.36754 1.0253-0.51856 1.2645-0.09097 0.14674-0.24017 0.26086-0.41303 0.26267-3.9119 0.06341-10.267-2.1123-12.46-3.326-0.06004-0.03261-0.4949-0.3134-0.54949-0.346-0.79512-0.44926-1.0113-0.71622-0.86033-1.2687 0.07642-0.27898 0.36542-0.49752 0.53464-1.2475 0.05458-0.23912 0.10114-0.3727 0.22744-0.76449 0.13282 0.10869 0.2893 0.21197 0.46943 0.31523 0.06368 0.03623 0.13464 0.07065 0.20196 0.1105 1.8523 1.134 7.853 3.4872 13.834 3.9872zm86.743-3.9673c0.0673-0.04167 0.13828-0.07428 0.20197-0.1105 0.18195-0.10145 0.46943-0.31521 0.46943-0.31521s0.25505-0.18063 0.48138-0.42624c1.0949-1.1881-1.1051-5.8513-2.3371-10.245-1.5596-5.5615-2.7059-8.9787-3.7228-14.838-1.3468-7.7598-2.8699-9.9469-4.166-16.011-1.0127-4.7377-2.0218-7.9912-2.9031-12.432-2.0287-8.5432-4.232-10.958-6.419-13.36-0.25473-0.2808-0.76419-0.79529-1.0462-1.0109v2.2e-5c-0.47853-0.36776-0.98981-0.72466-1.5175-1.0507 0.67686 0.66669 0.84061 1.7555 0.43304 2.6323-0.04913 0.10688-0.10007 0.2192-0.15466 0.33877-0.0036 0.0091-0.0091 0.01812-0.01274 0.02536-1.7049 3.7337-5.3748 12.187-6.3155 26.618v0.0018c0.03457 0.08243 0.73505 3.4453 1.9767 7.6017 1.2416 4.1564 2.8922 7.5197 4.5305 13.02 0.81912 2.7503 1.6706 6.4696 2.6487 11.233 0.97809 4.7632 2.2151 10.703 3.0384 11.992 0.21776 0.34104 0.98084 0.32357 0.98084 0.32357 5.0782-0.31522 11.612-2.6449 13.834-3.9872zm-13.834 3.9872c0.09643 0.50361 0.33661 0.77172 0.46579 1.0127 0.35844 0.66846 0.36754 1.0253 0.51856 1.2645 0.09097 0.14674 0.24017 0.26086 0.41303 0.26267 3.9119 0.06341 10.267-2.1123 12.46-3.326 0.06-0.03261 0.49491-0.3134 0.54949-0.346 0.79512-0.44926 1.0114-0.71622 0.86033-1.2687-0.0764-0.27898-0.36542-0.49752-0.53464-1.2475-0.0546-0.23912-0.10113-0.3727-0.22743-0.76449-0.13283 0.10869-0.2893 0.21197-0.46943 0.31523-0.0637 0.03623-0.13465 0.07065-0.20197 0.1105-1.8522 1.134-7.853 3.4872-13.834 3.9872zm-30.812-78.25 0.34173-1.3785c0.43348-0.15055 0.72721-0.4392 0.72721-0.77047 0-0.48752-0.63616-0.88273-1.4209-0.88273-0.78475-1e-6 -1.4209 0.39521-1.4209 0.88273 0 0.22905 0.14042 0.43772 0.37514 0.58526l-0.53926 2.1199c-1.2281 0.30179-2.4738 0.49499-3.6999 0.5233-1.2683-0.02924-2.5575-0.23493-3.8322-0.5428l-0.51436-2.1004c0.23472-0.14754 0.37514-0.35621 0.37514-0.58524 0-0.4875-0.63616-0.8827-1.4209-0.8827-0.78475 0-1.4209 0.3952-1.4209 0.8827 0 0.33126 0.29373 0.6199 0.72721 0.77044l0.3306 1.3572c-2.9617-0.9984-5.9389-2.4586-8.8215-3.771-1.1263 0.90645-3.7282 3.0949-9.6779 5.6981-0.97525 0.42754-3.1113 1.3062-5.0673 2.5272-0.67685 0.67573-0.84059 1.7754-0.43302 2.6631 0.04913 0.1087 0.10006 0.22281 0.15464 0.34237 0.0037 0.0091 0.0091 0.01818 0.01275 0.02538 1.7049 3.779 5.3748 12.333 6.3155 26.937v0.0036c-0.09721 3.1034-0.09949 4.1245-0.18865 5.9543-0.38085 4.317-0.22867 5.1954-0.34721 9.316-0.20459 5.3289 0.02862 6.0785-0.58154 11.626-0.4016 4.9159-0.55692 6.3812-1.0276 9.2277-0.68807 2.8535-1.0946 5.3684-1.2989 7.8967-0.06939 0.98256-0.08903 1.3271-0.16467 3.8191 0.0867 1.2735 0.03603 2.9794 0.14362 5.5622 0.23888 2.6218 1.3954 3.3072 1.3954 3.3072 0.25745 0.18023 0.66502 0.32153 1.1563 0.43384h3e-6c0.41485 0.0942 0.88792 0.17028 1.3792 0.22825 0.49126 0.05979 0.9989 0.10326 1.4811 0.13587 2.1798 0.24637 5.5204-0.54346 9.727-0.30072 2.9567 0.17028 6.3428 0.40216 10.055 0.56701 0.23654 0.01087 0.90247 0.05434 1.5611 0.05254 0.75327-0.0018 1.5102-0.05073 1.8341-0.06522 3.5917-0.16485 6.8741-0.38767 9.7507-0.55433 4.2067-0.24274 7.5473 0.54709 9.727 0.30072 0.48035-0.03261 0.98981-0.07429 1.4811-0.13586 0.49126-0.05797 0.96616-0.13406 1.381-0.22826 0.50036-0.11412 0.91157-0.25905 1.1609-0.43839 0 0 1.1483-0.6809 1.3862-3.2986 0.07464-2.7363 0.0589-4.1555 0.1456-5.4291-0.07159-2.5321-0.10884-2.9384-0.16691-3.9613-0.20616-2.5429-0.61219-5.0496-1.2977-7.8924-0.47073-2.8466-0.62605-4.312-1.0276-9.228-0.61016-5.5479-0.37695-6.2975-0.58154-11.627-0.11855-4.1208 0.03364-4.9992-0.34721-9.3163-0.08916-1.8298-0.09144-2.851-0.18865-5.9545v-0.0018c0.94068-14.603 4.6088-23.159 6.3155-26.937 0.0018-0.0091 0.0073-0.01628 0.01274-0.02538 0.05459-0.12138 0.10553-0.23368 0.15466-0.34237 0.40939-0.88768 0.24745-1.9891-1.0717-2.9373-1.3192-0.94821-3.4553-1.8268-4.4305-2.2543-5.9498-2.6032-8.5516-4.7915-9.6779-5.697-2.9202 1.3298-5.9375 2.8109-8.9401 3.7926zm19.715 91.109c-0.24929 0.17934-0.6605 0.32427-1.1609 0.43839l6e-6 1e-6c-0.41485 0.0942-0.88974 0.17028-1.381 0.22826-0.49126 0.06159-1.0007 0.10326-1.4811 0.13586-2.1798 0.24637-5.5204-0.54346-9.727-0.30072-2.8766 0.16666-6.159 0.38948-9.7507 0.55433-0.32387 0.01449-1.0808 0.0634-1.8341 0.06522-0.65866 0.0018-1.3246-0.04167-1.5611-0.05254-3.7118-0.16485-7.0979-0.39673-10.055-0.56701-4.2067-0.24275-7.5473 0.54709-9.727 0.30072-0.48215-0.03261-0.98979-0.07608-1.4811-0.13586-0.49126-0.05797-0.96434-0.13406-1.3792-0.22826-0.49126-0.11232-0.89883-0.25362-1.1481-0.42934-0.1219 0.77172 0.02455 3.4021-0.22653 4.1394-0.08006 0.23368-0.32205 0.70649 0.06368 1.1249 0.21652 0.23368 0.68959 0.41302 1.29 0.55069 0.82787 0.19021 1.8959 0.29891 2.8603 0.36411 2.1798 0.24818 5.5204-0.54344 9.727-0.3007 3.3624 0.19383 7.278 0.46736 11.597 0.6322h0.03275c4.3195-0.16484 8.2351-0.43837 11.597-0.6322 4.2067-0.24274 7.5473 0.54888 9.727 0.3007 0.96434-0.0634 2.0324-0.1739 2.8603-0.36411 0.60044-0.13767 1.0735-0.31701 1.29-0.55069 0.38573-0.41844 0.14374-0.88943 0.06368-1.1249-0.25109-0.73729-0.07732-3.3786-0.19742-4.1485z" fill-opacity=".20168" opacity=".5"/>
				<path id="sombra bordes" transform="translate(-11.845,-2.9533)" d="m78.274 98.431c-0.24929 0.17934-0.6605 0.32427-1.1609 0.43839l6e-6 1e-6c-0.41485 0.0942-0.88974 0.17028-1.381 0.22826-0.49126 0.06159-1.0007 0.10326-1.4811 0.13586-2.1798 0.24637-5.5204-0.54346-9.727-0.30072-2.8766 0.16666-6.159 0.38948-9.7507 0.55433-0.32387 0.01449-1.0808 0.0634-1.8341 0.06522-0.65866 0.0018-1.3246-0.04167-1.5611-0.05254-3.7118-0.16485-7.0979-0.39673-10.055-0.56701-4.2067-0.24275-7.5473 0.54709-9.727 0.30072-0.48215-0.03261-0.98979-0.07608-1.4811-0.13586-0.49126-0.05797-0.96434-0.13406-1.3792-0.22826-0.49126-0.11232-0.89883-0.25362-1.1481-0.42934-0.1219 0.77172 0.02455 3.4021-0.22653 4.1394-0.08006 0.23368-0.32205 0.70649 0.06368 1.1249 0.21652 0.23368 0.68959 0.41302 1.29 0.55069 0.82787 0.19021 1.8959 0.29891 2.8603 0.36411 2.1798 0.24818 5.5204-0.54344 9.727-0.3007 3.3624 0.19383 7.278 0.46736 11.597 0.6322h0.03275c4.3195-0.16484 8.2351-0.43837 11.597-0.6322 4.2067-0.24274 7.5473 0.54888 9.727 0.3007 0.96434-0.0634 2.0324-0.1739 2.8603-0.36411 0.60044-0.13767 1.0735-0.31701 1.29-0.55069 0.38573-0.41844 0.14374-0.88943 0.06368-1.1249-0.25109-0.73729-0.07732-3.3786-0.19742-4.1485zm11.097-12.859c0.09643 0.50361 0.33661 0.77172 0.46579 1.0127 0.35844 0.66846 0.36754 1.0253 0.51856 1.2645 0.09097 0.14674 0.24017 0.26086 0.41303 0.26267 3.9119 0.06341 10.267-2.1123 12.46-3.326 0.06-0.03261 0.49491-0.3134 0.54949-0.346 0.79512-0.44926 1.0114-0.71622 0.86033-1.2687-0.0764-0.27898-0.36542-0.49752-0.53464-1.2475-0.0546-0.23912-0.10113-0.3727-0.22743-0.76449-0.13283 0.10869-0.2893 0.21197-0.46943 0.31523-0.0637 0.03623-0.13465 0.07065-0.20197 0.1105-1.8522 1.134-7.853 3.4872-13.834 3.9872zm-72.909-0.01993c-0.09643 0.50361-0.33661 0.77172-0.46579 1.0127-0.35844 0.66846-0.36754 1.0253-0.51856 1.2645-0.09097 0.14674-0.24017 0.26086-0.41303 0.26267-3.9119 0.06341-10.267-2.1123-12.46-3.326-0.06004-0.03261-0.4949-0.3134-0.54949-0.346-0.79512-0.44926-1.0113-0.71622-0.86033-1.2687 0.07642-0.27898 0.36542-0.49752 0.53464-1.2475 0.05458-0.23912 0.10114-0.3727 0.22744-0.76449 0.13282 0.10869 0.2893 0.21197 0.46943 0.31523 0.06368 0.03623 0.13464 0.07065 0.20196 0.1105 1.8523 1.134 7.853 3.4872 13.834 3.9872z" fill-opacity=".30451" opacity=".8"/>
				<path id="sombra torso" transform="translate(-11.845,-2.9533)" d="m52.917 6.7472c-5.6344-0.23035-10.515-1.2773-14.572-3.2174 0 0-3.7282 3.0949-9.6779 5.6981-0.97525 0.42754-3.1113 1.3062-5.0673 2.5272-0.67685 0.67573-0.84059 1.7754-0.43302 2.6631 0.04913 0.1087 0.10006 0.22281 0.15464 0.34237 0.0037 0.0091 0.0091 0.01818 0.01275 0.02538 1.7049 3.779 5.3748 12.333 6.3155 26.937v0.0036c-0.09721 3.1034-0.09949 4.1245-0.18865 5.9543-0.38085 4.317-0.22867 5.1954-0.34721 9.316-0.20459 5.3289 0.02862 6.0785-0.58154 11.626-0.4016 4.9159-0.55692 6.3812-1.0276 9.2277-0.68807 2.8535-1.0946 5.3684-1.2989 7.8967-0.05357 0.97608-0.08335 1.2411-0.16324 3.7727 0.0052 1.6969 0.03696 3.0704 0.14219 5.6086 0.23888 2.6218 1.3954 3.3072 1.3954 3.3072 0.25745 0.18023 0.66502 0.32153 1.1563 0.43384h3e-6c0.41485 0.0942 0.88792 0.17028 1.3792 0.22825 0.49126 0.05979 0.9989 0.10326 1.4811 0.13587 2.1798 0.24637 5.5204-0.54346 9.727-0.30072 2.9567 0.17028 6.3428 0.40216 10.055 0.56701 0.23654 0.01087 0.90247 0.05434 1.5611 0.05254 0.75327-0.0018 1.5102-0.05073 1.8341-0.06522 3.5917-0.16485 6.8741-0.38767 9.7507-0.55433 4.2067-0.24274 7.5473 0.54709 9.727 0.30072 0.48035-0.03261 0.98981-0.07429 1.4811-0.13586 0.49126-0.05797 0.96616-0.13406 1.381-0.22826 0.50036-0.11412 0.91157-0.25905 1.1609-0.43839 0 0 1.1483-0.6809 1.3862-3.2986 0.10316-2.9268 0.15667-4.149 0.1466-5.4291-0.06954-2.492 0.0091-2.9372-0.16791-3.9613-0.20616-2.5429-0.61219-5.0496-1.2977-7.8924-0.47073-2.8466-0.62605-4.312-1.0276-9.228-0.61016-5.5479-0.37695-6.2975-0.58154-11.627-0.11855-4.1208 0.03364-4.9992-0.34721-9.3163-0.08916-1.8298-0.09144-2.851-0.18865-5.9545v-0.0018c0.94068-14.603 4.6088-23.159 6.3155-26.937 0.0018-0.0091 0.0073-0.01628 0.01274-0.02538 0.05459-0.12138 0.10553-0.23368 0.15466-0.34237 0.40939-0.88768 0.24745-1.9891-1.0717-2.9373-1.3192-0.94821-3.4553-1.8268-4.4305-2.2543-5.9498-2.6032-9.6779-5.697-9.6779-5.697-4.178 1.9695-9.0599 3.0148-14.583 3.2184zm25.357 91.684c-0.24929 0.17934-0.6605 0.32427-1.1609 0.43839l6e-6 1e-6c-0.41485 0.0942-0.88974 0.17028-1.381 0.22826-0.49126 0.06159-1.0007 0.10326-1.4811 0.13586-2.1798 0.24637-5.5204-0.54346-9.727-0.30072-2.8766 0.16666-6.159 0.38948-9.7507 0.55433-0.32387 0.01449-1.0808 0.0634-1.8341 0.06522-0.65866 0.0018-1.3246-0.04167-1.5611-0.05254-3.7118-0.16485-7.0979-0.39673-10.055-0.56701-4.2067-0.24275-7.5473 0.54709-9.727 0.30072-0.48215-0.03261-0.98979-0.07608-1.4811-0.13586-0.49126-0.05797-0.96434-0.13406-1.3792-0.22826-0.49126-0.11232-0.89883-0.25362-1.1481-0.42934-0.1219 0.77172 0.02455 3.4021-0.22653 4.1394-0.08006 0.23368-0.32205 0.70649 0.06368 1.1249 0.21652 0.23368 0.68959 0.41302 1.29 0.55069 0.82787 0.19021 1.8959 0.29891 2.8603 0.36411 2.1798 0.24818 5.5204-0.54344 9.727-0.3007 3.3624 0.19383 7.278 0.46736 11.597 0.6322h0.03275c4.3195-0.16484 8.2351-0.43837 11.597-0.6322 4.2067-0.24274 7.5473 0.54888 9.727 0.3007 0.96434-0.0634 2.0324-0.1739 2.8603-0.36411 0.60044-0.13767 1.0735-0.31701 1.29-0.55069 0.38573-0.41844 0.14374-0.88943 0.06368-1.1249-0.25109-0.73729-0.07732-3.3786-0.19742-4.1485z" fill="url(#radialGradient1043)" opacity=".8"/>
				<path id="sombra manga izquierda" d="m-9.2168 78.612c-0.06732-0.04167-0.13828-0.07428-0.20196-0.1105-0.18195-0.10145-0.46943-0.31521-0.46943-0.31521s-0.25505-0.18063-0.48138-0.42624c-1.0949-1.1881 1.1051-5.8513 2.3371-10.245 1.5596-5.5615 2.7059-8.9787 3.7228-14.838 1.3468-7.7598 2.8699-9.9469 4.166-16.011 1.0127-4.7377 2.0218-7.9912 2.9031-12.432 2.0287-8.5432 4.232-10.958 6.419-13.36 0.25473-0.2808 0.76419-0.79529 1.0462-1.0109v2.2e-5c0.47853-0.36776 0.98981-0.72466 1.5175-1.0507-0.67686 0.66669-0.84061 1.7555-0.43304 2.6323 0.04913 0.10688 0.10007 0.2192 0.15466 0.33877 0.0036 0.0091 0.0091 0.01812 0.01274 0.02536 1.7049 3.7337 5.3748 12.187 6.3155 26.618v0.0018c-0.03457 0.08243-0.73505 3.4453-1.9767 7.6017-1.2416 4.1564-2.8922 7.5197-4.5305 13.02-0.81912 2.7503-1.6706 6.4696-2.6487 11.233-0.97809 4.7632-2.2151 10.703-3.0384 11.992-0.21776 0.34104-0.98084 0.32357-0.98084 0.32357-5.0782-0.31522-11.612-2.6449-13.834-3.9872zm13.834 3.9872c-0.09643 0.50361-0.33661 0.77172-0.46579 1.0127-0.35844 0.66846-0.36754 1.0253-0.51856 1.2645-0.09097 0.14674-0.24017 0.26086-0.41303 0.26267-3.9119 0.06341-10.267-2.1123-12.46-3.326-0.06004-0.03261-0.4949-0.3134-0.54949-0.346-0.79512-0.44926-1.0113-0.71622-0.86033-1.2687 0.07642-0.27898 0.36542-0.49752 0.53464-1.2475 0.05458-0.23912 0.10114-0.3727 0.22744-0.76449 0.13282 0.10869 0.2893 0.21197 0.46943 0.31523 0.06368 0.03623 0.13464 0.07065 0.20196 0.1105 1.8523 1.134 7.853 3.4872 13.834 3.9872z" fill="url(#radialGradient1063-3)" opacity=".8"/>
				<path id="sombra manga derecha" transform="translate(1.3923,-1.6443)" d="m89.968 80.276c0.06732-0.04167 0.13828-0.07428 0.20196-0.1105 0.18195-0.10145 0.46943-0.31521 0.46943-0.31521s0.25505-0.18063 0.48138-0.42624c1.0949-1.1881-1.1051-5.8513-2.3371-10.245-1.5596-5.5615-2.7059-8.9787-3.7228-14.838-1.3468-7.7598-2.8699-9.9469-4.166-16.011-1.0127-4.7377-2.0218-7.9912-2.9031-12.432-2.0287-8.5432-4.232-10.958-6.419-13.36-0.25473-0.2808-0.76419-0.79529-1.0462-1.0109v2.2e-5c-0.47853-0.36776-0.98981-0.72466-1.5175-1.0507 0.67686 0.66669 0.84061 1.7555 0.43304 2.6323-0.04913 0.10688-0.10007 0.2192-0.15466 0.33877-0.0036 0.0091-0.0091 0.01812-0.01274 0.02536-1.7049 3.7337-5.3748 12.187-6.3155 26.618v0.0018c0.03457 0.08243 0.73505 3.4453 1.9767 7.6017 1.2416 4.1564 2.8922 7.5197 4.5305 13.02 0.81912 2.7503 1.6706 6.4696 2.6487 11.233 0.97809 4.7632 2.2151 10.703 3.0384 11.992 0.21776 0.34104 0.98084 0.32357 0.98084 0.32357 5.0782-0.31522 11.612-2.6449 13.834-3.9872zm-13.834 3.9872c0.09643 0.50361 0.33661 0.77172 0.46579 1.0127 0.35844 0.66846 0.36754 1.0253 0.51856 1.2645 0.09097 0.14674 0.24017 0.26086 0.41303 0.26267 3.9119 0.06341 10.267-2.1123 12.46-3.326 0.06004-0.03261 0.4949-0.3134 0.54949-0.346 0.79512-0.44926 1.0113-0.71622 0.86033-1.2687-0.07642-0.27898-0.36542-0.49752-0.53464-1.2475-0.05458-0.23912-0.10114-0.3727-0.22744-0.76449-0.13282 0.10869-0.2893 0.21197-0.46943 0.31523-0.06368 0.03623-0.13464 0.07065-0.20196 0.1105-1.8523 1.134-7.853 3.4872-13.834 3.9872z" fill="url(#radialGradient1063)" opacity=".8"/>
				<path id="sombra capucha" transform="translate(-11.845,-2.9533)" d="m65.234 0.65331c0.07422 0.9614 2.2661 2.877 2.2661 2.877-4.4189 1.8481-9.127 3.1888-14.583 3.2169-5.6443-0.028374-10.247-1.4374-14.571-3.2169 0 0 2.1918-1.9156 2.2661-2.877-2.9115-3.6775-5.1523-8.2961-5.5076-14.853 0.0984-8.4351 2.0016-13.317 5.7316-16.613 3.0439-2.7584 5.8868-4.591 12.087-4.9861 6.2 0.39512 9.0429 2.2277 12.087 4.9861 3.73 3.2958 5.6332 8.1777 5.7316 16.613-0.35524 6.5566-2.5961 11.175-5.5076 14.853" fill="url(#radialGradient982)" opacity=".8" stroke-width="1.0001"/>
			</g>
			<g id="contornos" fill="none" stroke="#000">
				<path id="contorno completo" transform="translate(-11.845 -2.9541)" d="m67.499 3.5298c-4.7832 2.1782-9.8324 3.108-14.582 3.2177-4.75-0.10952-9.7883-1.0394-14.571-3.2172 1.5639-1.2085 2.1918-1.9156 2.2661-2.877-2.9115-3.6775-5.1523-8.2961-5.5076-14.853 0.0984-8.4351 2.0016-13.317 5.7316-16.613 3.0439-2.7584 5.8868-4.591 12.087-4.9861 6.2 0.39512 9.0429 2.2277 12.087 4.9861 3.73 3.2958 5.6332 8.1777 5.7316 16.613-0.35524 6.5563-2.5961 11.175-5.5082 14.852 0.07362 0.96147 0.70158 1.6685 2.2655 2.8774zm-64.871 78.035c-0.06732-0.04167-0.13828-0.07428-0.20196-0.1105-0.18195-0.10145-0.46943-0.31521-0.46943-0.31521s-0.25505-0.18063-0.48138-0.42624c-1.0949-1.1881 1.1051-5.8513 2.3371-10.245 1.5596-5.5615 2.7059-8.9787 3.7228-14.838 1.3468-7.7598 2.8699-9.9469 4.166-16.011 1.0127-4.7377 2.0218-7.9912 2.9031-12.432 2.0287-8.5432 4.232-10.958 6.419-13.36 0.25473-0.2808 0.76419-0.79529 1.0462-1.0109v2.2e-5c0.47853-0.36776 0.98981-0.72466 1.5175-1.0507-0.67685 0.66669-0.84061 1.7555-0.43304 2.6323 0.04913 0.10688 0.10007 0.2192 0.15466 0.33877 0.0036 0.0091 0.0091 0.01812 0.01274 0.02536 1.7049 3.7337 5.3748 12.187 6.3155 26.618v0.0018c-0.03457 0.08243-0.73505 3.4453-1.9767 7.6017-1.2416 4.1564-2.8922 7.5197-4.5305 13.02-0.81912 2.7503-1.6706 6.4696-2.6487 11.233-0.97809 4.7632-2.2151 10.703-3.0384 11.992-0.21776 0.34104-0.98084 0.32357-0.98084 0.32357-5.0782-0.31522-11.612-2.6449-13.834-3.9872zm13.834 3.9872c-0.09643 0.50361-0.33661 0.77172-0.46579 1.0127-0.35844 0.66846-0.36754 1.0253-0.51856 1.2645-0.09097 0.14674-0.24017 0.26086-0.41303 0.26267-3.9119 0.06341-10.267-2.1123-12.46-3.326-0.06004-0.03261-0.4949-0.3134-0.54949-0.346-0.79512-0.44926-1.0113-0.71622-0.86033-1.2687 0.07642-0.27898 0.36542-0.49752 0.53464-1.2475 0.05458-0.23912 0.10114-0.3727 0.22744-0.76449 0.13282 0.10869 0.2893 0.21197 0.46943 0.31523 0.06368 0.03623 0.13464 0.07065 0.20196 0.1105 1.8523 1.134 7.853 3.4872 13.834 3.9872zm86.743-3.9673c0.0673-0.04167 0.13828-0.07428 0.20196-0.1105 0.18195-0.10145 0.46943-0.31521 0.46943-0.31521s0.25505-0.18063 0.48138-0.42624c1.0949-1.1881-1.1051-5.8513-2.3371-10.245-1.5596-5.5615-2.7059-8.9787-3.7228-14.838-1.3468-7.7598-2.8699-9.9469-4.166-16.011-1.0127-4.7377-2.0218-7.9912-2.9031-12.432-2.0287-8.5432-4.232-10.958-6.419-13.36-0.25473-0.2808-0.76419-0.79529-1.0462-1.0109v2.2e-5c-0.47853-0.36776-0.98981-0.72466-1.5175-1.0507 0.67686 0.66669 0.84061 1.7555 0.43304 2.6323-0.04913 0.10688-0.10007 0.2192-0.15466 0.33877-0.0036 0.0091-0.0091 0.01812-0.01274 0.02536-1.7049 3.7337-5.3748 12.187-6.3155 26.618v0.0018c0.03457 0.08243 0.73505 3.4453 1.9767 7.6017 1.2416 4.1564 2.8922 7.5197 4.5305 13.02 0.81912 2.7503 1.6706 6.4696 2.6487 11.233 0.97809 4.7632 2.2151 10.703 3.0384 11.992 0.21776 0.34104 0.98084 0.32357 0.98084 0.32357 5.0782-0.31522 11.612-2.6449 13.834-3.9872zm-13.834 3.9872c0.09643 0.50361 0.33661 0.77172 0.46579 1.0127 0.35844 0.66846 0.36754 1.0253 0.51856 1.2645 0.09097 0.14674 0.24017 0.26086 0.41303 0.26267 3.9119 0.06341 10.267-2.1123 12.46-3.326 0.06-0.03261 0.4949-0.3134 0.54949-0.346 0.79512-0.44926 1.0113-0.71622 0.86033-1.2687-0.0764-0.27898-0.36542-0.49752-0.53464-1.2475-0.0546-0.23912-0.10114-0.3727-0.22744-0.76449-0.13282 0.10869-0.2893 0.21197-0.46943 0.31523-0.0637 0.03623-0.13464 0.07065-0.20196 0.1105-1.8523 1.134-7.853 3.4872-13.834 3.9872zm-36.454-78.825c-4.75-0.10951-9.7883-1.0394-14.571-3.2171-1.1263 0.90645-3.7282 3.0949-9.6779 5.6981-0.97525 0.42754-3.1113 1.3062-5.0673 2.5272-0.67685 0.67573-0.84059 1.7754-0.43302 2.6631 0.04913 0.1087 0.10006 0.22281 0.15464 0.34237 0.0037 0.0091 0.0091 0.01818 0.01275 0.02538 1.7049 3.779 5.3748 12.333 6.3155 26.937v0.0036c-0.09721 3.1034-0.09949 4.1245-0.18865 5.9543-0.38085 4.317-0.22867 5.1954-0.34721 9.316-0.20459 5.3289 0.02862 6.0785-0.58154 11.626-0.4016 4.9159-0.55692 6.3812-1.0276 9.2277-0.68807 2.8535-1.0946 5.3684-1.2989 7.8967-0.23641 2.9246-0.20234 5.8672-0.02078 9.3726 0.23861 2.6306 1.3951 3.316 1.3951 3.316 0.25745 0.18023 0.66502 0.32153 1.1563 0.43384h3e-6c0.41485 0.0942 0.88792 0.17028 1.3792 0.22825 0.49126 0.05979 0.9989 0.10326 1.4811 0.13587 2.1798 0.24637 5.5204-0.54346 9.727-0.30072 2.9567 0.17028 6.3428 0.40216 10.055 0.56701 0.23654 0.01087 0.90247 0.05434 1.5611 0.05254 0.75327-0.0018 1.5102-0.05073 1.8341-0.06522 3.5917-0.16485 6.8741-0.38767 9.7507-0.55433 4.2067-0.24274 7.5473 0.54709 9.727 0.30072 0.48035-0.03261 0.98981-0.07429 1.4811-0.13586 0.49126-0.05797 0.96616-0.13406 1.381-0.22826 0.50036-0.11412 0.91157-0.25905 1.1609-0.43839 0 0 1.1483-0.6809 1.3869-3.3116 0.18216-3.517 0.21585-6.4674-0.02311-9.4016-0.20512-2.5187-0.61114-5.0254-1.2966-7.8682-0.47073-2.8466-0.62605-4.312-1.0276-9.228-0.61016-5.5479-0.37695-6.2975-0.58154-11.627-0.11855-4.1208 0.03364-4.9992-0.34721-9.3163-0.08916-1.8298-0.09144-2.851-0.18865-5.9545v-0.0018c0.94068-14.603 4.6088-23.159 6.3155-26.937 0.0018-0.0091 0.0073-0.01628 0.01274-0.02538 0.05459-0.12138 0.10553-0.23368 0.15466-0.34237 0.40939-0.88768 0.24745-1.9891-1.0717-2.9373-1.3192-0.94821-3.4553-1.8268-4.4305-2.2543-5.9498-2.6032-8.5516-4.7915-9.6779-5.697-4.7832 2.178-9.8324 3.1078-14.582 3.2175zm25.357 91.684c-0.24929 0.17934-0.6605 0.32427-1.1609 0.43839l6e-6 1e-6c-0.41485 0.0942-0.88974 0.17028-1.381 0.22826-0.49126 0.06159-1.0007 0.10326-1.4811 0.13586-2.1798 0.24637-5.5204-0.54346-9.727-0.30072-2.8766 0.16666-6.159 0.38948-9.7507 0.55433-0.32387 0.01449-1.0808 0.0634-1.8341 0.06522-0.65866 0.0018-1.3246-0.04167-1.5611-0.05254-3.7118-0.16485-7.0979-0.39673-10.055-0.56701-4.2067-0.24275-7.5473 0.54709-9.727 0.30072-0.48215-0.03261-0.98979-0.07608-1.4811-0.13586-0.49126-0.05797-0.96434-0.13406-1.3792-0.22826-0.49126-0.11232-0.89883-0.25362-1.1481-0.42934-0.1219 0.77172 0.02455 3.4021-0.22653 4.1394-0.08006 0.23368-0.32205 0.70649 0.06368 1.1249 0.21652 0.23368 0.68959 0.41302 1.29 0.55069 0.82787 0.19021 1.8959 0.29891 2.8603 0.36411 2.1798 0.24818 5.5204-0.54344 9.727-0.3007 3.3624 0.19383 7.278 0.46736 11.597 0.6322h0.03275c4.3195-0.16484 8.2351-0.43837 11.597-0.6322 4.2067-0.24274 7.5473 0.54888 9.727 0.3007 0.96434-0.0634 2.0324-0.1739 2.8603-0.36411 0.60044-0.13767 1.0735-0.31701 1.29-0.55069 0.38573-0.41844 0.14374-0.88943 0.06368-1.1249-0.25109-0.73729-0.07732-3.3786-0.19742-4.1485z" stroke-width=".1815"/>
				<path id="costura detalle" transform="translate(-11.845 -2.9541)" d="m52.922-35.798-0.0054 42.546" stroke-dasharray="0.635, 0.635" stroke-width=".079375"/>
				<path id="capucha detalle" transform="translate(-11.845 -2.9541)" d="m47.039-21.066c4.2019-1.4613 8.0803-1.2312 11.767 0" stroke-width=".10583"/>
			</g>
			<g id="imagen">
				<path id="espacio imagen" d="m57.136 22.509 0.21863 56.762-32.36-0.24838-0.21863-56.534z" color="#000000" fill="none" mask="url(#mask-powermask-path-effect4288)" stroke-width="1.1908" style="-inkscape-stroke:none"/>
			</g>
			<g id="texto" transform="translate(4.5117,4.1555)" font-family="'Century Schoolbook'" font-weight="bold" stroke-width=".1815" text-anchor="middle">
				<text id="text1154" x="36.616711" y="40.438358" fill="#000000" font-size="7.7611px" stroke="#000000" text-align="center" style="font-variant-caps:normal;font-variant-east-asian:normal;font-variant-ligatures:normal;font-variant-numeric:normal" xml:space="preserve"><tspan id="tspan1150" x="36.616711" y="40.438358">SUPER</tspan><tspan id="tspan1152" x="36.616711" y="50.139744">EQUIPO</tspan></text>
				<text id="text1158" transform="translate(-4.5057,-14.857)" x="40.598637" y="42.656906" fill="#00ffff" font-size="22.578px" stroke="#050505" stroke-width=".52917" text-align="center" style="font-variant-caps:normal;font-variant-east-asian:normal;font-variant-ligatures:normal;font-variant-numeric:normal" xml:space="preserve"><tspan id="tspan1156" x="40.598637" y="42.656906" fill="#00ffff" font-family="'Century Schoolbook'" font-size="22.578px" font-weight="bold" stroke="#050505" stroke-width=".52917" style="font-variant-caps:normal;font-variant-east-asian:normal;font-variant-ligatures:normal;font-variant-numeric:normal">10</tspan></text>
			</g>
		</g>
	</g>
</svg>
