<svg id="buzo" class="classClothes" width="400" height="550" version="1.1" viewBox="0 0 105.83 145.52" xmlns="http://www.w3.org/2000/svg" xmlns:xlink="http://www.w3.org/1999/xlink">
	<defs id="defs1131">
		<linearGradient id="linearGradient1061">
			<stop id="stop1057" stop-opacity=".2" offset="0"/>
			<stop id="stop1059" stop-opacity=".7" offset="1"/>
		</linearGradient>
		<mask id="mask-powermask-path-effect4288" maskUnits="userSpaceOnUse">
			<path id="mask-powermask-path-effect4288_box" d="m23.776 21.489h34.579v58.782h-34.579z" fill="#fff"/>
			<path id="path1128" d="m52.393 46.857q0-0.33864-0.18806-0.53873-0.18805-0.2001-0.44744-0.2001-0.23344 0-0.35017 0.15392-0.01297 0.0154-0.49283 0.36942t-1.3942 0.76962q-0.91433 0.4156-2.2437 0.75423t-3.0413 0.33863q-1.2191 0-2.516-0.18471t-2.6717-0.56952q-1.3747-0.4002-2.529-0.86967t-2.101-1.0544q-0.11672-0.07696-0.29829-0.07696-0.25938 0-0.44095 0.2078t-0.18157 0.54643q0 0.46177 0.36314 0.67726 2.7235 1.6162 6.2901 2.355v1.7393q0.19454 2.4936 1.1802 4.0328 0.95972 1.5085 2.4771 1.5085 0.58362 0 1.0829-0.26937 0.49931-0.26937 0.88839-0.78501t0.64846-1.2468q0.25939-0.73114 0.37611-1.6547v-3.0785q0.93378-0.10775 1.8222-0.4079 0.88839-0.30015 1.6082-0.65418 0.71979-0.35402 1.2256-0.69266 0.5058-0.33863 0.68737-0.53873 0.24641-0.2155 0.24641-0.63109zm-17.223-5.3412q0 0.38481 0.10375 0.73884t0.29829 0.62339q0.19454 0.26937 0.47337 0.43099 0.27884 0.16162 0.62901 0.16162 0.83003 0 1.4785-0.83119 0.63549-0.8004 0.63549-1.8933 0-0.38481-0.10375-0.73883t-0.29829-0.63109q-0.19454-0.27706-0.47338-0.43868t-0.629-0.16162q-0.83003 0-1.4785 0.8158-0.63549 0.8158-0.63549 1.924zm10.609 1.57q0 0.24628 0.07782 0.34633t0.26587 0.12314q0.18805 0.0231 0.49931 0.0231t0.76518 0.03849 1.0635 0.15392q0.60955 0.11544 1.4136 0.37712l0.11672 0.0154q0.14266 0 0.26587-0.14623t0.12321-0.36172-0.14266-0.34633q-0.14266-0.13083-0.47986-0.22319-0.3372-0.09235-0.86894-0.18471-0.53174-0.09235-1.3099-0.21549 0.51877-0.30785 1.1218-0.608 0.60307-0.30015 1.2904-0.608 0.28532-0.09235 0.28532-0.46177 0-0.2155-0.12321-0.35403t-0.27884-0.13853q-0.20751 0-1.5693 0.69266-0.68737 0.35402-1.2645 0.71575-0.57713 0.36172-1.057 0.76193-0.19454 0.13853-0.19454 0.4002zm9.9344 5.7568q0 0.49256-0.02593 1.0159t-0.06485 1.0467q-0.46689 0.66187-1.6341 1.1698-0.58362 0.26167-1.3164 0.49256t-1.6276 0.44638q-0.88191 0.2001-1.7638 0.33863-0.88191 0.13853-1.7768 0.2155-0.83003 4.1713-3.6962 4.1713-3.0218 0-4.0853-3.9097-2.6587-0.12314-4.7597-0.36942t-3.4368-0.6157q-1.3229-0.36942-2.2437-0.78501-0.46689-0.2155-0.843-0.4156t-0.68737-0.38481q-0.57064-0.35402-1.3099-1.1544-0.03891-0.15392-0.06485-0.50025t-0.02594-0.90046q0-0.92354 0.11024-1.7778 0.11024-0.85428 0.32423-1.6855t0.53174-1.6624q0.31774-0.83119 0.73276-1.7086 0.42798-0.89276 0.99214-1.7393 0.56416-0.84658 1.245-1.6085t1.459-1.4161 1.6082-1.1621l-1.7508-6.08-0.05187-0.4156q0-0.49256 0.27884-0.87737t0.74573-0.38481q0.3372 0 0.62901 0.23089t0.39556 0.63109l1.673 5.8953q2.3734-1.0775 5.3563-1.0775 1.1543 0 2.2048 0.12314t2.0232 0.35403q1.9194 0.47716 4.1112 1.7547l1.5693-5.4335q0.10375-0.38481 0.3761-0.6157t0.60955-0.23089q0.23345 0 0.42799 0.10775t0.33071 0.28476q0.13618 0.17701 0.21399 0.4002 0.07782 0.22319 0.07782 0.46947l-0.05187 0.4002-1.7249 6.003q1.284 1.1544 2.2113 2.4012t1.5304 2.6398q0.60307 1.393 0.88839 2.9553t0.28532 3.3632z" fill="currentColor" stroke-width=".014129"/>
		</mask>
		<radialGradient id="radialGradient982" cx="52.763" cy="-24.94" r="17.818" gradientTransform="matrix(1.362 .010412 -.030136 3.9422 -19.691 106.17)" gradientUnits="userSpaceOnUse">
			<stop id="stop976" stop-opacity=".7" offset="0"/>
			<stop id="stop978" stop-opacity="0" offset="1"/>
		</radialGradient>
		<radialGradient id="radialGradient1043" cx="52.912" cy="54.24" r="29.966" gradientTransform="matrix(1.2618 -.0065187 .01973 3.819 -14.921 -152.56)" gradientUnits="userSpaceOnUse">
			<stop id="stop1039" stop-opacity=".2" offset="0"/>
			<stop id="stop1037" stop-opacity=".7" offset="1"/>
		</radialGradient>
		<radialGradient id="radialGradient1063" cx="85.061" cy="50.768" r="14.244" gradientTransform="matrix(1.7337 -.28093 1.0646 6.5696 -116.45 -255.29)" gradientUnits="userSpaceOnUse" xlink:href="#linearGradient1061"/>
		<radialGradient id="radialGradient1063-3" cx="85.061" cy="50.768" r="14.244" gradientTransform="matrix(-1.7337 -.28093 -1.0646 6.5696 197.2 -256.96)" gradientUnits="userSpaceOnUse" xlink:href="#linearGradient1061"/>
	</defs>
	<g id="corte 2" class="cutClothes" transform="translate(13.232,39.099)">
		<g id="frontal" class="viewClothes" transform="translate(-1.3872,2.0367)">
			<g id="color" class="colors">
				<path id="torso"  class="torso" transform="translate(-11.845,-2.9533)" d="m58.559 7.3221 0.34173-1.3785c0.43348-0.15055 0.72721-0.4392 0.72721-0.77047 0-0.48752-0.63616-0.88273-1.4209-0.88273-0.78475-1e-6 -1.4209 0.39521-1.4209 0.88273 0 0.22905 0.14042 0.43772 0.37514 0.58526l-0.53926 2.1199c-1.2281 0.30179-2.4738 0.49499-3.6999 0.5233-1.2683-0.02924-2.5575-0.23493-3.8322-0.5428l-0.51436-2.1004c0.23472-0.14754 0.37514-0.35621 0.37514-0.58524 0-0.4875-0.63616-0.8827-1.4209-0.8827-0.78475 0-1.4209 0.3952-1.4209 0.8827 0 0.33126 0.29373 0.6199 0.72721 0.77044l0.3306 1.3572c-2.9617-0.9984-5.9389-2.4586-8.8215-3.771-1.1263 0.90645-3.7282 3.0949-9.6779 5.6981-0.97525 0.42754-3.1113 1.3062-5.0673 2.5272-0.67685 0.67573-0.84059 1.7754-0.43302 2.6631 0.04913 0.1087 0.10006 0.22281 0.15464 0.34237 0.0037 0.0091 0.0091 0.01818 0.01275 0.02538 1.7049 3.779 5.3748 12.333 6.3155 26.937v0.0036c-0.09721 3.1034-0.09949 4.1245-0.18865 5.9543-0.38085 4.317-0.22867 5.1954-0.34721 9.316-0.20459 5.3289 0.02862 6.0785-0.58154 11.626-0.4016 4.9159-0.55692 6.3812-1.0276 9.2277-0.68807 2.8535-1.0946 5.3684-1.2989 7.8967-0.47573 0.69618-0.90006 1.0962-0.73935 3.7229 0.0867 1.2735 0.30373 3.072 0.7183 5.6584 0.23888 2.6218 1.3954 3.3072 1.3954 3.3072 0.25745 0.18023 0.66502 0.32153 1.1563 0.43384h3e-6c0.41485 0.0942 0.88792 0.17028 1.3792 0.22825 0.49126 0.05979 0.9989 0.10326 1.4811 0.13587 2.1798 0.24637 5.5204-0.54346 9.727-0.30072 2.9567 0.17028 6.3428 0.40216 10.055 0.56701 0.23654 0.01087 0.90247 0.05434 1.5611 0.05254 0.75327-0.0018 1.5102-0.05073 1.8341-0.06522 3.5917-0.16485 6.8741-0.38767 9.7507-0.55433 4.2067-0.24274 7.5473 0.54709 9.727 0.30072 0.48035-0.03261 0.98981-0.07429 1.4811-0.13586 0.49126-0.05797 0.96616-0.13406 1.381-0.22826 0.50036-0.11412 0.91157-0.25905 1.1609-0.43839 0 0 1.1483-0.6809 1.3862-3.2986 0.41431-2.5952 0.63134-4.3938 0.71804-5.6674 0.16071-2.6268-0.26362-3.0268-0.73935-3.723-0.20616-2.5429-0.61219-5.0496-1.2977-7.8924-0.47073-2.8466-0.62605-4.312-1.0276-9.228-0.61016-5.5479-0.37695-6.2975-0.58154-11.627-0.11855-4.1208 0.03364-4.9992-0.34721-9.3163-0.08916-1.8298-0.09144-2.851-0.18865-5.9545v-0.0018c0.94068-14.603 4.6088-23.159 6.3155-26.937 0.0018-0.0091 0.0073-0.01628 0.01274-0.02538 0.05459-0.12138 0.10553-0.23368 0.15466-0.34237 0.40939-0.88768 0.24745-1.9891-1.0717-2.9373-1.3192-0.94821-3.4553-1.8268-4.4305-2.2543-5.9498-2.6032-8.5516-4.7915-9.6779-5.697-2.9202 1.3298-5.9375 2.8109-8.9401 3.7926zm19.715 91.109c-0.24929 0.17934-0.6605 0.32427-1.1609 0.43839l6e-6 1e-6c-0.41485 0.0942-0.88974 0.17028-1.381 0.22826-0.49126 0.06159-1.0007 0.10326-1.4811 0.13586-2.1798 0.24637-5.5204-0.54346-9.727-0.30072-2.8766 0.16666-6.159 0.38948-9.7507 0.55433-0.32387 0.01449-1.0808 0.0634-1.8341 0.06522-0.65866 0.0018-1.3246-0.04167-1.5611-0.05254-3.7118-0.16485-7.0979-0.39673-10.055-0.56701-4.2067-0.24275-7.5473 0.54709-9.727 0.30072-0.48215-0.03261-0.98979-0.07608-1.4811-0.13586-0.49126-0.05797-0.96434-0.13406-1.3792-0.22826-0.49126-0.11232-0.89883-0.25362-1.1481-0.42934-0.1219 0.77172 0.02455 3.4021-0.22653 4.1394-0.08006 0.23368-0.32205 0.70649 0.06368 1.1249 0.21652 0.23368 0.68959 0.41302 1.29 0.55069 0.82787 0.19021 1.8959 0.29891 2.8603 0.36411 2.1798 0.24818 5.5204-0.54344 9.727-0.3007 3.3624 0.19383 7.278 0.46736 11.597 0.6322h0.03275c4.3195-0.16484 8.2351-0.43837 11.597-0.6322 4.2067-0.24274 7.5473 0.54888 9.727 0.3007 0.96434-0.0634 2.0324-0.1739 2.8603-0.36411 0.60044-0.13767 1.0735-0.31701 1.29-0.55069 0.38573-0.41844 0.14374-0.88943 0.06368-1.1249-0.25109-0.73729-0.07732-3.3786-0.19742-4.1485z" fill="#f0f"/>
				<path id="bolsillo canguro" class="bolsillo canguro" transform="translate(-11.845,-2.9533)" d="m36.648 66.924c-0.77572 8.6033-4.7539 14.462-10.435 18.842-0.47468 0.67203-0.89901 1.072-0.74147 3.6993 0.21623-0.66099 0.78633-1.114 1.1811-1.3715 7.1171-4.6419 11.593-11.068 12.199-21.673-0.73167 0.155-1.472 0.3239-2.2036 0.50303zm32.557 0c0.77572 8.6033 4.7539 14.462 10.435 18.842 0.47468 0.67203 0.89901 1.072 0.74147 3.6993-0.21623-0.66099-0.78633-1.114-1.1811-1.3715-7.1171-4.6419-11.593-11.068-12.199-21.673 0.73167 0.155 1.472 0.3239 2.2036 0.50303zm-14.434 32.597c3.5917-0.16484 6.8741-0.38766 9.7507-0.55431 4.2067-0.24274 7.5473 0.54707 9.727 0.3007 0.48035-0.03261 0.98981-0.07426 1.4811-0.13586 0.49126-0.05797 0.96616-0.13405 1.381-0.22825 0.50036-0.11412 0.91157-0.25904 1.1609-0.43838 0 0 1.1483-0.68087 1.3882-3.319 0.41507-2.6083 0.6321-4.4069 0.71563-5.6809-0.21853-0.66138-0.78863-1.1144-1.1834-1.3719-7.1171-4.6421-11.593-11.068-12.19-21.672-4.6852-0.99253-9.3797-1.4903-14.075-1.4906-4.6952 3.32e-4 -9.3896 0.49805-14.075 1.4906-0.59713 10.604-5.0732 17.03-12.19 21.672-0.39482 0.25752-0.96492 0.71056-1.1834 1.3719 0.08354 1.274 0.30057 3.0726 0.71563 5.6809 0.23988 2.6381 1.3882 3.319 1.3882 3.319 0.24929 0.17934 0.6605 0.32426 1.1609 0.43838 0.41485 0.0942 0.88974 0.17028 1.381 0.22825 0.49126 0.0616 1.0007 0.10325 1.4811 0.13586 2.1798 0.24637 5.5204-0.54344 9.727-0.3007 2.8766 0.16665 6.159 0.38947 9.7507 0.55431 0.32387 0.0145 1.0808 0.0634 1.844 0.0652 0.76324-0.0018 1.5201-0.0507 1.844-0.0652z" fill="#800080"/>
				<path id="mangas" class="mangas" transform="translate(1.3923,-1.6443)" d="m-10.609 80.256c-0.06732-0.04167-0.13828-0.07428-0.20196-0.1105-0.18195-0.10145-0.46943-0.31521-0.46943-0.31521s-0.25505-0.18063-0.48138-0.42624c-1.0949-1.1881 1.1051-5.8513 2.3371-10.245 1.5596-5.5615 2.7059-8.9787 3.7228-14.838 1.3468-7.7598 2.8699-9.9469 4.166-16.011 1.0127-4.7377 2.0218-7.9912 2.9031-12.432 2.0287-8.5432 4.232-10.958 6.419-13.36 0.25473-0.2808 0.76419-0.79529 1.0462-1.0109v2.2e-5c0.47853-0.36776 0.98981-0.72466 1.5175-1.0507-0.67685 0.66669-0.84061 1.7555-0.43304 2.6323 0.04913 0.10688 0.10007 0.2192 0.15466 0.33877 0.0036 0.0091 0.0091 0.01812 0.01274 0.02536 1.7049 3.7337 5.3748 12.187 6.3155 26.618v0.0018c-0.03457 0.08243-0.73505 3.4453-1.9767 7.6017-1.2416 4.1564-2.8922 7.5197-4.5305 13.02-0.81912 2.7503-1.6706 6.4696-2.6487 11.233-0.97809 4.7632-2.2151 10.703-3.0384 11.992-0.21776 0.34104-0.98084 0.32357-0.98084 0.32357-5.0782-0.31522-11.612-2.6449-13.834-3.9872zm13.834 3.9872c-0.09643 0.50361-0.33661 0.77172-0.46579 1.0127-0.35844 0.66846-0.36754 1.0253-0.51856 1.2645-0.09097 0.14674-0.24017 0.26086-0.41303 0.26267-3.9119 0.06341-10.267-2.1123-12.46-3.326-0.06004-0.03261-0.4949-0.3134-0.54949-0.346-0.79512-0.44926-1.0113-0.71622-0.86033-1.2687 0.07642-0.27898 0.36542-0.49752 0.53464-1.2475 0.05458-0.23912 0.10114-0.3727 0.22744-0.76449 0.13282 0.10869 0.2893 0.21197 0.46943 0.31523 0.06368 0.03623 0.13464 0.07065 0.20196 0.1105 1.8523 1.134 7.853 3.4872 13.834 3.9872zm86.743-3.9673c0.06732-0.04167 0.13828-0.07428 0.20196-0.1105 0.18195-0.10145 0.46943-0.31521 0.46943-0.31521s0.25505-0.18063 0.48138-0.42624c1.0949-1.1881-1.1051-5.8513-2.3371-10.245-1.5596-5.5615-2.7059-8.9787-3.7228-14.838-1.3468-7.7598-2.8699-9.9469-4.166-16.011-1.0127-4.7377-2.0218-7.9912-2.9031-12.432-2.0287-8.5432-4.232-10.958-6.419-13.36-0.25473-0.2808-0.76419-0.79529-1.0462-1.0109v2.2e-5c-0.47853-0.36776-0.98981-0.72466-1.5175-1.0507 0.67686 0.66669 0.84061 1.7555 0.43304 2.6323-0.04913 0.10688-0.10007 0.2192-0.15466 0.33877-0.0036 0.0091-0.0091 0.01812-0.01274 0.02536-1.7049 3.7337-5.3748 12.187-6.3155 26.618v0.0018c0.03457 0.08243 0.73505 3.4453 1.9767 7.6017 1.2416 4.1564 2.8922 7.5197 4.5305 13.02 0.81912 2.7503 1.6706 6.4696 2.6487 11.233 0.97809 4.7632 2.2151 10.703 3.0384 11.992 0.21776 0.34104 0.98084 0.32357 0.98084 0.32357 5.0782-0.31522 11.612-2.6449 13.834-3.9872zm-13.834 3.9872c0.09643 0.50361 0.33661 0.77172 0.46579 1.0127 0.35844 0.66846 0.36754 1.0253 0.51856 1.2645 0.09097 0.14674 0.24017 0.26086 0.41303 0.26267 3.9119 0.06341 10.267-2.1123 12.46-3.326 0.06004-0.03261 0.4949-0.3134 0.54949-0.346 0.79512-0.44926 1.0113-0.71622 0.86033-1.2687-0.07642-0.27898-0.36542-0.49752-0.53464-1.2475-0.05458-0.23912-0.10114-0.3727-0.22744-0.76449-0.13282 0.10869-0.2893 0.21197-0.46943 0.31523-0.06368 0.03623-0.13464 0.07065-0.20196 0.1105-1.8523 1.134-7.853 3.4872-13.834 3.9872z" fill="#800080"/>
				<path id="capucha" class="capucha" transform="translate(-11.845,-2.9533)" d="m48.576 5.759c0.23472-0.14755 0.37514-0.35622 0.37514-0.58526 0-0.48752-0.63616-0.88273-1.4209-0.88273-0.78475 0-1.4209 0.39521-1.4209 0.88273 0 0.33127 0.29373 0.61992 0.72721 0.77047l0.3306 1.3572c-2.9617-0.99843-5.9389-2.4587-8.8215-3.7711 1.5639-1.2085 2.1918-1.9156 2.2661-2.877 1.1374 1.6393 3.0178 3.1413 4.9896 4.484-1.9881-1.367-3.8419-2.8435-4.9896-4.484-2.9115-3.6775-5.1523-8.2961-5.5076-14.853 0.0984-8.4351 2.0016-13.317 5.7316-16.613 3.0439-2.7584 5.8868-4.591 12.087-4.9861 6.2 0.39512 9.0429 2.2277 12.087 4.9861 3.73 3.2958 5.6332 8.1777 5.7316 16.613-0.35524 6.5566-2.5961 11.175-5.5076 14.853-1.1477 1.6405-3.0015 3.117-4.9896 4.484 1.9719-1.3427 3.8522-2.8447 4.9896-4.484 0.07422 0.9614 0.70218 1.6684 2.2661 2.877-2.9202 1.3295-5.9375 2.8107-8.9401 3.7924l0.34173-1.3785c0.43348-0.15056 0.72721-0.43922 0.72721-0.77049 0-0.48753-0.63616-0.88276-1.4209-0.88276-0.78475-1e-6 -1.4209 0.39522-1.4209 0.88276 0 0.22905 0.14042 0.43773 0.37514 0.58528l-0.53926 2.12c-1.2281 0.3018-2.4738 0.49501-3.6999 0.52332-1.2683-0.029242-2.5575-0.23494-3.8322-0.54282z" fill="#800080"/>
			</g>
			<g id="sombras">
				<path id="sombra completa" transform="translate(-11.845,-2.9533)" d="m48.576 5.759c0.23472-0.14755 0.37514-0.35622 0.37514-0.58526 0-0.48752-0.63616-0.88273-1.4209-0.88273-0.78475 0-1.4209 0.39521-1.4209 0.88273 0 0.33127 0.29373 0.61992 0.72721 0.77047l0.3306 1.3572c-2.9617-0.99843-5.9389-2.4587-8.8215-3.7711 1.5639-1.2085 2.1918-1.9156 2.2661-2.877 1.1374 1.6393 3.0178 3.1413 4.9896 4.484-1.9881-1.367-3.8419-2.8435-4.9896-4.484-2.9115-3.6775-5.1523-8.2961-5.5076-14.853 0.0984-8.4351 2.0016-13.317 5.7316-16.613 3.0439-2.7584 5.8868-4.591 12.087-4.9861 6.2 0.39512 9.0429 2.2277 12.087 4.9861 3.73 3.2958 5.6332 8.1777 5.7316 16.613-0.35524 6.5566-2.5961 11.175-5.5076 14.853-1.1477 1.6405-3.0015 3.117-4.9896 4.484 1.9719-1.3427 3.8522-2.8447 4.9896-4.484 0.07422 0.9614 0.70218 1.6684 2.2661 2.877-2.9202 1.3295-5.9375 2.8107-8.9401 3.7924l0.34173-1.3785c0.43348-0.15056 0.72721-0.43922 0.72721-0.77049 0-0.48753-0.63616-0.88276-1.4209-0.88276-0.78475-1e-6 -1.4209 0.39522-1.4209 0.88276 0 0.22905 0.14042 0.43773 0.37514 0.58528l-0.53926 2.12c-1.2281 0.3018-2.4738 0.49501-3.6999 0.52332-1.2683-0.029242-2.5575-0.23494-3.8322-0.54282zm-45.947 75.806c-0.06732-0.04167-0.13828-0.07428-0.20196-0.1105-0.18195-0.10145-0.46943-0.31521-0.46943-0.31521s-0.25505-0.18063-0.48138-0.42624c-1.0949-1.1881 1.1051-5.8513 2.3371-10.245 1.5596-5.5615 2.7059-8.9787 3.7228-14.838 1.3468-7.7598 2.8699-9.9469 4.166-16.011 1.0127-4.7377 2.0218-7.9912 2.9031-12.432 2.0287-8.5432 4.232-10.958 6.419-13.36 0.25473-0.2808 0.76419-0.79529 1.0462-1.0109v2.2e-5c0.47853-0.36776 0.98981-0.72466 1.5175-1.0507-0.67685 0.66669-0.84061 1.7555-0.43304 2.6323 0.04913 0.10688 0.10007 0.2192 0.15466 0.33877 0.0036 0.0091 0.0091 0.01812 0.01274 0.02536 1.7049 3.7337 5.3748 12.187 6.3155 26.618v0.0018c-0.03457 0.08243-0.73505 3.4453-1.9767 7.6017-1.2416 4.1564-2.8922 7.5197-4.5305 13.02-0.81912 2.7503-1.6706 6.4696-2.6487 11.233-0.9781 4.7632-2.2151 10.703-3.0384 11.992-0.21776 0.34104-0.98084 0.32357-0.98084 0.32357-5.0782-0.31522-11.612-2.6449-13.834-3.9872zm13.834 3.9872c-0.09643 0.50361-0.33661 0.77172-0.46579 1.0127-0.35844 0.66846-0.36754 1.0253-0.51856 1.2645-0.09097 0.14674-0.24017 0.26086-0.41303 0.26267-3.9119 0.06341-10.267-2.1123-12.46-3.326-0.06004-0.03261-0.4949-0.3134-0.54949-0.346-0.79512-0.44926-1.0113-0.71622-0.86033-1.2687 0.07642-0.27898 0.36542-0.49752 0.53464-1.2475 0.05458-0.23912 0.10114-0.3727 0.22744-0.76449 0.13282 0.10869 0.2893 0.21197 0.46943 0.31523 0.06368 0.03623 0.13464 0.07065 0.20196 0.1105 1.8523 1.134 7.853 3.4872 13.834 3.9872zm86.743-3.9673c0.0673-0.04167 0.13828-0.07428 0.20197-0.1105 0.18195-0.10145 0.46943-0.31521 0.46943-0.31521s0.25505-0.18063 0.48138-0.42624c1.0949-1.1881-1.1051-5.8513-2.3371-10.245-1.5596-5.5615-2.7059-8.9787-3.7228-14.838-1.3468-7.7598-2.8699-9.9469-4.166-16.011-1.0127-4.7377-2.0218-7.9912-2.9031-12.432-2.0287-8.5432-4.232-10.958-6.419-13.36-0.25473-0.2808-0.76419-0.79529-1.0462-1.0109v2.2e-5c-0.47853-0.36776-0.98981-0.72466-1.5175-1.0507 0.67686 0.66669 0.84061 1.7555 0.43304 2.6323-0.04913 0.10688-0.10007 0.2192-0.15466 0.33877-0.0036 0.0091-0.0091 0.01812-0.01274 0.02536-1.7049 3.7337-5.3748 12.187-6.3155 26.618v0.0018c0.03457 0.08243 0.73505 3.4453 1.9767 7.6017 1.2416 4.1564 2.8922 7.5197 4.5305 13.02 0.81912 2.7503 1.6706 6.4696 2.6487 11.233 0.97809 4.7632 2.2151 10.703 3.0384 11.992 0.21776 0.34104 0.98084 0.32357 0.98084 0.32357 5.0782-0.31522 11.612-2.6449 13.834-3.9872zm-13.834 3.9872c0.09643 0.50361 0.33661 0.77172 0.46579 1.0127 0.35844 0.66846 0.36754 1.0253 0.51856 1.2645 0.09097 0.14674 0.24017 0.26086 0.41303 0.26267 3.9119 0.06341 10.267-2.1123 12.46-3.326 0.06-0.03261 0.49491-0.3134 0.54949-0.346 0.79512-0.44926 1.0114-0.71622 0.86033-1.2687-0.0764-0.27898-0.36542-0.49752-0.53464-1.2475-0.0546-0.23912-0.10113-0.3727-0.22743-0.76449-0.13283 0.10869-0.2893 0.21197-0.46943 0.31523-0.0637 0.03623-0.13465 0.07065-0.20197 0.1105-1.8522 1.134-7.853 3.4872-13.834 3.9872zm-30.812-78.25 0.34173-1.3785c0.43348-0.15055 0.72721-0.4392 0.72721-0.77047 0-0.48752-0.63616-0.88273-1.4209-0.88273-0.78475-1e-6 -1.4209 0.39521-1.4209 0.88273 0 0.22905 0.14042 0.43772 0.37514 0.58526l-0.53926 2.1199c-1.2281 0.30179-2.4738 0.49499-3.6999 0.5233-1.2683-0.02924-2.5575-0.23493-3.8322-0.5428l-0.51436-2.1004c0.23472-0.14754 0.37514-0.35621 0.37514-0.58524 0-0.4875-0.63616-0.8827-1.4209-0.8827-0.78475 0-1.4209 0.3952-1.4209 0.8827 0 0.33126 0.29373 0.6199 0.72721 0.77044l0.3306 1.3572c-2.9617-0.9984-5.9389-2.4586-8.8215-3.771-1.1263 0.90645-3.7282 3.0949-9.6779 5.6981-0.97525 0.42754-3.1113 1.3062-5.0673 2.5272-0.67685 0.67573-0.84059 1.7754-0.43302 2.6631 0.04913 0.1087 0.10006 0.22281 0.15464 0.34237 0.0037 0.0091 0.0091 0.01818 0.01275 0.02538 1.7049 3.779 5.3748 12.333 6.3155 26.937v0.0036c-0.09721 3.1034-0.09949 4.1245-0.18865 5.9543-0.38085 4.317-0.22867 5.1954-0.34721 9.316-0.20459 5.3289 0.02862 6.0785-0.58154 11.626-0.4016 4.9159-0.55692 6.3812-1.0276 9.2277-0.68807 2.8535-1.0946 5.3684-1.2989 7.8967-0.47573 0.69618-0.90006 1.0962-0.73935 3.7229 0.0867 1.2735 0.30373 3.072 0.7183 5.6584 0.23888 2.6218 1.3954 3.3072 1.3954 3.3072 0.25745 0.18023 0.66502 0.32153 1.1563 0.43384h3e-6c0.41485 0.0942 0.88792 0.17028 1.3792 0.22825 0.49126 0.05979 0.9989 0.10326 1.4811 0.13587 2.1798 0.24637 5.5204-0.54346 9.727-0.30072 2.9567 0.17028 6.3428 0.40216 10.055 0.56701 0.23654 0.01087 0.90247 0.05434 1.5611 0.05254 0.75327-0.0018 1.5102-0.05073 1.8341-0.06522 3.5917-0.16485 6.8741-0.38767 9.7507-0.55433 4.2067-0.24274 7.5473 0.54709 9.727 0.30072 0.48035-0.03261 0.98981-0.07429 1.4811-0.13586 0.49126-0.05797 0.96616-0.13406 1.381-0.22826 0.50036-0.11412 0.91157-0.25905 1.1609-0.43839 0 0 1.1483-0.6809 1.3862-3.2986 0.41431-2.5952 0.63134-4.3938 0.71804-5.6674 0.16071-2.6268-0.26362-3.0268-0.73935-3.723-0.20616-2.5429-0.61219-5.0496-1.2977-7.8924-0.47073-2.8466-0.62605-4.312-1.0276-9.228-0.61016-5.5479-0.37695-6.2975-0.58154-11.627-0.11855-4.1208 0.03364-4.9992-0.34721-9.3163-0.08916-1.8298-0.09144-2.851-0.18865-5.9545v-0.0018c0.94068-14.603 4.6088-23.159 6.3155-26.937 0.0018-0.0091 0.0073-0.01628 0.01274-0.02538 0.05459-0.12138 0.10553-0.23368 0.15466-0.34237 0.40939-0.88768 0.24745-1.9891-1.0717-2.9373-1.3192-0.94821-3.4553-1.8268-4.4305-2.2543-5.9498-2.6032-8.5516-4.7915-9.6779-5.697-2.9202 1.3298-5.9375 2.8109-8.9401 3.7926zm19.715 91.109c-0.24929 0.17934-0.6605 0.32427-1.1609 0.43839l6e-6 1e-6c-0.41485 0.0942-0.88974 0.17028-1.381 0.22826-0.49126 0.06159-1.0007 0.10326-1.4811 0.13586-2.1798 0.24637-5.5204-0.54346-9.727-0.30072-2.8766 0.16666-6.159 0.38948-9.7507 0.55433-0.32387 0.01449-1.0808 0.0634-1.8341 0.06522-0.65866 0.0018-1.3246-0.04167-1.5611-0.05254-3.7118-0.16485-7.0979-0.39673-10.055-0.56701-4.2067-0.24275-7.5473 0.54709-9.727 0.30072-0.48215-0.03261-0.98979-0.07608-1.4811-0.13586-0.49126-0.05797-0.96434-0.13406-1.3792-0.22826-0.49126-0.11232-0.89883-0.25362-1.1481-0.42934-0.1219 0.77172 0.02455 3.4021-0.22653 4.1394-0.08006 0.23368-0.32205 0.70649 0.06368 1.1249 0.21652 0.23368 0.68959 0.41302 1.29 0.55069 0.82787 0.19021 1.8959 0.29891 2.8603 0.36411 2.1798 0.24818 5.5204-0.54344 9.727-0.3007 3.3624 0.19383 7.278 0.46736 11.597 0.6322h0.03275c4.3195-0.16484 8.2351-0.43837 11.597-0.6322 4.2067-0.24274 7.5473 0.54888 9.727 0.3007 0.96434-0.0634 2.0324-0.1739 2.8603-0.36411 0.60044-0.13767 1.0735-0.31701 1.29-0.55069 0.38573-0.41844 0.14374-0.88943 0.06368-1.1249-0.25109-0.73729-0.07732-3.3786-0.19742-4.1485z" fill-opacity=".20168" opacity=".5"/>
				<path id="sombra bordes" transform="translate(-11.845,-2.9533)" d="m78.274 98.431c-0.24929 0.17934-0.6605 0.32427-1.1609 0.43839l6e-6 1e-6c-0.41485 0.0942-0.88974 0.17028-1.381 0.22826-0.49126 0.06159-1.0007 0.10326-1.4811 0.13586-2.1798 0.24637-5.5204-0.54346-9.727-0.30072-2.8766 0.16666-6.159 0.38948-9.7507 0.55433-0.32387 0.01449-1.0808 0.0634-1.8341 0.06522-0.65866 0.0018-1.3246-0.04167-1.5611-0.05254-3.7118-0.16485-7.0979-0.39673-10.055-0.56701-4.2067-0.24275-7.5473 0.54709-9.727 0.30072-0.48215-0.03261-0.98979-0.07608-1.4811-0.13586-0.49126-0.05797-0.96434-0.13406-1.3792-0.22826-0.49126-0.11232-0.89883-0.25362-1.1481-0.42934-0.1219 0.77172 0.02455 3.4021-0.22653 4.1394-0.08006 0.23368-0.32205 0.70649 0.06368 1.1249 0.21652 0.23368 0.68959 0.41302 1.29 0.55069 0.82787 0.19021 1.8959 0.29891 2.8603 0.36411 2.1798 0.24818 5.5204-0.54344 9.727-0.3007 3.3624 0.19383 7.278 0.46736 11.597 0.6322h0.03275c4.3195-0.16484 8.2351-0.43837 11.597-0.6322 4.2067-0.24274 7.5473 0.54888 9.727 0.3007 0.96434-0.0634 2.0324-0.1739 2.8603-0.36411 0.60044-0.13767 1.0735-0.31701 1.29-0.55069 0.38573-0.41844 0.14374-0.88943 0.06368-1.1249-0.25109-0.73729-0.07732-3.3786-0.19742-4.1485zm11.097-12.859c0.09643 0.50361 0.33661 0.77172 0.46579 1.0127 0.35844 0.66846 0.36754 1.0253 0.51856 1.2645 0.09097 0.14674 0.24017 0.26086 0.41303 0.26267 3.9119 0.06341 10.267-2.1123 12.46-3.326 0.06-0.03261 0.49491-0.3134 0.54949-0.346 0.79512-0.44926 1.0114-0.71622 0.86033-1.2687-0.0764-0.27898-0.36542-0.49752-0.53464-1.2475-0.0546-0.23912-0.10113-0.3727-0.22743-0.76449-0.13283 0.10869-0.2893 0.21197-0.46943 0.31523-0.0637 0.03623-0.13465 0.07065-0.20197 0.1105-1.8522 1.134-7.853 3.4872-13.834 3.9872zm-72.909-0.01993c-0.09643 0.50361-0.33661 0.77172-0.46579 1.0127-0.35844 0.66846-0.36754 1.0253-0.51856 1.2645-0.09097 0.14674-0.24017 0.26086-0.41303 0.26267-3.9119 0.06341-10.267-2.1123-12.46-3.326-0.06004-0.03261-0.4949-0.3134-0.54949-0.346-0.79512-0.44926-1.0113-0.71622-0.86033-1.2687 0.07642-0.27898 0.36542-0.49752 0.53464-1.2475 0.05458-0.23912 0.10114-0.3727 0.22744-0.76449 0.13282 0.10869 0.2893 0.21197 0.46943 0.31523 0.06368 0.03623 0.13464 0.07065 0.20196 0.1105 1.8523 1.134 7.853 3.4872 13.834 3.9872z" fill-opacity=".30451" opacity=".8"/>
				<path id="sombra torso" transform="translate(-11.845,-2.9533)" d="m58.559 7.3221 0.34173-1.3785c0.43348-0.15055 0.72721-0.4392 0.72721-0.77047 0-0.48752-0.63616-0.88273-1.4209-0.88273-0.78475-1e-6 -1.4209 0.39521-1.4209 0.88273 0 0.22905 0.14042 0.43772 0.37514 0.58526l-0.53926 2.1199c-1.2281 0.30179-2.4738 0.49499-3.6999 0.5233-1.2683-0.02924-2.5575-0.23493-3.8322-0.5428l-0.51436-2.1004c0.23472-0.14754 0.37514-0.35621 0.37514-0.58524 0-0.4875-0.63616-0.8827-1.4209-0.8827-0.78475 0-1.4209 0.3952-1.4209 0.8827 0 0.33126 0.29373 0.6199 0.72721 0.77044l0.3306 1.3572c-2.9617-0.9984-5.9389-2.4586-8.8215-3.771-1.1263 0.90645-3.7282 3.0949-9.6779 5.6981-0.97525 0.42754-3.1113 1.3062-5.0673 2.5272-0.67685 0.67573-0.84059 1.7754-0.43302 2.6631 0.04913 0.1087 0.10006 0.22281 0.15464 0.34237 0.0037 0.0091 0.0091 0.01818 0.01275 0.02538 1.7049 3.779 5.3748 12.333 6.3155 26.937v0.0036c-0.09721 3.1034-0.09949 4.1245-0.18865 5.9543-0.38085 4.317-0.22867 5.1954-0.34721 9.316-0.20459 5.3289 0.02862 6.0785-0.58154 11.626-0.4016 4.9159-0.55692 6.3812-1.0276 9.2277-0.68807 2.8535-1.0946 5.3684-1.2989 7.8967-0.47573 0.69618-0.90006 1.0962-0.73935 3.7229 0.0867 1.2735 0.30373 3.072 0.7183 5.6584 0.23888 2.6218 1.3954 3.3072 1.3954 3.3072 0.25745 0.18023 0.66502 0.32153 1.1563 0.43384h3e-6c0.41485 0.0942 0.88792 0.17028 1.3792 0.22825 0.49126 0.05979 0.9989 0.10326 1.4811 0.13587 2.1798 0.24637 5.5204-0.54346 9.727-0.30072 2.9567 0.17028 6.3428 0.40216 10.055 0.56701 0.23654 0.01087 0.90247 0.05434 1.5611 0.05254 0.75327-0.0018 1.5102-0.05073 1.8341-0.06522 3.5917-0.16485 6.8741-0.38767 9.7507-0.55433 4.2067-0.24274 7.5473 0.54709 9.727 0.30072 0.48035-0.03261 0.98981-0.07429 1.4811-0.13586 0.49126-0.05797 0.96616-0.13406 1.381-0.22826 0.50036-0.11412 0.91157-0.25905 1.1609-0.43839 0 0 1.1483-0.6809 1.3862-3.2986 0.41431-2.5952 0.63134-4.3938 0.71804-5.6674 0.16071-2.6268-0.26362-3.0268-0.73935-3.723-0.20616-2.5429-0.61219-5.0496-1.2977-7.8924-0.47073-2.8466-0.62605-4.312-1.0276-9.228-0.61016-5.5479-0.37695-6.2975-0.58154-11.627-0.11855-4.1208 0.03364-4.9992-0.34721-9.3163-0.08916-1.8298-0.09144-2.851-0.18865-5.9545v-0.0018c0.94068-14.603 4.6088-23.159 6.3155-26.937 0.0018-0.0091 0.0073-0.01628 0.01274-0.02538 0.05459-0.12138 0.10553-0.23368 0.15466-0.34237 0.40939-0.88768 0.24745-1.9891-1.0717-2.9373-1.3192-0.94821-3.4553-1.8268-4.4305-2.2543-5.9498-2.6032-8.5516-4.7915-9.6779-5.697-2.9202 1.3298-5.9375 2.8109-8.9401 3.7926zm19.715 91.109c-0.24929 0.17934-0.6605 0.32427-1.1609 0.43839l6e-6 1e-6c-0.41485 0.0942-0.88974 0.17028-1.381 0.22826-0.49126 0.06159-1.0007 0.10326-1.4811 0.13586-2.1798 0.24637-5.5204-0.54346-9.727-0.30072-2.8766 0.16666-6.159 0.38948-9.7507 0.55433-0.32387 0.01449-1.0808 0.0634-1.8341 0.06522-0.65866 0.0018-1.3246-0.04167-1.5611-0.05254-3.7118-0.16485-7.0979-0.39673-10.055-0.56701-4.2067-0.24275-7.5473 0.54709-9.727 0.30072-0.48215-0.03261-0.98979-0.07608-1.4811-0.13586-0.49126-0.05797-0.96434-0.13406-1.3792-0.22826-0.49126-0.11232-0.89883-0.25362-1.1481-0.42934-0.1219 0.77172 0.02455 3.4021-0.22653 4.1394-0.08006 0.23368-0.32205 0.70649 0.06368 1.1249 0.21652 0.23368 0.68959 0.41302 1.29 0.55069 0.82787 0.19021 1.8959 0.29891 2.8603 0.36411 2.1798 0.24818 5.5204-0.54344 9.727-0.3007 3.3624 0.19383 7.278 0.46736 11.597 0.6322h0.03275c4.3195-0.16484 8.2351-0.43837 11.597-0.6322 4.2067-0.24274 7.5473 0.54888 9.727 0.3007 0.96434-0.0634 2.0324-0.1739 2.8603-0.36411 0.60044-0.13767 1.0735-0.31701 1.29-0.55069 0.38573-0.41844 0.14374-0.88943 0.06368-1.1249-0.25109-0.73729-0.07732-3.3786-0.19742-4.1485z" fill="url(#radialGradient1043)" opacity=".8"/>
				<path id="sombra manga izquierda" d="m-9.2168 78.612c-0.06732-0.04167-0.13828-0.07428-0.20196-0.1105-0.18195-0.10145-0.46943-0.31521-0.46943-0.31521s-0.25505-0.18063-0.48138-0.42624c-1.0949-1.1881 1.1051-5.8513 2.3371-10.245 1.5596-5.5615 2.7059-8.9787 3.7228-14.838 1.3468-7.7598 2.8699-9.9469 4.166-16.011 1.0127-4.7377 2.0218-7.9912 2.9031-12.432 2.0287-8.5432 4.232-10.958 6.419-13.36 0.25473-0.2808 0.76419-0.79529 1.0462-1.0109v2.2e-5c0.47853-0.36776 0.98981-0.72466 1.5175-1.0507-0.67686 0.66669-0.84061 1.7555-0.43304 2.6323 0.04913 0.10688 0.10007 0.2192 0.15466 0.33877 0.0036 0.0091 0.0091 0.01812 0.01274 0.02536 1.7049 3.7337 5.3748 12.187 6.3155 26.618v0.0018c-0.03457 0.08243-0.73505 3.4453-1.9767 7.6017-1.2416 4.1564-2.8922 7.5197-4.5305 13.02-0.81912 2.7503-1.6706 6.4696-2.6487 11.233-0.97809 4.7632-2.2151 10.703-3.0384 11.992-0.21776 0.34104-0.98084 0.32357-0.98084 0.32357-5.0782-0.31522-11.612-2.6449-13.834-3.9872zm13.834 3.9872c-0.09643 0.50361-0.33661 0.77172-0.46579 1.0127-0.35844 0.66846-0.36754 1.0253-0.51856 1.2645-0.09097 0.14674-0.24017 0.26086-0.41303 0.26267-3.9119 0.06341-10.267-2.1123-12.46-3.326-0.06004-0.03261-0.4949-0.3134-0.54949-0.346-0.79512-0.44926-1.0113-0.71622-0.86033-1.2687 0.07642-0.27898 0.36542-0.49752 0.53464-1.2475 0.05458-0.23912 0.10114-0.3727 0.22744-0.76449 0.13282 0.10869 0.2893 0.21197 0.46943 0.31523 0.06368 0.03623 0.13464 0.07065 0.20196 0.1105 1.8523 1.134 7.853 3.4872 13.834 3.9872z" fill="url(#radialGradient1063-3)" opacity=".8"/>
				<path id="sombra manga derecha" transform="translate(1.3923,-1.6443)" d="m89.968 80.276c0.06732-0.04167 0.13828-0.07428 0.20196-0.1105 0.18195-0.10145 0.46943-0.31521 0.46943-0.31521s0.25505-0.18063 0.48138-0.42624c1.0949-1.1881-1.1051-5.8513-2.3371-10.245-1.5596-5.5615-2.7059-8.9787-3.7228-14.838-1.3468-7.7598-2.8699-9.9469-4.166-16.011-1.0127-4.7377-2.0218-7.9912-2.9031-12.432-2.0287-8.5432-4.232-10.958-6.419-13.36-0.25473-0.2808-0.76419-0.79529-1.0462-1.0109v2.2e-5c-0.47853-0.36776-0.98981-0.72466-1.5175-1.0507 0.67686 0.66669 0.84061 1.7555 0.43304 2.6323-0.04913 0.10688-0.10007 0.2192-0.15466 0.33877-0.0036 0.0091-0.0091 0.01812-0.01274 0.02536-1.7049 3.7337-5.3748 12.187-6.3155 26.618v0.0018c0.03457 0.08243 0.73505 3.4453 1.9767 7.6017 1.2416 4.1564 2.8922 7.5197 4.5305 13.02 0.81912 2.7503 1.6706 6.4696 2.6487 11.233 0.97809 4.7632 2.2151 10.703 3.0384 11.992 0.21776 0.34104 0.98084 0.32357 0.98084 0.32357 5.0782-0.31522 11.612-2.6449 13.834-3.9872zm-13.834 3.9872c0.09643 0.50361 0.33661 0.77172 0.46579 1.0127 0.35844 0.66846 0.36754 1.0253 0.51856 1.2645 0.09097 0.14674 0.24017 0.26086 0.41303 0.26267 3.9119 0.06341 10.267-2.1123 12.46-3.326 0.06004-0.03261 0.4949-0.3134 0.54949-0.346 0.79512-0.44926 1.0113-0.71622 0.86033-1.2687-0.07642-0.27898-0.36542-0.49752-0.53464-1.2475-0.05458-0.23912-0.10114-0.3727-0.22744-0.76449-0.13282 0.10869-0.2893 0.21197-0.46943 0.31523-0.06368 0.03623-0.13464 0.07065-0.20196 0.1105-1.8523 1.134-7.853 3.4872-13.834 3.9872z" fill="url(#radialGradient1063)" opacity=".8"/>
				<path id="sombra capucha" transform="translate(-11.845,-2.9533)" d="m48.576 5.759c0.23472-0.14755 0.37514-0.35622 0.37514-0.58526 0-0.48752-0.63616-0.88273-1.4209-0.88273-0.78475 0-1.4209 0.39521-1.4209 0.88273 0 0.33127 0.29373 0.61992 0.72721 0.77047l0.3306 1.3572c-2.9617-0.99843-5.9389-2.4587-8.8215-3.7711 1.5639-1.2085 2.1918-1.9156 2.2661-2.877 1.1374 1.6393 3.0178 3.1413 4.9896 4.484-1.9881-1.367-3.8419-2.8435-4.9896-4.484-2.9115-3.6775-5.1523-8.2961-5.5076-14.853 0.0984-8.4351 2.0016-13.317 5.7316-16.613 3.0439-2.7584 5.8868-4.591 12.087-4.9861 6.2 0.39512 9.0429 2.2277 12.087 4.9861 3.73 3.2958 5.6332 8.1777 5.7316 16.613-0.35524 6.5566-2.5961 11.175-5.5076 14.853-1.1477 1.6405-3.0015 3.117-4.9896 4.484 1.9719-1.3427 3.8522-2.8447 4.9896-4.484 0.07422 0.9614 0.70218 1.6684 2.2661 2.877-2.9202 1.3295-5.9375 2.8107-8.9401 3.7924l0.34173-1.3785c0.43348-0.15056 0.72721-0.43922 0.72721-0.77049 0-0.48753-0.63616-0.88276-1.4209-0.88276-0.78475-1e-6 -1.4209 0.39522-1.4209 0.88276 0 0.22905 0.14042 0.43773 0.37514 0.58528l-0.53926 2.12c-1.2281 0.3018-2.4738 0.49501-3.6999 0.52332-1.2683-0.029242-2.5575-0.23494-3.8322-0.54282z" fill="url(#radialGradient982)" opacity=".8"/>
				<path id="sombra interna" transform="translate(-11.845,-2.9533)" d="m43.793-0.36321c-2.8137-2.5402-3.8227-4.0613-5.2316-6.9691-1.5278-4.0513-1.9577-8.475-0.43972-12.761 1.2202-3.2042 2.229-4.9093 4.5599-7.2006 2.9978-2.1881 5.9819-3.3736 10.24-3.4841 4.2584 0.11053 7.2425 1.296 10.24 3.4841 2.3309 2.2913 3.3397 3.9965 4.5599 7.2006 1.518 4.2861 1.0881 8.7097-0.43972 12.761-1.4089 2.9079-2.418 4.4289-5.2316 6.9691-3.3597 3.1388-7.0685 5.1687-9.1288 8.7655-2.0603-3.5968-5.7691-5.6267-9.1288-8.7655z" fill-opacity=".25188"/>
			</g>
			<g id="contornos">
				<path id="contorno completo" transform="translate(-11.845,-2.9533)" d="m48.576 5.759c0.23472-0.14755 0.37514-0.35622 0.37514-0.58526 0-0.48752-0.63616-0.88273-1.4209-0.88273-0.78475 0-1.4209 0.39521-1.4209 0.88273 0 0.33127 0.29373 0.61992 0.72721 0.77047l0.3306 1.3572c-2.9617-0.99843-5.9389-2.4587-8.8215-3.7711 1.5639-1.2085 2.1918-1.9156 2.2661-2.877 1.1374 1.6393 3.0178 3.1413 4.9896 4.484-1.9881-1.367-3.8419-2.8435-4.9896-4.484-2.9115-3.6775-5.1523-8.2961-5.5076-14.853 0.0984-8.4351 2.0016-13.317 5.7316-16.613 3.0439-2.7584 5.8868-4.591 12.087-4.9861 6.2 0.39512 9.0429 2.2277 12.087 4.9861 3.73 3.2958 5.6332 8.1777 5.7316 16.613-0.35524 6.5566-2.5961 11.175-5.5076 14.853-1.1477 1.6405-3.0015 3.117-4.9896 4.484 1.9719-1.3427 3.8522-2.8447 4.9896-4.484 0.07422 0.9614 0.70218 1.6684 2.2661 2.877-2.9202 1.3295-5.9375 2.8107-8.9401 3.7924l0.34173-1.3785c0.43348-0.15056 0.72721-0.43922 0.72721-0.77049 0-0.48753-0.63616-0.88276-1.4209-0.88276-0.78475-1e-6 -1.4209 0.39522-1.4209 0.88276 0 0.22905 0.14042 0.43773 0.37514 0.58528l-0.53926 2.12c-1.2281 0.3018-2.4738 0.49501-3.6999 0.52332-1.2683-0.029242-2.5575-0.23494-3.8322-0.54282zm-4.7823-6.1222c-2.8137-2.5402-3.8227-4.0613-5.2316-6.9691-1.5278-4.0513-1.9577-8.475-0.43972-12.761 1.2202-3.2042 2.229-4.9093 4.5599-7.2006 2.9978-2.1881 5.9819-3.3736 10.24-3.4841 4.2584 0.11053 7.2425 1.296 10.24 3.4841 2.3309 2.2913 3.3397 3.9965 4.5599 7.2006 1.518 4.2861 1.0881 8.7097-0.43972 12.761-1.4089 2.9079-2.418 4.4289-5.2316 6.9691-3.3597 3.1388-7.0685 5.1687-9.1288 8.7655-2.0603-3.5968-5.7691-5.6267-9.1288-8.7655zm-41.165 81.928c-0.06732-0.04167-0.13828-0.07428-0.20196-0.1105-0.18195-0.10145-0.46943-0.31521-0.46943-0.31521s-0.25505-0.18063-0.48138-0.42624c-1.0949-1.1881 1.1051-5.8513 2.3371-10.245 1.5596-5.5615 2.7059-8.9787 3.7228-14.838 1.3468-7.7598 2.8699-9.9469 4.166-16.011 1.0127-4.7377 2.0218-7.9912 2.9031-12.432 2.0287-8.5432 4.232-10.958 6.419-13.36 0.25473-0.2808 0.76419-0.79529 1.0462-1.0109v2.2e-5c0.47853-0.36776 0.98981-0.72466 1.5175-1.0507-0.67685 0.66669-0.84061 1.7555-0.43304 2.6323 0.04913 0.10688 0.10007 0.2192 0.15466 0.33877 0.0036 0.0091 0.0091 0.01812 0.01274 0.02536 1.7049 3.7337 5.3748 12.187 6.3155 26.618v0.0018c-0.03457 0.08243-0.73505 3.4453-1.9767 7.6017-1.2416 4.1564-2.8922 7.5197-4.5305 13.02-0.81912 2.7503-1.6706 6.4696-2.6487 11.233-0.9781 4.7632-2.2151 10.703-3.0384 11.992-0.21776 0.34104-0.98084 0.32357-0.98084 0.32357-5.0782-0.31522-11.612-2.6449-13.834-3.9872zm13.834 3.9872c-0.09643 0.50361-0.33661 0.77172-0.46579 1.0127-0.35844 0.66846-0.36754 1.0253-0.51856 1.2645-0.09097 0.14674-0.24017 0.26086-0.41303 0.26267-3.9119 0.06341-10.267-2.1123-12.46-3.326-0.06004-0.03261-0.4949-0.3134-0.54949-0.346-0.79512-0.44926-1.0113-0.71622-0.86033-1.2687 0.07642-0.27898 0.36542-0.49752 0.53464-1.2475 0.05458-0.23912 0.10114-0.3727 0.22744-0.76449 0.13282 0.10869 0.2893 0.21197 0.46943 0.31523 0.06368 0.03623 0.13464 0.07065 0.20196 0.1105 1.8523 1.134 7.853 3.4872 13.834 3.9872zm86.743-3.9673c0.0673-0.04167 0.13828-0.07428 0.20197-0.1105 0.18195-0.10145 0.46943-0.31521 0.46943-0.31521s0.25505-0.18063 0.48138-0.42624c1.0949-1.1881-1.1051-5.8513-2.3371-10.245-1.5596-5.5615-2.7059-8.9787-3.7228-14.838-1.3468-7.7598-2.8699-9.9469-4.166-16.011-1.0127-4.7377-2.0218-7.9912-2.9031-12.432-2.0287-8.5432-4.232-10.958-6.419-13.36-0.25473-0.2808-0.76419-0.79529-1.0462-1.0109v2.2e-5c-0.47853-0.36776-0.98981-0.72466-1.5175-1.0507 0.67686 0.66669 0.84061 1.7555 0.43304 2.6323-0.04913 0.10688-0.10007 0.2192-0.15466 0.33877-0.0036 0.0091-0.0091 0.01812-0.01274 0.02536-1.7049 3.7337-5.3748 12.187-6.3155 26.618v0.0018c0.03457 0.08243 0.73505 3.4453 1.9767 7.6017 1.2416 4.1564 2.8922 7.5197 4.5305 13.02 0.81912 2.7503 1.6706 6.4696 2.6487 11.233 0.97809 4.7632 2.2151 10.703 3.0384 11.992 0.21776 0.34104 0.98084 0.32357 0.98084 0.32357 5.0782-0.31522 11.612-2.6449 13.834-3.9872zm-13.834 3.9872c0.09643 0.50361 0.33661 0.77172 0.46579 1.0127 0.35844 0.66846 0.36754 1.0253 0.51856 1.2645 0.09097 0.14674 0.24017 0.26086 0.41303 0.26267 3.9119 0.06341 10.267-2.1123 12.46-3.326 0.06-0.03261 0.49491-0.3134 0.54949-0.346 0.79512-0.44926 1.0114-0.71622 0.86033-1.2687-0.0764-0.27898-0.36542-0.49752-0.53464-1.2475-0.0546-0.23912-0.10113-0.3727-0.22743-0.76449-0.13283 0.10869-0.2893 0.21197-0.46943 0.31523-0.0637 0.03623-0.13465 0.07065-0.20197 0.1105-1.8522 1.134-7.853 3.4872-13.834 3.9872zm-52.723-18.648c-0.77572 8.6033-4.7539 14.462-10.435 18.842-0.47468 0.67203-0.89901 1.072-0.74147 3.6993 0.21623-0.66099 0.78633-1.114 1.1811-1.3715 7.1171-4.6419 11.593-11.068 12.199-21.673-0.73167 0.155-1.472 0.3239-2.2036 0.50303zm32.557 0c0.77572 8.6033 4.7539 14.462 10.435 18.842 0.47468 0.67203 0.89901 1.072 0.74147 3.6993-0.21623-0.66099-0.78633-1.114-1.1811-1.3715-7.1171-4.6419-11.593-11.068-12.199-21.673 0.73167 0.155 1.472 0.3239 2.2036 0.50303zm-14.434 32.597c3.5917-0.16484 6.8741-0.38766 9.7507-0.55431 4.2067-0.24274 7.5473 0.54707 9.727 0.3007 0.48035-0.03261 0.98981-0.07426 1.4811-0.13586 0.49126-0.05797 0.96616-0.13405 1.381-0.22825 0.50036-0.11412 0.91157-0.25904 1.1609-0.43838 0 0 1.1483-0.68087 1.3882-3.319 0.41507-2.6083 0.6321-4.4069 0.71563-5.6809-0.21853-0.66138-0.78863-1.1144-1.1834-1.3719-7.1171-4.6421-11.593-11.068-12.19-21.672-4.6852-0.99253-9.3797-1.4903-14.075-1.4906-4.6952 3.32e-4 -9.3896 0.49805-14.075 1.4906-0.59713 10.604-5.0732 17.03-12.19 21.672-0.39482 0.25752-0.96492 0.71056-1.1834 1.3719 0.08354 1.274 0.30057 3.0726 0.71563 5.6809 0.23988 2.6381 1.3882 3.319 1.3882 3.319 0.24929 0.17934 0.6605 0.32426 1.1609 0.43838 0.41485 0.0942 0.88974 0.17028 1.381 0.22825 0.49126 0.0616 1.0007 0.10325 1.4811 0.13586 2.1798 0.24637 5.5204-0.54344 9.727-0.3007 2.8766 0.16665 6.159 0.38947 9.7507 0.55431 0.32387 0.0145 1.0808 0.0634 1.844 0.0652 0.76324-0.0018 1.5201-0.0507 1.844-0.0652zm3.7883-92.199 0.34173-1.3785c0.43348-0.15055 0.72721-0.4392 0.72721-0.77047 0-0.48752-0.63616-0.88273-1.4209-0.88273-0.78475-1e-6 -1.4209 0.39521-1.4209 0.88273 0 0.22905 0.14042 0.43772 0.37514 0.58526l-0.53926 2.1199c-1.2281 0.30179-2.4738 0.49499-3.6999 0.5233-1.2683-0.02924-2.5575-0.23493-3.8322-0.5428l-0.51436-2.1004c0.23472-0.14754 0.37514-0.35621 0.37514-0.58524 0-0.4875-0.63616-0.8827-1.4209-0.8827-0.78475 0-1.4209 0.3952-1.4209 0.8827 0 0.33126 0.29373 0.6199 0.72721 0.77044l0.3306 1.3572c-2.9617-0.9984-5.9389-2.4586-8.8215-3.771-1.1263 0.90645-3.7282 3.0949-9.6779 5.6981-0.97525 0.42754-3.1113 1.3062-5.0673 2.5272-0.67685 0.67573-0.84059 1.7754-0.43302 2.6631 0.04913 0.1087 0.10006 0.22281 0.15464 0.34237 0.0037 0.0091 0.0091 0.01818 0.01275 0.02538 1.7049 3.779 5.3748 12.333 6.3155 26.937v0.0036c-0.09721 3.1034-0.09949 4.1245-0.18865 5.9543-0.38085 4.317-0.22867 5.1954-0.34721 9.316-0.20459 5.3289 0.02862 6.0785-0.58154 11.626-0.4016 4.9159-0.55692 6.3812-1.0276 9.2277-0.68807 2.8535-1.0946 5.3684-1.2989 7.8967-0.47573 0.69618-0.90006 1.0962-0.73935 3.7229 0.0867 1.2735 0.30373 3.072 0.7183 5.6584 0.23888 2.6218 1.3954 3.3072 1.3954 3.3072 0.25745 0.18023 0.66502 0.32153 1.1563 0.43384h3e-6c0.41485 0.0942 0.88792 0.17028 1.3792 0.22825 0.49126 0.05979 0.9989 0.10326 1.4811 0.13587 2.1798 0.24637 5.5204-0.54346 9.727-0.30072 2.9567 0.17028 6.3428 0.40216 10.055 0.56701 0.23654 0.01087 0.90247 0.05434 1.5611 0.05254 0.75327-0.0018 1.5102-0.05073 1.8341-0.06522 3.5917-0.16485 6.8741-0.38767 9.7507-0.55433 4.2067-0.24274 7.5473 0.54709 9.727 0.30072 0.48035-0.03261 0.98981-0.07429 1.4811-0.13586 0.49126-0.05797 0.96616-0.13406 1.381-0.22826 0.50036-0.11412 0.91157-0.25905 1.1609-0.43839 0 0 1.1483-0.6809 1.3862-3.2986 0.41431-2.5952 0.63134-4.3938 0.71804-5.6674 0.16071-2.6268-0.26362-3.0268-0.73935-3.723-0.20616-2.5429-0.61219-5.0496-1.2977-7.8924-0.47073-2.8466-0.62605-4.312-1.0276-9.228-0.61016-5.5479-0.37695-6.2975-0.58154-11.627-0.11855-4.1208 0.03364-4.9992-0.34721-9.3163-0.08916-1.8298-0.09144-2.851-0.18865-5.9545v-0.0018c0.94068-14.603 4.6088-23.159 6.3155-26.937 0.0018-0.0091 0.0073-0.01628 0.01274-0.02538 0.05459-0.12138 0.10553-0.23368 0.15466-0.34237 0.40939-0.88768 0.24745-1.9891-1.0717-2.9373-1.3192-0.94821-3.4553-1.8268-4.4305-2.2543-5.9498-2.6032-8.5516-4.7915-9.6779-5.697-2.9202 1.3298-5.9375 2.8109-8.9401 3.7926zm19.715 91.109c-0.24929 0.17934-0.6605 0.32427-1.1609 0.43839l6e-6 1e-6c-0.41485 0.0942-0.88974 0.17028-1.381 0.22826-0.49126 0.06159-1.0007 0.10326-1.4811 0.13586-2.1798 0.24637-5.5204-0.54346-9.727-0.30072-2.8766 0.16666-6.159 0.38948-9.7507 0.55433-0.32387 0.01449-1.0808 0.0634-1.8341 0.06522-0.65866 0.0018-1.3246-0.04167-1.5611-0.05254-3.7118-0.16485-7.0979-0.39673-10.055-0.56701-4.2067-0.24275-7.5473 0.54709-9.727 0.30072-0.48215-0.03261-0.98979-0.07608-1.4811-0.13586-0.49126-0.05797-0.96434-0.13406-1.3792-0.22826-0.49126-0.11232-0.89883-0.25362-1.1481-0.42934-0.1219 0.77172 0.02455 3.4021-0.22653 4.1394-0.08006 0.23368-0.32205 0.70649 0.06368 1.1249 0.21652 0.23368 0.68959 0.41302 1.29 0.55069 0.82787 0.19021 1.8959 0.29891 2.8603 0.36411 2.1798 0.24818 5.5204-0.54344 9.727-0.3007 3.3624 0.19383 7.278 0.46736 11.597 0.6322h0.03275c4.3195-0.16484 8.2351-0.43837 11.597-0.6322 4.2067-0.24274 7.5473 0.54888 9.727 0.3007 0.96434-0.0634 2.0324-0.1739 2.8603-0.36411 0.60044-0.13767 1.0735-0.31701 1.29-0.55069 0.38573-0.41844 0.14374-0.88943 0.06368-1.1249-0.25109-0.73729-0.07732-3.3786-0.19742-4.1485z" fill="none" stroke="#000" stroke-width=".1815"/>
			</g>
			<g id="imagen">
				<path id="espacio imagen" d="m57.136 22.509 0.21863 56.762-32.36-0.24838-0.21863-56.534z" color="#000000" fill="none" mask="url(#mask-powermask-path-effect4288)" stroke-width="1.1908" style="-inkscape-stroke:none"/>
			</g>
			<g id="texto" transform="translate(4.5117,4.1555)" font-family="'Century Schoolbook'" font-weight="bold" stroke-width=".1815" text-anchor="middle">
				<text id="text1154" x="36.616711" y="40.438358" fill="#000000" font-size="7.7611px" stroke="#000000" text-align="center" style="font-variant-caps:normal;font-variant-east-asian:normal;font-variant-ligatures:normal;font-variant-numeric:normal" xml:space="preserve"><tspan id="tspan1150" x="36.616711" y="40.438358">SUPER</tspan><tspan id="tspan1152" x="36.616711" y="50.139744">EQUIPO</tspan></text>
				<text id="text1158" transform="translate(-4.5057,-14.857)" x="40.598637" y="42.656906" fill="#00ffff" font-size="22.578px" stroke="#050505" stroke-width=".52917" text-align="center" style="font-variant-caps:normal;font-variant-east-asian:normal;font-variant-ligatures:normal;font-variant-numeric:normal" xml:space="preserve"><tspan id="tspan1156" x="40.598637" y="42.656906" fill="#00ffff" font-family="'Century Schoolbook'" font-size="22.578px" font-weight="bold" stroke="#050505" stroke-width=".52917" style="font-variant-caps:normal;font-variant-east-asian:normal;font-variant-ligatures:normal;font-variant-numeric:normal">10</tspan></text>
			</g>
			<g id="extra"><!-- opacity="0" display="none" -->
				<g id="color extra" class="colors" transform="matrix(.18195 0 0 .18116 1.2131 -1.828)" display="inline">
					<path id="cordones" class="cordones" transform="matrix(5.496,0,0,5.52,-71.768,-6.2119)" d="m62.147 54.813c0.14971 0.02904 0.29875 0.04044 0.44698 0.03092 0.16355-0.02602 0.3039-0.07392 0.42846-0.13671l0.34397 3.147c-0.02399 0.12893 0.09858 0.30192-0.39166 0.3376-0.49435 0.0665-0.41341-0.11681-0.46974-0.24029zm-0.54227-1.0368c-2.6133-23.679-10.294-26.082-4.2873-48.602 0.31725-0.59702 1.4577-0.62043 1.7791 0-6.0063 22.521 1.674 24.924 4.2873 48.602 0.047 0.58513-0.07721 0.94117-0.78985 1.0677-0.77605 0.02655-0.88492-0.21768-0.98925-1.0677zm-18.015 1.0368c-0.14971 0.02904-0.29875 0.04044-0.44698 0.03092-0.16355-0.02602-0.3039-0.07392-0.42846-0.13671l-0.34397 3.147c0.02399 0.12893-0.09858 0.30192 0.39166 0.3376 0.49435 0.0665 0.41341-0.11681 0.46974-0.24029zm0.54227-1.0368c2.6133-23.679 10.294-26.082 4.2873-48.602-0.31725-0.59702-1.4577-0.62043-1.7791 1e-7 6.0063 22.521-1.674 24.924-4.2873 48.602-0.047 0.58513 0.07721 0.94117 0.78985 1.0677 0.77605 0.02655 0.88492-0.21768 0.98925-1.0677z" display="inline" fill="#f0f"/>
					<path id="anillos" class="anillos" transform="matrix(5.496,0,0,5.52,-71.768,-6.2119)" d="m48.419 5.1738 0.15622 0.58528c0.23472-0.14755 0.37514-0.35623 0.37514-0.58528 0-0.48753-0.63616-0.88276-1.4209-0.88276-0.78475 0-1.4209 0.39522-1.4209 0.88276 0 0.33128 0.29373 0.61994 0.72721 0.77049l-0.19585-0.77049c0.32137-0.62039 1.4618-0.59698 1.7791 0zm8.8981-1.8e-6 -0.15622 0.5853c-0.23472-0.14756-0.37514-0.35624-0.37514-0.5853 0-0.48755 0.63616-0.88278 1.4209-0.88278 0.78475 2e-7 1.4209 0.39524 1.4209 0.88278 0 0.33129-0.29373 0.61996-0.72721 0.77052l0.19585-0.77052c-0.32137-0.62041-1.4618-0.597-1.7791 0z" display="inline" fill="#0ff"/>
				</g>
				<g id="sombra extra" transform="matrix(.18195 0 0 .18116 1.2131 -1.828)" display="inline">
					<path id="sombra cordones" transform="matrix(5.496,0,0,5.52,-71.768,-6.2119)" d="m62.147 54.813c0.14971 0.02904 0.29875 0.04044 0.44698 0.03092 0.16355-0.02602 0.3039-0.07392 0.42846-0.13671l0.34397 3.147c-0.02399 0.12893 0.09858 0.30192-0.39166 0.3376-0.49435 0.0665-0.41341-0.11681-0.46974-0.24029zm-0.54227-1.0368c-2.6133-23.679-10.294-26.082-4.2873-48.602 0.31725-0.59702 1.4577-0.62043 1.7791 0-6.0063 22.521 1.674 24.924 4.2873 48.602 0.047 0.58513-0.07721 0.94117-0.78985 1.0677-0.77605 0.02655-0.88492-0.21768-0.98925-1.0677zm-18.015 1.0368c-0.14971 0.02904-0.29875 0.04044-0.44698 0.03092-0.16355-0.02602-0.3039-0.07392-0.42846-0.13671l-0.34397 3.147c0.02399 0.12893-0.09858 0.30192 0.39166 0.3376 0.49435 0.0665 0.41341-0.11681 0.46974-0.24029zm0.54227-1.0368c2.6133-23.679 10.294-26.082 4.2873-48.602-0.31725-0.59702-1.4577-0.62043-1.7791 1e-7 6.0063 22.521-1.674 24.924-4.2873 48.602-0.047 0.58513 0.07721 0.94117 0.78985 1.0677 0.77605 0.02655 0.88492-0.21768 0.98925-1.0677z" display="inline" fill-opacity=".048872"/>
				</g>
				<g id="contorno extra" transform="matrix(.18195 0 0 .18116 1.2131 -1.828)" display="inline">
					<path id="contorno cordones" transform="matrix(5.496,0,0,5.52,-71.768,-6.2119)" d="m57.317 5.1738-0.15622 0.5853c-0.23472-0.14756-0.37514-0.35624-0.37514-0.5853 0-0.48755 0.63616-0.88278 1.4209-0.88278 0.78475 2e-7 1.4209 0.39524 1.4209 0.88278 0 0.33129-0.29373 0.61996-0.72721 0.77052l0.19585-0.77052c-0.32137-0.62041-1.4618-0.597-1.7791 0zm-8.8981 1.8e-6 0.15622 0.58528c0.23472-0.14755 0.37514-0.35623 0.37514-0.58528 0-0.48753-0.63616-0.88276-1.4209-0.88276-0.78475 0-1.4209 0.39522-1.4209 0.88276 0 0.33128 0.29373 0.61994 0.72721 0.77049l-0.19585-0.77049c0.32137-0.62039 1.4618-0.59698 1.7791 0zm13.185 48.602c-2.6133-23.679-10.294-26.082-4.2873-48.602 0.31725-0.59702 1.4577-0.62043 1.7791 0-6.0063 22.521 1.674 24.924 4.2873 48.602 0.047 0.58513-0.07721 0.94117-0.78985 1.0677-0.77605 0.02655-0.88492-0.21768-0.98925-1.0677zm-17.473 1e-6c2.6133-23.679 10.294-26.082 4.2873-48.602-0.31725-0.59702-1.4577-0.62043-1.7791 1e-7 6.0063 22.521-1.674 24.924-4.2873 48.602-0.047 0.58513 0.07721 0.94117 0.78985 1.0677 0.77605 0.02655 0.88492-0.21768 0.98925-1.0677zm18.015 1.0368c0.14971 0.02904 0.29875 0.04044 0.44698 0.03092 0.16355-0.02602 0.3039-0.07392 0.42846-0.13671l0.34397 3.147c-0.02399 0.12893 0.09858 0.30192-0.39166 0.3376-0.49435 0.0665-0.41341-0.11681-0.46974-0.24029zm-18.557 1e-6c-0.14971 0.02904-0.29875 0.04044-0.44698 0.03092-0.16355-0.02602-0.3039-0.07392-0.42846-0.13671l-0.34397 3.147c0.02399 0.12893-0.09858 0.30192 0.39166 0.3376 0.49435 0.0665 0.41341-0.11681 0.46974-0.24029z" display="inline" fill="none" stroke="#000" stroke-width=".1815"/>
				</g>
				<g id="detalles extra" transform="matrix(.18195 0 0 .18116 1.2131 -1.828)" display="inline" fill="none">
					<path id="trazo cordones" d="m251.05 20.463-7.799 1.8842 9.4934 1.076-10.352 2.1547 9.5602 1.0224-10.273 1.8052 9.3985 1.5084-10.271 1.9881 9.4038 1.5342-10.333 2.3195 9.6288 0.63146-10.362 2.5128 9.3193 2.021-10.324 2.4666 9.5784 0.91916-10.4 2.9331 9.506 1.3171-10.266 2.4256 9.5762 1.0265-10.404 3.2869 9.574 1.1085-10.353 3.2419 9.4493 1.9389-10.205 2.6314 9.574 1.3094-10.31 3.6058 9.5354 1.7544-10.165 2.9793 9.5188 2.1521-10.055 2.4797 9.6665 1.0623-10.187 4.3361 9.7375 0.47901-10.128 4.7605 9.7189 0.96236-9.9835 4.0872 9.7424 0.90892-9.8729 3.188 9.7477 1.6285-9.8009 3.1366 9.7791 0.65076-9.7197 4.2541 9.8405 2.1282-9.5665 4.5794 9.8163 0.64628-9.4466 4.5694 9.7898 0.14006-9.3051 4.8707 9.8024 0.22252-9.1915 4.7947 9.7713-0.0497-8.9882 5.3825 9.7553-0.1421-8.7788 5.8127 9.6946-0.45372-8.6368 5.8556 9.4686-1.5193-8.5492 5.8045 9.538-1.0891-8.2597 6.6184 9.4978-1.1776-7.8964 7.6298 9.5567-0.86763-8.0992 6.4428 9.4568-1.2104-7.7105 7.6643 9.2723-1.8505-7.3493 8.8103 9.3249-1.6323-7.7117 7.4394 9.5526-0.81212-7.5034 8.2471 9.2523-1.9191-7.7779 7.3661 9.3089-1.745-8.0101 6.6471 9.738-0.15241-8.1987 6.1289 9.6848-0.36764-8.3416 5.7671 10.136 1.4748-8.4851 5.456 9.9034 0.5415-8.3598 6.2964 9.952 0.79646-8.4469 6.2839 9.8798 0.4959-8.5517 6.1648 10.005 1.1815-8.6295 6.2167 9.9765 1.1168-8.6753 6.4632 9.8393 0.37362-8.7879 6.262 9.9569 1.1826-9.0698 4.8523 10.071 2.0988-9.2016 4.2937 10.031 1.9598-9.1837 4.8234 9.964 1.578-9.3036 4.1886 9.8179 1.5132-7.9722 3.7204m-82.112-275.4 7.799 1.8842-9.4934 1.076 10.352 2.1547-9.5602 1.0224 10.273 1.8052-9.3985 1.5084 10.271 1.9881-9.4038 1.5342 10.333 2.3195-9.6288 0.63146 10.362 2.5128-9.3193 2.021 10.324 2.4666-9.5784 0.91916 10.4 2.9331-9.506 1.3171 10.266 2.4256-9.5762 1.0265 10.404 3.2869-9.574 1.1085 10.353 3.2419-9.4493 1.9389 10.205 2.6314-9.574 1.3094 10.31 3.6058-9.5354 1.7544 10.165 2.9793-9.5188 2.1521 10.055 2.4797-9.6665 1.0623 10.187 4.3361-9.7375 0.47901 10.128 4.7605-9.7189 0.96236 9.9835 4.0872-9.7424 0.90892 9.8729 3.188-9.7477 1.6285 9.8009 3.1366-9.7791 0.65076 9.7197 4.2541-9.8405 2.1282 9.5665 4.5794-9.8163 0.64628 9.4466 4.5694-9.7898 0.14006 9.3051 4.8707-9.8024 0.22252 9.1915 4.7947-9.7713-0.0497 8.9882 5.3825-9.7553-0.1421 8.7788 5.8127-9.6946-0.45372 8.6368 5.8556-9.4686-1.5193 8.5492 5.8045-9.538-1.0891 8.2597 6.6184-9.4978-1.1776 7.8964 7.6298-9.5567-0.86763 8.0992 6.4428-9.4568-1.2104 7.7105 7.6643-9.2723-1.8505 7.3493 8.8103-9.3249-1.6323 7.7117 7.4394-9.5526-0.81212 7.5034 8.2471-9.2523-1.9191 7.7779 7.3661-9.3089-1.745 8.0101 6.6471-9.738-0.15241 8.1987 6.1289-9.6848-0.36764 8.3416 5.7671-10.136 1.4748 8.4851 5.456-9.9034 0.5415 8.3598 6.2964-9.952 0.79646 8.4469 6.2839-9.8798 0.4959 8.5517 6.1648-10.005 1.1815 8.6295 6.2167-9.9765 1.1168 8.6753 6.4632-9.8393 0.37362 8.7879 6.262-9.9569 1.1826 9.0698 4.8523-10.071 2.0988 9.2016 4.2937-10.031 1.9598 9.1837 4.8234-9.964 1.578 9.3036 4.1886-9.8179 1.5132 7.9722 3.7204" display="inline" fill="none" stroke="#000" stroke-opacity=".49624" stroke-width=".4372"/>
				</g>
			</g>
			<g id="alterno">
				<g id="color alterno" class="colors" transform="matrix(.18195 0 0 .18116 1.2131 -1.828)">
					<path id="cordones alterno" class="cordones" d="m243.24 22.345c1.7436-3.2956 8.0115-3.4248 9.7779 0-3.3087 12.46-5.8615 23.804-7.7626 34.263-0.57339 4.6921-1.1717 6.0403-5.4369 5.8937-3.9167-0.69845-4.5993-2.6638-4.3418-5.8901 1.9004-10.457 4.4538-21.804 7.7634-34.267zm-0.96493 39.986c-0.82281 0.1603-1.6419 0.22323-2.4566 0.17068-0.89888-0.14363-1.6702-0.40804-2.3548-0.75464l-1.8905 17.371c0.13185 0.71169-0.5418 1.6666 2.1526 1.8635 2.717 0.36708 2.2721-0.64478 2.5817-1.3264zm-47.932-39.986c-1.7436-3.2956-8.0115-3.4248-9.7779 0 3.3087 12.46 5.8615 23.804 7.7626 34.263 0.57339 4.6921 1.1717 6.0403 5.4369 5.8937 3.9167-0.69845 4.5993-2.6638 4.3418-5.8901-1.9004-10.457-4.4538-21.804-7.7634-34.267zm0.96493 39.986c0.82281 0.1603 1.6419 0.22323 2.4566 0.17068 0.89888-0.14363 1.6702-0.40804 2.3548-0.75464l1.8905 17.371c-0.13185 0.71169 0.5418 1.6666-2.1526 1.8635-2.717 0.36708-2.2721-0.64479-2.5817-1.3264z" fill="#f0f"/>
					<path id="anillos alterno" class="anillos" transform="matrix(5.496,0,0,5.52,-71.768,-6.2119)" d="m48.419 5.1738 0.15622 0.58528c0.23472-0.14755 0.37514-0.35623 0.37514-0.58528 0-0.48753-0.63616-0.88276-1.4209-0.88276-0.78475 0-1.4209 0.39522-1.4209 0.88276 0 0.33128 0.29373 0.61994 0.72721 0.77049l-0.19585-0.77049c0.32137-0.62039 1.4618-0.59698 1.7791 0zm8.8981-1.8e-6 -0.15622 0.5853c-0.23472-0.14756-0.37514-0.35624-0.37514-0.5853 0-0.48755 0.63616-0.88278 1.4209-0.88278 0.78475 2e-7 1.4209 0.39524 1.4209 0.88278 0 0.33129-0.29373 0.61996-0.72721 0.77052l0.19585-0.77052c-0.32137-0.62041-1.4618-0.597-1.7791 0z" fill="#0ff"/>
				</g>
				<g id="sombra alterno" transform="matrix(.18195 0 0 .18116 1.2131 -1.828)">
					<path id="sombra cordones alterno" d="m243.24 22.345c1.7436-3.2956 8.0115-3.4248 9.7779 0-3.3087 12.46-5.8615 23.804-7.7626 34.263-0.57339 4.6921-1.1717 6.0403-5.4369 5.8937-3.9167-0.69845-4.5993-2.6638-4.3418-5.8901 1.9004-10.457 4.4538-21.804 7.7634-34.267zm-0.96493 39.986c-0.82281 0.1603-1.6419 0.22323-2.4566 0.17068-0.89888-0.14363-1.6702-0.40804-2.3548-0.75464l-1.8905 17.371c0.13185 0.71169-0.5418 1.6666 2.1526 1.8635 2.717 0.36708 2.2721-0.64478 2.5817-1.3264zm-47.932-39.986c-1.7436-3.2956-8.0115-3.4248-9.7779 0 3.3087 12.46 5.8615 23.804 7.7626 34.263 0.57339 4.6921 1.1717 6.0403 5.4369 5.8937 3.9167-0.69845 4.5993-2.6638 4.3418-5.8901-1.9004-10.457-4.4538-21.804-7.7634-34.267zm0.96493 39.986c0.82281 0.1603 1.6419 0.22323 2.4566 0.17068 0.89888-0.14363 1.6702-0.40804 2.3548-0.75464l1.8905 17.371c-0.13185 0.71169 0.5418 1.6666-2.1526 1.8635-2.717 0.36708-2.2721-0.64479-2.5817-1.3264z" fill-opacity=".054054"/>
				</g>
				<g id="contorno alterno" transform="matrix(.18195 0 0 .18116 1.2131 -1.828)" fill="none" stroke="#000" stroke-width=".1815">
					<path id="contorno cordones alterno" d="m243.25 22.348-0.85859 3.2307c-1.29-0.81448-2.0618-1.9664-2.0618-3.2307 0-2.6912 3.4963-4.8728 7.8093-4.8728s7.8093 2.1816 7.8093 4.8728c0 1.8287-1.6143 3.4221-3.9967 4.2531l1.0764-4.2531c-1.7662-3.4246-8.034-3.2953-9.7779 0zm-3e-3 -0.0028c1.7436-3.2956 8.0115-3.4248 9.7779 0-3.3087 12.46-5.8615 23.804-7.7626 34.263-0.57339 4.6921-1.1717 6.0403-5.4369 5.8937-3.9167-0.69845-4.5993-2.6638-4.3418-5.8901 1.9004-10.457 4.4538-21.804 7.7634-34.267zm-0.96493 39.986c-0.82281 0.1603-1.6419 0.22323-2.4566 0.17068-0.89888-0.14363-1.6702-0.40804-2.3548-0.75464l-1.8905 17.371c0.13185 0.71169-0.5418 1.6666 2.1526 1.8635 2.717 0.36708 2.2721-0.64478 2.5817-1.3264zm-47.935-39.984 0.85859 3.2307c1.29-0.81448 2.0618-1.9664 2.0618-3.2307 0-2.6912-3.4963-4.8728-7.8093-4.8728s-7.8093 2.1816-7.8093 4.8728c0 1.8287 1.6143 3.4221 3.9967 4.2531l-1.0764-4.2531c1.7662-3.4246 8.034-3.2953 9.7779 0zm3e-3 -0.0028c-1.7436-3.2956-8.0115-3.4248-9.7779 1e-6 3.3087 12.46 5.8615 23.804 7.7626 34.263 0.57339 4.6921 1.1717 6.0403 5.4369 5.8937 3.9167-0.69845 4.5993-2.6638 4.3418-5.8901-1.9004-10.457-4.4538-21.804-7.7634-34.267zm0.96493 39.986c0.82281 0.1603 1.6419 0.22323 2.4566 0.17068 0.89888-0.14363 1.6702-0.40804 2.3548-0.75464l1.8905 17.371c-0.13185 0.71169 0.5418 1.6666-2.1526 1.8635-2.717 0.36708-2.2721-0.64478-2.5817-1.3264z" stroke-width=".9997"/>
				</g>
				<g id="detalles alterno" transform="matrix(.18195 0 0 .18116 1.2131 -1.828)" fill="none">
					<path id="trazo cordones alterno" d="m251.05 20.463-7.799 1.8842 9.4934 1.076-10.352 2.1547 9.5602 1.0224-10.273 1.8052 9.3985 1.5084-10.271 1.9881 9.4038 1.5342-10.333 2.3195 9.6288 0.63146-10.362 2.5128 9.3193 2.021-10.324 2.4666 9.5784 0.91916-10.4 2.9331 9.506 1.3171-10.266 2.4256 9.5762 1.0265-10.404 3.2869 9.574 1.1085-9.6018 3.2896 8.4802 1.3133m-57.634-40.542 7.799 1.8842-9.4934 1.076 10.352 2.1547-9.5602 1.0224 10.273 1.8052-9.3985 1.5084 10.271 1.9881-9.4038 1.5342 10.333 2.3195-9.6288 0.63146 10.362 2.5128-9.3193 2.021 10.324 2.4666-9.5784 0.91916 10.4 2.9331-9.506 1.3171 10.266 2.4256-9.5762 1.0265 10.404 3.2869-9.574 1.1085 9.6512 3.0955-8.6013 1.3992" fill="none" stroke="#000" stroke-opacity=".49624" stroke-width=".4372"/>
				</g>
			</g>
		</g>
	</g>
</svg>
