<svg id="buzo" class="classClothes" width="400" height="400" version="1.1" viewBox="0 0 105.83 105.83" xmlns="http://www.w3.org/2000/svg" xmlns:xlink="http://www.w3.org/1999/xlink">
	<defs id="defs1131">
		<linearGradient id="linearGradient1713">
			<stop id="stop1709" stop-opacity=".2" offset="0"/>
			<stop id="stop1711" stop-opacity=".7" offset="1"/>
		</linearGradient>
		<radialGradient id="radialGradient21406" cx="219.56" cy="-1.7173" r="80.455" gradientTransform="matrix(-1.193 -.0083864 .0033676 -.48324 481.5 20.571)" gradientUnits="userSpaceOnUse">
			<stop id="stop1122" stop-opacity=".7" offset="0"/>
			<stop id="stop1124" stop-opacity="0" offset=".83626"/>
		</radialGradient>
		<mask id="mask-powermask-path-effect4288" maskUnits="userSpaceOnUse">
			<path id="mask-powermask-path-effect4288_box" d="m23.776 21.489h34.579v58.782h-34.579z" fill="#fff"/>
			<path id="path1128" d="m52.393 46.857q0-0.33864-0.18806-0.53873-0.18805-0.2001-0.44744-0.2001-0.23344 0-0.35017 0.15392-0.01297 0.0154-0.49283 0.36942t-1.3942 0.76962q-0.91433 0.4156-2.2437 0.75423t-3.0413 0.33863q-1.2191 0-2.516-0.18471t-2.6717-0.56952q-1.3747-0.4002-2.529-0.86967t-2.101-1.0544q-0.11672-0.07696-0.29829-0.07696-0.25938 0-0.44095 0.2078t-0.18157 0.54643q0 0.46177 0.36314 0.67726 2.7235 1.6162 6.2901 2.355v1.7393q0.19454 2.4936 1.1802 4.0328 0.95972 1.5085 2.4771 1.5085 0.58362 0 1.0829-0.26937 0.49931-0.26937 0.88839-0.78501t0.64846-1.2468q0.25939-0.73114 0.37611-1.6547v-3.0785q0.93378-0.10775 1.8222-0.4079 0.88839-0.30015 1.6082-0.65418 0.71979-0.35402 1.2256-0.69266 0.5058-0.33863 0.68737-0.53873 0.24641-0.2155 0.24641-0.63109zm-17.223-5.3412q0 0.38481 0.10375 0.73884t0.29829 0.62339q0.19454 0.26937 0.47337 0.43099 0.27884 0.16162 0.62901 0.16162 0.83003 0 1.4785-0.83119 0.63549-0.8004 0.63549-1.8933 0-0.38481-0.10375-0.73883t-0.29829-0.63109q-0.19454-0.27706-0.47338-0.43868t-0.629-0.16162q-0.83003 0-1.4785 0.8158-0.63549 0.8158-0.63549 1.924zm10.609 1.57q0 0.24628 0.07782 0.34633t0.26587 0.12314q0.18805 0.0231 0.49931 0.0231t0.76518 0.03849 1.0635 0.15392q0.60955 0.11544 1.4136 0.37712l0.11672 0.0154q0.14266 0 0.26587-0.14623t0.12321-0.36172-0.14266-0.34633q-0.14266-0.13083-0.47986-0.22319-0.3372-0.09235-0.86894-0.18471-0.53174-0.09235-1.3099-0.21549 0.51877-0.30785 1.1218-0.608 0.60307-0.30015 1.2904-0.608 0.28532-0.09235 0.28532-0.46177 0-0.2155-0.12321-0.35403t-0.27884-0.13853q-0.20751 0-1.5693 0.69266-0.68737 0.35402-1.2645 0.71575-0.57713 0.36172-1.057 0.76193-0.19454 0.13853-0.19454 0.4002zm9.9344 5.7568q0 0.49256-0.02593 1.0159t-0.06485 1.0467q-0.46689 0.66187-1.6341 1.1698-0.58362 0.26167-1.3164 0.49256t-1.6276 0.44638q-0.88191 0.2001-1.7638 0.33863-0.88191 0.13853-1.7768 0.2155-0.83003 4.1713-3.6962 4.1713-3.0218 0-4.0853-3.9097-2.6587-0.12314-4.7597-0.36942t-3.4368-0.6157q-1.3229-0.36942-2.2437-0.78501-0.46689-0.2155-0.843-0.4156t-0.68737-0.38481q-0.57064-0.35402-1.3099-1.1544-0.03891-0.15392-0.06485-0.50025t-0.02594-0.90046q0-0.92354 0.11024-1.7778 0.11024-0.85428 0.32423-1.6855t0.53174-1.6624q0.31774-0.83119 0.73276-1.7086 0.42798-0.89276 0.99214-1.7393 0.56416-0.84658 1.245-1.6085t1.459-1.4161 1.6082-1.1621l-1.7508-6.08-0.05187-0.4156q0-0.49256 0.27884-0.87737t0.74573-0.38481q0.3372 0 0.62901 0.23089t0.39556 0.63109l1.673 5.8953q2.3734-1.0775 5.3563-1.0775 1.1543 0 2.2048 0.12314t2.0232 0.35403q1.9194 0.47716 4.1112 1.7547l1.5693-5.4335q0.10375-0.38481 0.3761-0.6157t0.60955-0.23089q0.23345 0 0.42799 0.10775t0.33071 0.28476q0.13618 0.17701 0.21399 0.4002 0.07782 0.22319 0.07782 0.46947l-0.05187 0.4002-1.7249 6.003q1.284 1.1544 2.2113 2.4012t1.5304 2.6398q0.60307 1.393 0.88839 2.9553t0.28532 3.3632z" fill="currentColor" stroke-width=".014129"/>
		</mask>
		<radialGradient id="radialGradient1715" cx="82.985" cy="48.582" r="14.244" gradientTransform="matrix(1.4164 -.19129 .80505 5.9611 -73.102 -226.07)" gradientUnits="userSpaceOnUse" xlink:href="#linearGradient1713"/>
		<radialGradient id="radialGradient1715-6" cx="82.985" cy="48.582" r="14.244" gradientTransform="matrix(-1.4164 -.19129 -.80505 5.9611 153.85 -228.12)" gradientUnits="userSpaceOnUse" xlink:href="#linearGradient1713"/>
		<radialGradient id="radialGradient3445" cx="219.08" cy="291.03" r="164.76" gradientTransform="matrix(1.765 .0034482 -.0062428 3.2232 -165.77 -647.79)" gradientUnits="userSpaceOnUse">
			<stop id="stop3441" stop-opacity=".2" offset="0"/>
			<stop id="stop3439" stop-opacity=".7" offset="1"/>
		</radialGradient>
	</defs>
	<g id="corte 1" class="cutClothes" transform="translate(13.237 1.309)">
		<g id="dorsal" class="viewClothes" transform="translate(-1.3872,2.0367)">
			<g id="color" class="colors">
				<path id="torso" class="torso" transform="matrix(.18195 0 0 .18116 1.2131 -1.828)" d="m85.76 42.56c-5.36 2.36-17.1 7.21-27.85 13.95-3.72 3.73-4.6199 9.8-2.3799 14.7 0.27002 0.6 0.5499 1.2299 0.8499 1.8899 0.01978 0.05023 0.05001 0.10008 0.07007 0.1401 9.37 20.86 29.54 68.08 34.71 148.69v0.02c-0.53427 17.131-0.5468 22.767-1.0368 32.868-2.0932 23.83-1.2568 28.678-1.9083 51.424-1.1244 29.416 0.1573 33.553-3.1962 64.176-2.2072 27.136-3.0608 35.224-5.648 50.937-8.1561 33.972-9.1137 59.249-7.2532 95.326 1.3114 14.521 7.6675 18.304 7.6675 18.304 1.415 0.99485 3.655 1.7748 6.355 2.3948h1.6e-5c2.28 0.51998 4.88 0.93997 7.58 1.26 2.7 0.33004 5.49 0.56997 8.1399 0.74998 11.98 1.36 30.34-2.9999 53.46-1.66 16.25 0.93997 34.86 2.2199 55.26 3.1299 1.3 0.06 4.96 0.29996 8.58 0.29002 4.14-0.01 8.3-0.28003 10.08-0.36001 19.74-0.90998 37.78-2.1399 53.59-3.0599 23.12-1.34 41.48 3.0199 53.46 1.66 2.64-0.18001 5.44-0.41003 8.14-0.74998 2.7-0.31999 5.31-0.73997 7.59-1.26 2.75-0.62996 5.01-1.43 6.3801-2.4199 0 0 6.3111-3.7585 7.6225-18.28 1.8605-36.078 0.90294-61.356-7.2532-95.329-2.5871-15.713-3.4408-23.802-5.648-50.939-3.3534-30.624-2.0717-34.762-3.1962-64.179-0.65153-22.747 0.18489-27.596-1.9083-51.426-0.49002-10.101-0.50255-15.737-1.0368-32.869v-0.01c5.17-80.61 25.33-127.84 34.71-148.69 0.01-0.05023 0.0401-0.09009 0.07-0.1401 0.30003-0.67 0.58-1.2899 0.85-1.8899 2.25-4.9 1.36-10.98-2.36-14.7h-1.6e-4c-10.74-6.7399-22.48-11.58-27.85-13.95-32.7-14.37-47-26.45-53.193-31.445 0 0-16.424 9.9638-24.608 13.484-12.178 5.1233-30.05 9.7194-54.992 9.7347l-1.0724-0.0047c-24.93-0.02-42.802-4.6163-54.98-9.7397-8.1839-3.5205-24.605-13.48-24.605-13.48-6.19 5-20.49 17.08-53.19 31.45zm272.64 492.4c-1.3701 0.98997-3.6301 1.7899-6.3801 2.4199h3e-5c-2.28 0.51999-4.89 0.93998-7.59 1.26-2.7 0.33997-5.5 0.56998-8.14 0.74997-11.98 1.36-30.34-2.9999-53.46-1.66-15.81 0.91998-33.85 2.1499-53.59 3.0599-1.78 0.08-5.94 0.34996-10.08 0.36001-3.62 0.01-7.28-0.23002-8.58-0.29002-20.4-0.90997-39.01-2.1899-55.26-3.1299-23.12-1.34-41.48 3.0199-53.46 1.66-2.6499-0.18001-5.4399-0.41996-8.1399-0.74998-2.7-0.31999-5.3-0.73998-7.58-1.26-2.7-0.61998-4.94-1.4-6.3099-2.3699-0.66995 4.2599 0.13493 18.78-1.245 22.85-0.44001 1.2899-1.77 3.8998 0.34999 6.2096 1.19 1.2899 3.79 2.2799 7.09 3.0398 4.55 1.05 10.42 1.65 15.72 2.0099 11.98 1.37 30.34-2.9998 53.46-1.6599 18.48 1.0699 40 2.5798 63.74 3.4897h0.18c23.74-0.90991 45.26-2.4198 63.74-3.4897 23.12-1.3399 41.48 3.0298 53.46 1.6599 5.3-0.34997 11.17-0.95993 15.72-2.0099 3.3-0.75994 5.9-1.7499 7.09-3.0398 2.12-2.3098 0.79-4.9096 0.34998-6.2096-1.38-4.0698-0.42495-18.65-1.085-22.9z" fill="#0f0"/>
				<path id="mangas" class="mangas" transform="translate(1.3872 -2.0367)" d="m-10.609 80.256c-0.06732-0.04167-0.13828-0.07428-0.20196-0.1105-0.18195-0.10145-0.46943-0.31521-0.46943-0.31521s-0.25505-0.18063-0.48138-0.42624c-1.0949-1.1881 1.1051-5.8513 2.3371-10.245 1.5596-5.5615 2.7059-8.9787 3.7228-14.838 1.3468-7.7598 2.8699-9.9469 4.166-16.011 1.0127-4.7377 2.0218-7.9912 2.9031-12.432 2.0287-8.5432 4.232-10.958 6.419-13.36 0.25473-0.2808 0.76419-0.79529 1.0462-1.0109v2.2e-5c0.47853-0.36776 0.98981-0.72466 1.5175-1.0507-0.67685 0.66669-0.84061 1.7555-0.43304 2.6323 0.04913 0.10688 0.10007 0.2192 0.15466 0.33877 0.0036 0.0091 0.0091 0.01812 0.01274 0.02536 1.7049 3.7337 5.3748 12.187 6.3155 26.618v0.001812c-0.03457 0.08243-0.73505 3.4453-1.9767 7.6017-1.2416 4.1564-2.8922 7.5197-4.5305 13.02-0.81912 2.7503-1.6706 6.4696-2.6487 11.233-0.97809 4.7632-2.2151 10.703-3.0384 11.992-0.21776 0.34104-0.98084 0.32357-0.98084 0.32357-5.0782-0.31522-11.612-2.6449-13.834-3.9872zm13.834 3.9872c-0.09643 0.50361-0.33661 0.77172-0.46579 1.0127-0.35844 0.66846-0.36754 1.0253-0.51856 1.2645-0.09097 0.14674-0.24017 0.26086-0.41303 0.26267-3.9119 0.06341-10.267-2.1123-12.46-3.326-0.06004-0.03261-0.4949-0.3134-0.54949-0.346-0.79512-0.44926-1.0113-0.71622-0.86033-1.2687 0.07642-0.27898 0.36542-0.49752 0.53464-1.2475 0.05458-0.23912 0.10114-0.3727 0.22744-0.76449 0.13282 0.10869 0.2893 0.21197 0.46943 0.31523 0.06368 0.03623 0.13464 0.07065 0.20196 0.1105 1.8523 1.134 7.853 3.4872 13.834 3.9872zm86.743-3.9673c0.06732-0.04167 0.13828-0.07428 0.20196-0.1105 0.18195-0.10145 0.46943-0.31521 0.46943-0.31521s0.25505-0.18063 0.48138-0.42624c1.0949-1.1881-1.1051-5.8513-2.3371-10.245-1.5596-5.5615-2.7059-8.9787-3.7228-14.838-1.3468-7.7598-2.8699-9.9469-4.166-16.011-1.0127-4.7377-2.0218-7.9912-2.9031-12.432-2.0287-8.5432-4.232-10.958-6.419-13.36-0.25473-0.2808-0.76419-0.79529-1.0462-1.0109v2.2e-5c-0.47853-0.36776-0.98981-0.72466-1.5175-1.0507 0.67686 0.66669 0.84061 1.7555 0.43304 2.6323-0.04913 0.10688-0.10007 0.2192-0.15466 0.33877-0.0036 0.0091-0.0091 0.01812-0.01274 0.02536-1.7049 3.7337-5.3748 12.187-6.3155 26.618v0.001812c0.03457 0.08243 0.73505 3.4453 1.9767 7.6017 1.2416 4.1564 2.8922 7.5197 4.5305 13.02 0.81912 2.7503 1.6706 6.4696 2.6487 11.233 0.97809 4.7632 2.2151 10.703 3.0384 11.992 0.21776 0.34104 0.98084 0.32357 0.98084 0.32357 5.0782-0.31522 11.612-2.6449 13.834-3.9872zm-13.834 3.9872c0.09643 0.50361 0.33661 0.77172 0.46579 1.0127 0.35844 0.66846 0.36754 1.0253 0.51856 1.2645 0.09097 0.14674 0.24017 0.26086 0.41303 0.26267 3.9119 0.06341 10.267-2.1123 12.46-3.326 0.06004-0.03261 0.4949-0.3134 0.54949-0.346 0.79512-0.44926 1.0113-0.71622 0.86033-1.2687-0.07642-0.27898-0.36542-0.49752-0.53464-1.2475-0.05458-0.23912-0.10114-0.3727-0.22744-0.76449-0.13282 0.10869-0.2893 0.21197-0.46943 0.31523-0.06368 0.03623-0.13464 0.07065-0.20196 0.1105-1.8523 1.134-7.853 3.4872-13.834 3.9872z" fill="#0ff"/>
				<path id="cuello" class="cuello" transform="matrix(.18195 0 0 .18116 1.2131 -1.828)" d="m218.54 34.32c-24.93-0.02-42.802-4.6164-54.98-9.74-8.1839-3.5206-24.605-13.48-24.605-13.48s2.9533-2.4827 5.7339-4.822c2.4041-2.0225 4.5274-4.4091 4.9711-4.898 0.31569-0.34783 0.74542-0.62673 1.2022-0.73205 0.38757-0.08938 0.81826-0.035438 1.1878 0.11207 1.1631 0.6461 1.156 1.0382 2.25 1.79 0 0 26.5 16.98 64.3 17.01h0.96c37.8-0.03 64.31-16.99 64.31-16.99 1.094-0.75176 1.0869-1.1439 2.25-1.79 0.36957-0.14753 0.80024-0.20146 1.1878-0.11208 0.45674 0.10533 0.88647 0.38423 1.2022 0.73208 0.4437 0.48889 2.567 2.8755 4.9711 4.8981 2.7806 2.3393 5.7288 4.8121 5.7288 4.8121s-16.421 9.9591-24.605 13.48c-12.178 5.1234-30.05 9.7197-54.992 9.735z" fill="#008080"/>
			</g>
			<g id="sombras">
				<path id="sombra completa" transform="matrix(.18195 0 0 .18116 1.2131 -1.828)" d="m274.58 24.58c-12.18 5.12-30.05 9.71-54.98 9.74h-1.06c-24.93-0.02-42.802-4.6164-54.98-9.74-1.4527-0.62494-3.1951-1.3803-4.76-2.15 1.36 2.74 3.31 6.1699 5.86 9.7999 0.50458 0.70978 1.0626 1.4615 1.51 2.07 2.8116 3.7627 5.9539 7.157 9.36 10.29 0.98258 0.90537 1.8722 1.6403 2.8 2.3999 2.86 2.34 6.05 4.5701 9.61 6.6001 4.5 2.56 11.31 4.75 19.18 5.91 0.01 0 0.03 0.01 0.04 0.01 5.47 1 18.4 1 23.87 0 0.01 0 0.03-0.01 0.04-0.01 7.87-1.17 14.68-3.35 19.18-5.91 3.49-1.99 6.65-4.1801 9.48-6.4901 4.2327-3.4206 7.9581-7.3143 11.31-11.52 0.84-1.07 1.62-2.1201 2.36-3.1601 0.04-0.06 0.09-0.13 0.13-0.19 2.55-3.63 4.45-7.0599 5.81-9.7999-1.5119 0.72686-3.0876 1.433-4.76 2.15zm83.82 510.38c-1.3701 0.98997-3.6301 1.7899-6.3801 2.4199h3e-5c-2.28 0.51999-4.89 0.93998-7.59 1.26-2.7 0.33997-5.5 0.56998-8.14 0.74997-11.98 1.36-30.34-2.9999-53.46-1.66-15.81 0.91998-33.85 2.1499-53.59 3.0599-1.78 0.08-5.94 0.34996-10.08 0.36001-3.62 0.01-7.28-0.23002-8.58-0.29002-20.4-0.90997-39.01-2.1899-55.26-3.1299-23.12-1.34-41.48 3.0199-53.46 1.66-2.6499-0.18001-5.4399-0.41996-8.1399-0.74998-2.7-0.31999-5.3-0.73998-7.58-1.26-2.7-0.61998-4.94-1.4-6.3099-2.3699-0.66995 4.2599 0.13493 18.78-1.245 22.85-0.44001 1.2899-1.77 3.8998 0.34999 6.2096 1.19 1.2899 3.79 2.2799 7.09 3.0398 4.55 1.05 10.42 1.65 15.72 2.0099 11.98 1.37 30.34-2.9998 53.46-1.6599 18.48 1.0699 40 2.5798 63.74 3.4897h0.18c23.74-0.90991 45.26-2.4198 63.74-3.4897 23.12-1.3399 41.48 3.0298 53.46 1.6599 5.3-0.34997 11.17-0.95993 15.72-2.0099 3.3-0.75994 5.9-1.7499 7.09-3.0398 2.12-2.3098 0.79-4.9096 0.34998-6.2096-1.38-4.0698-0.42495-18.65-1.085-22.9zm-272.26 2.4201c2.28 0.51998 4.88 0.93997 7.58 1.26 2.7 0.33004 5.49 0.56997 8.1399 0.74998 11.98 1.36 30.34-2.9999 53.46-1.66 16.25 0.93997 34.86 2.2199 55.26 3.1299 1.3 0.06 4.96 0.29996 8.58 0.29002 4.14-0.01 8.3-0.28003 10.08-0.36001 19.74-0.90998 37.78-2.1399 53.59-3.0599 23.12-1.34 41.48 3.0199 53.46 1.66 2.64-0.18001 5.44-0.41003 8.14-0.74998 2.7-0.31999 5.31-0.73997 7.59-1.26 2.75-0.62996 5.01-1.43 6.3801-2.4199 0 0 6.3111-3.7585 7.6225-18.28 1.8605-36.078 0.90294-61.356-7.2532-95.329-2.5871-15.713-3.4408-23.802-5.648-50.939-3.3534-30.624-2.0717-34.762-3.1962-64.179-0.65153-22.747 0.18489-27.596-1.9083-51.426-0.49002-10.101-0.50255-15.737-1.0368-32.869v-0.01c5.17-80.61 25.33-127.84 34.71-148.69 0.01-0.05023 0.0401-0.09009 0.07-0.1401 0.30003-0.67 0.58-1.2899 0.85-1.8899 2.25-4.9 1.36-10.98-2.36-14.7h-1.6e-4c-10.74-6.7398-22.48-11.58-27.85-13.95-32.7-14.37-47-26.45-53.19-31.45 0.11003 0.09 0.22 0.19 0.31998 0.27-1.71 8.18-9.84 41.13-45.89 57.49-12.37 5.62-23.96 7.61-34.18 7.62-0.12998 0-0.25002-0.0099-0.38-0.0099s-0.25001 0.0099-0.37999 0.0099c-10.22-0.0099-21.81-2-34.18-7.62-36.05-16.36-44.18-49.31-45.89-57.49 0.1-0.09 0.22-0.18 0.31997-0.27-6.19 5-20.49 17.08-53.19 31.45-5.36 2.36-17.1 7.21-27.85 13.95-3.72 3.73-4.6199 9.8-2.3799 14.7 0.27002 0.6 0.5499 1.2299 0.8499 1.8899 0.01978 0.05023 0.05001 0.10008 0.07007 0.1401 9.37 20.86 29.54 68.08 34.71 148.69v0.02c-0.53427 17.131-0.5468 22.767-1.0368 32.868-2.0932 23.83-1.2568 28.678-1.9083 51.424-1.1244 29.416 0.1573 33.553-3.1962 64.176-2.2072 27.136-3.0608 35.224-5.648 50.937-8.1561 33.972-9.1137 59.249-7.2532 95.326 1.3114 14.521 7.6675 18.304 7.6675 18.304 1.415 0.99485 3.655 1.7748 6.355 2.3948zm199.06-535.41c-0.36-0.02-0.83 0.2-1.35 0.59l0.01-0.01001c-6.97 5.62-26.5 16.98-64.3 17.01h-0.96c-37.8-0.03-57.33-11.38-64.3-17.01v0.01001c-0.52-0.39-0.99-0.61-1.35-0.59-1.22 0.08-1.22 3.01 2.3 12.14 0.21 0.54 0.43 1.1 0.66 1.69 0 0.01 0.01 0.02 0.01 0.03 0.23 0.56 0.47 1.12 0.7 1.69 0.37 0.87 0.89 2.06 1.54 3.59 0.06 0.13 0.12 0.27 0.18 0.4 0.11 0.23 0.22 0.46 0.35 0.7 0.03 0.06 0.06 0.15 0.11 0.22 0.34 0.17 0.69 0.33 1.04 0.5 1.2566 0.59083 2.5046 1.1272 3.72 1.65 12.178 5.1236 30.05 9.72 54.98 9.74h1.06c24.93-0.03 42.8-4.62 54.98-9.74 1.2565-0.53479 2.6152-1.1464 3.72-1.65 0.35-0.17 0.7-0.33 1.04-0.5l0.11-0.22c0.13-0.25 0.24-0.47 0.35-0.7 0.06-0.13 0.12-0.27 0.18-0.4 0.66-1.53 1.17-2.72 1.54-3.59 0.23-0.56 0.47-1.12 0.7-1.69 0-0.01 0.01-0.02 0.01-0.03 0.24-0.59 0.45-1.14 0.66-1.69 3.53-9.13 3.53-12.06 2.31-12.14zm14.34 9.42c-1.71 8.18-9.84 41.13-45.89 57.49-12.37 5.62-23.96 7.61-34.18 7.62h-0.77c-10.22-0.01-21.81-2-34.18-7.62-36.05-16.36-44.18-49.31-45.89-57.49 2.48-2.1 6.54-5.37 8.4-7.21 1.16-1.14 2.09-2.12 2.65-2.78 0.43-0.51 1-0.76001 1.59-0.79001 0.34-0.02 0.6 0.080014 0.81 0.17001 0.24 0.1 0.47 0.24 0.66 0.43h0.01c0.5 0.46 1 0.88999 1.56 1.34l0.01 0.02002c-2.36-1.77-3.75-0.17001 1.62 13.24 0.01 0.03 0.02 0.0599 0.04 0.1099 0.23 0.62 1.01 2.38 2.31 5.44 0.02 0.06 0.05 0.1101 0.08 0.1701 0.11 0.23 0.23 0.4599 0.35 0.6999 0.03 0.07 0.07 0.16 0.12 0.25 1.36 2.74 3.27 6.12 5.82 9.75 0.50458 0.70978 1.0626 1.4615 1.51 2.07 2.8116 3.7627 5.9539 7.157 9.36 10.29 0.7 0.64 1.42 1.2699 2.17 1.8899 0.2 0.18 0.41 0.34 0.63 0.51 2.86 2.34 6.05 4.5701 9.61 6.6001 4.5 2.56 11.31 4.75 19.18 5.91 0.01 0 0.03 0.01 0.04 0.01 5.47 1 18.4 1 23.87 0 0.01 0 0.03-0.01 0.04-0.01 7.87-1.17 14.68-3.35 19.18-5.91 3.49-1.99 6.65-4.1801 9.48-6.4901 4.2327-3.4206 7.9581-7.3143 11.31-11.52 0.84-1.07 1.62-2.1201 2.36-3.1601 0.04-0.06 0.09-0.13 0.13-0.19 2.55-3.63 4.46-7.01 5.82-9.75 0.05-0.08 0.09-0.18 0.12-0.25 0.13-0.25 0.24-0.4699 0.35-0.6999 0.03-0.06 0.06-0.1101 0.08-0.1701 1.31-3.05 2.08-4.82 2.31-5.44 0.02-0.04 0.03-0.0799 0.04-0.1099 5.37-13.41 3.98-15.01 1.62-13.24l0.01-0.02002c0.56-0.45 1.07-0.87999 1.56-1.34h0.01c0.2-0.19 0.42-0.33 0.67-0.43 0.21-0.09 0.46-0.19001 0.8-0.17001 0.59 0.04 1.16 0.29001 1.59 0.79001 0.56 0.66 1.49 1.65 2.65 2.78 1.84 1.84 5.9 5.11 8.38 7.21zm-356.89 430.47c-0.36999-0.23002-0.76-0.41002-1.11-0.60998-1-0.55998-2.58-1.7399-2.58-1.7399s-1.4018-0.9971-2.6457-2.3528c-6.0176-6.5586 6.0734-32.299 12.845-56.551 8.5716-30.699 14.871-49.562 20.46-81.904 7.4023-42.834 15.773-54.907 22.897-88.378 5.566-26.152 11.112-44.111 15.955-68.626 11.15-47.159 23.259-60.488 35.279-73.748 1.4-1.55 4.2-4.39 5.75-5.58v1.22e-4c2.63-2.03 5.44-4.0001 8.34-5.8001-3.72 3.6801-4.62 9.6901-2.38 14.53 0.27002 0.59 0.55 1.21 0.85 1.87 0.01979 0.05023 0.05001 0.10002 0.07002 0.13999 9.37 20.61 29.54 67.27 34.71 146.93v8e-3c-0.19 0.45501-4.0398 19.018-10.864 41.961s-15.896 41.508-24.9 71.872c-4.5019 15.182-9.1815 35.712-14.557 62.005-5.3756 26.293-12.174 59.078-16.699 66.195-1.1968 1.8825-5.3907 1.7861-5.3907 1.7861-27.91-1.74-63.82-14.6-76.03-22.009zm76.03 22.009c-0.52998 2.7799-1.85 4.2599-2.56 5.5898-1.97 3.6899-2.02 5.6598-2.85 6.9798-0.49997 0.80997-1.32 1.44-2.27 1.45-21.5 0.35002-56.43-11.66-68.48-18.359-0.32998-0.18-2.72-1.7299-3.02-1.9099-4.37-2.4799-5.5584-3.9535-4.7284-7.0034 0.42001-1.54 2.0084-2.7463 2.9384-6.8862 0.29997-1.32 0.55585-2.0573 1.25-4.22 0.72999 0.59998 1.59 1.1701 2.58 1.7401 0.34999 0.19999 0.74 0.38999 1.11 0.60998 10.18 6.2598 43.16 19.249 76.03 22.009zm476.74-21.899c0.36999-0.23001 0.76-0.41002 1.11-0.60998 1-0.55998 2.58-1.7399 2.58-1.7399s1.4018-0.9971 2.6457-2.3528c6.0176-6.5586-6.0734-32.299-12.845-56.551-8.5716-30.699-14.871-49.562-20.46-81.904-7.4023-42.834-15.773-54.907-22.897-88.378-5.566-26.152-11.112-44.111-15.955-68.626-11.15-47.159-23.259-60.488-35.279-73.748-1.4-1.55-4.2-4.39-5.75-5.58v1.21e-4c-2.63-2.03-5.44-4.0001-8.34-5.8001 3.72 3.6801 4.62 9.6901 2.38 14.53-0.27002 0.59-0.55 1.21-0.85 1.87-0.0198 0.05023-0.05 0.10002-0.07 0.13999-9.37 20.61-29.54 67.27-34.71 146.93v8e-3c0.19 0.45501 4.0398 19.018 10.864 41.961 6.8241 22.943 15.896 41.508 24.9 71.872 4.5019 15.182 9.1815 35.712 14.557 62.005s12.174 59.078 16.699 66.195c1.1968 1.8825 5.3907 1.7861 5.3907 1.7861 27.91-1.74 63.82-14.6 76.03-22.009zm-76.03 22.009c0.52998 2.7799 1.85 4.2599 2.56 5.5898 1.97 3.6899 2.02 5.6598 2.85 6.9798 0.49997 0.80997 1.32 1.44 2.27 1.45 21.5 0.35002 56.43-11.66 68.48-18.359 0.32998-0.18001 2.72-1.73 3.02-1.9099 4.37-2.4799 5.5584-3.9535 4.7284-7.0034-0.42001-1.5399-2.0084-2.7463-2.9384-6.8862-0.29997-1.32-0.55585-2.0573-1.25-4.22-0.72999 0.59998-1.59 1.1701-2.58 1.7401-0.34998 0.19999-0.74 0.38999-1.11 0.60998-10.18 6.2598-43.16 19.249-76.03 22.009z" fill="#ccc" fill-opacity=".3"/>
				<path id="sombra inferior" transform="translate(-11.85 -3.3457)" d="m78.274 98.431c-0.24929 0.17934-0.6605 0.32427-1.1609 0.43839l6e-6 1e-6c-0.41485 0.0942-0.88974 0.17028-1.381 0.22826-0.49126 0.06159-1.0007 0.10326-1.4811 0.13586-2.1798 0.24637-5.5204-0.54346-9.727-0.30072-2.8766 0.16666-6.159 0.38948-9.7507 0.55433-0.32387 0.01449-1.0808 0.0634-1.8341 0.06522-0.65866 0.0018-1.3246-0.04167-1.5611-0.05254-3.7118-0.16485-7.0979-0.39673-10.055-0.56701-4.2067-0.24275-7.5473 0.54709-9.727 0.30072-0.48215-0.03261-0.98979-0.07608-1.4811-0.13586-0.49126-0.05797-0.96434-0.13406-1.3792-0.22826-0.49126-0.11232-0.89883-0.25362-1.1481-0.42934-0.1219 0.77172 0.02455 3.4021-0.22653 4.1394-0.08006 0.23368-0.32205 0.70649 0.06368 1.1249 0.21652 0.23368 0.68959 0.41302 1.29 0.55069 0.82787 0.19021 1.8959 0.29891 2.8603 0.36411 2.1798 0.24818 5.5204-0.54344 9.727-0.3007 3.3624 0.19383 7.278 0.46736 11.597 0.6322h0.03275c4.3195-0.16484 8.2351-0.43837 11.597-0.6322 4.2067-0.24274 7.5473 0.54888 9.727 0.3007 0.96434-0.0634 2.0324-0.1739 2.8603-0.36411 0.60044-0.13767 1.0735-0.31701 1.29-0.55069 0.38573-0.41844 0.14374-0.88943 0.06368-1.1249-0.25109-0.73729-0.07732-3.3786-0.19742-4.1485z" fill="#ccc" fill-opacity=".3"/>
				<path id="sombra torso" transform="matrix(.18195 0 0 .18116 1.2131 -1.828)" d="m85.76 42.56c-5.36 2.36-17.1 7.21-27.85 13.95-3.72 3.73-4.6199 9.8-2.3799 14.7 0.27002 0.6 0.5499 1.2299 0.8499 1.8899 0.01978 0.05023 0.05001 0.10008 0.07007 0.1401 9.37 20.86 29.54 68.08 34.71 148.69v0.02c-0.53427 17.131-0.5468 22.767-1.0368 32.868-2.0932 23.83-1.2568 28.678-1.9083 51.424-1.1244 29.416 0.1573 33.553-3.1962 64.176-2.2072 27.136-3.0608 35.224-5.648 50.937-8.1561 33.972-9.1137 59.249-7.2532 95.326 1.3114 14.521 7.6675 18.304 7.6675 18.304 1.415 0.99485 3.655 1.7748 6.355 2.3948h1.6e-5c2.28 0.51998 4.88 0.93997 7.58 1.26 2.7 0.33004 5.49 0.56997 8.1399 0.74998 11.98 1.36 30.34-2.9999 53.46-1.66 16.25 0.93997 34.86 2.2199 55.26 3.1299 1.3 0.06 4.96 0.29996 8.58 0.29002 4.14-0.01 8.3-0.28003 10.08-0.36001 19.74-0.90998 37.78-2.1399 53.59-3.0599 23.12-1.34 41.48 3.0199 53.46 1.66 2.64-0.18001 5.44-0.41003 8.14-0.74998 2.7-0.31999 5.31-0.73997 7.59-1.26 2.75-0.62996 5.01-1.43 6.3801-2.4199 0 0 6.3111-3.7585 7.6225-18.28 1.8605-36.078 0.90294-61.356-7.2532-95.329-2.5871-15.713-3.4408-23.802-5.648-50.939-3.3534-30.624-2.0717-34.762-3.1962-64.179-0.65153-22.747 0.18489-27.596-1.9083-51.426-0.49002-10.101-0.50255-15.737-1.0368-32.869v-0.01c5.17-80.61 25.33-127.84 34.71-148.69 0.01-0.05023 0.0401-0.09009 0.07-0.1401 0.30003-0.67 0.58-1.2899 0.85-1.8899 2.25-4.9 1.36-10.98-2.36-14.7h-1.6e-4c-10.74-6.7399-22.48-11.58-27.85-13.95-32.7-14.37-47-26.45-53.193-31.445 0 0-16.424 9.9638-24.608 13.484-12.178 5.1233-30.05 9.7194-54.992 9.7347l-1.0724-0.0047c-24.93-0.02-42.802-4.6163-54.98-9.7397-8.1839-3.5205-24.605-13.48-24.605-13.48-6.19 5-20.49 17.08-53.19 31.45zm272.64 492.4c-1.3701 0.98997-3.6301 1.7899-6.3801 2.4199h3e-5c-2.28 0.51999-4.89 0.93998-7.59 1.26-2.7 0.33997-5.5 0.56998-8.14 0.74997-11.98 1.36-30.34-2.9999-53.46-1.66-15.81 0.91998-33.85 2.1499-53.59 3.0599-1.78 0.08-5.94 0.34996-10.08 0.36001-3.62 0.01-7.28-0.23002-8.58-0.29002-20.4-0.90997-39.01-2.1899-55.26-3.1299-23.12-1.34-41.48 3.0199-53.46 1.66-2.6499-0.18001-5.4399-0.41996-8.1399-0.74998-2.7-0.31999-5.3-0.73998-7.58-1.26-2.7-0.61998-4.94-1.4-6.3099-2.3699-0.66995 4.2599 0.13493 18.78-1.245 22.85-0.44001 1.2899-1.77 3.8998 0.34999 6.2096 1.19 1.2899 3.79 2.2799 7.09 3.0398 4.55 1.05 10.42 1.65 15.72 2.0099 11.98 1.37 30.34-2.9998 53.46-1.6599 18.48 1.0699 40 2.5798 63.74 3.4897h0.18c23.74-0.90991 45.26-2.4198 63.74-3.4897 23.12-1.3399 41.48 3.0298 53.46 1.6599 5.3-0.34997 11.17-0.95993 15.72-2.0099 3.3-0.75994 5.9-1.7499 7.09-3.0398 2.12-2.3098 0.79-4.9096 0.34998-6.2096-1.38-4.0698-0.42495-18.65-1.085-22.9z" fill="url(#radialGradient3445)" opacity=".8"/>
				<path id="sombra manga derecha" transform="translate(1.3872 -2.0367)" d="m89.968 80.276c0.06732-0.04167 0.13828-0.07428 0.20196-0.1105 0.18195-0.10145 0.46943-0.31521 0.46943-0.31521s0.25505-0.18063 0.48138-0.42624c1.0949-1.1881-1.1051-5.8513-2.3371-10.245-1.5596-5.5615-2.7059-8.9787-3.7228-14.838-1.3468-7.7598-2.8699-9.9469-4.166-16.011-1.0127-4.7377-2.0218-7.9912-2.9031-12.432-2.0287-8.5432-4.232-10.958-6.419-13.36-0.25473-0.2808-0.76419-0.79529-1.0462-1.0109v2.2e-5c-0.47853-0.36776-0.98981-0.72466-1.5175-1.0507 0.67686 0.66669 0.84061 1.7555 0.43304 2.6323-0.04913 0.10688-0.10007 0.2192-0.15466 0.33877-0.0036 0.0091-0.0091 0.01812-0.01274 0.02536-1.7049 3.7337-5.3748 12.187-6.3155 26.618v0.001812c0.03457 0.08243 0.73505 3.4453 1.9767 7.6017 1.2416 4.1564 2.8922 7.5197 4.5305 13.02 0.81912 2.7503 1.6706 6.4696 2.6487 11.233 0.97809 4.7632 2.2151 10.703 3.0384 11.992 0.21776 0.34104 0.98084 0.32357 0.98084 0.32357 5.0782-0.31522 11.612-2.6449 13.834-3.9872zm-13.834 3.9872c0.09643 0.50361 0.33661 0.77172 0.46579 1.0127 0.35844 0.66846 0.36754 1.0253 0.51856 1.2645 0.09097 0.14674 0.24017 0.26086 0.41303 0.26267 3.9119 0.06341 10.267-2.1123 12.46-3.326 0.06004-0.03261 0.4949-0.3134 0.54949-0.346 0.79512-0.44926 1.0113-0.71622 0.86033-1.2687-0.07642-0.27898-0.36542-0.49752-0.53464-1.2475-0.05458-0.23912-0.10114-0.3727-0.22744-0.76449-0.13282 0.10869-0.2893 0.21197-0.46943 0.31523-0.06368 0.03623-0.13464 0.07065-0.20196 0.1105-1.8523 1.134-7.853 3.4872-13.834 3.9872z" fill="url(#radialGradient1715)" opacity=".8"/>
				<path id="sombra manga izquierda" d="m-9.2218 78.219c-0.06732-0.04167-0.13828-0.07428-0.20196-0.1105-0.18195-0.10145-0.46943-0.31521-0.46943-0.31521s-0.25505-0.18063-0.48138-0.42624c-1.0949-1.1881 1.1051-5.8513 2.3371-10.245 1.5596-5.5615 2.7059-8.9787 3.7228-14.838 1.3468-7.7598 2.8699-9.9469 4.166-16.011 1.0127-4.7377 2.0218-7.9912 2.9031-12.432 2.0287-8.5432 4.232-10.958 6.419-13.36 0.25473-0.2808 0.76419-0.79529 1.0462-1.0109v2.2e-5c0.47853-0.36776 0.98981-0.72466 1.5175-1.0507-0.67686 0.66669-0.84061 1.7555-0.43304 2.6323 0.04913 0.10688 0.10007 0.2192 0.15466 0.33877 0.0036 0.0091 0.0091 0.01812 0.01274 0.02536 1.7049 3.7337 5.3748 12.187 6.3155 26.618v0.001812c-0.03457 0.08243-0.73505 3.4453-1.9767 7.6017-1.2416 4.1564-2.8922 7.5197-4.5305 13.02-0.81912 2.7503-1.6706 6.4696-2.6487 11.233-0.97809 4.7632-2.2151 10.703-3.0384 11.992-0.21776 0.34104-0.98084 0.32357-0.98084 0.32357-5.0782-0.31522-11.612-2.6449-13.834-3.9872zm13.834 3.9872c-0.09643 0.50361-0.33661 0.77172-0.46579 1.0126-0.35844 0.66846-0.36754 1.0253-0.51856 1.2645-0.09097 0.14674-0.24017 0.26086-0.41303 0.26267-3.9119 0.0634-10.267-2.1123-12.46-3.326-0.06004-0.03261-0.4949-0.3134-0.54949-0.346-0.79512-0.44926-1.0113-0.71622-0.86033-1.2687 0.07642-0.27898 0.36542-0.49752 0.53464-1.2475 0.05458-0.23912 0.10114-0.3727 0.22744-0.76449 0.13282 0.10869 0.2893 0.21197 0.46943 0.31523 0.06368 0.03623 0.13464 0.07065 0.20196 0.1105 1.8523 1.134 7.853 3.4872 13.834 3.9872z" fill="url(#radialGradient1715-6)" opacity=".8"/>
				<path id="sombra cuello" transform="matrix(.18195 0 0 .18116 1.2131 -1.828)" d="m158.5 44.359c-36.05-16.36-33.221-13.683-34.931-21.863 2.48-2.1 21.605-16.475 23.465-18.315 1.16-1.14 2.09-2.12 2.65-2.78 0.43-0.51 1-0.76001 1.59-0.79001 0.34-0.02 0.6 0.080014 0.81 0.17001 0.24 0.1 0.66 0.43 0.66 0.43l1.5597 1.3399c6.97 5.63 26.5 16.98 64.735 16.981 38.235 6.1e-4 57.765-11.349 64.735-16.979l1.5597-1.3399s0.41999-0.32999 0.66-0.42998c0.21-0.089992 0.47002-0.18999 0.81-0.17 0.59 0.029999 1.16 0.28 1.59 0.78999 0.56 0.65998 1.49 1.6399 2.65 2.7799 1.86 1.8399 20.985 16.215 23.465 18.315-1.71 8.1797 1.1191 5.5032-34.931 21.863-12.37 5.6198-49.934 14.077-60.539 14.077s-48.169-8.4571-60.539-14.077z" fill="url(#radialGradient21406)" opacity=".8"/>
			</g>
			<g id="contornos">
				<path id="contorno completo" transform="matrix(.18195 0 0 .18116 1.2131 -1.828)" d="m218.54 34.32c-24.93-0.02-42.802-4.6164-54.98-9.74-8.1839-3.5206-24.605-13.48-24.605-13.48s2.9533-2.4827 5.7339-4.822c2.4041-2.0225 4.5274-4.4091 4.9711-4.898 0.31569-0.34783 0.74542-0.62673 1.2022-0.73205 0.38757-0.08938 0.81826-0.035438 1.1878 0.11207 1.1631 0.6461 1.156 1.0382 2.25 1.79 0 0 26.5 16.98 64.3 17.01h0.96c37.8-0.03 64.31-16.99 64.31-16.99 1.094-0.75176 1.0869-1.1439 2.25-1.79 0.36957-0.14753 0.80024-0.20146 1.1878-0.11208 0.45674 0.10533 0.88647 0.38423 1.2022 0.73208 0.4437 0.48889 2.567 2.8755 4.9711 4.8981 2.7806 2.3393 5.7288 4.8121 5.7288 4.8121s-16.421 9.9591-24.605 13.48c-12.178 5.1234-30.05 9.7197-54.992 9.735zm-275.89 407.54c-0.36999-0.23002-0.76-0.41002-1.11-0.60998-1-0.55998-2.58-1.7399-2.58-1.7399s-1.4018-0.9971-2.6457-2.3528c-6.0176-6.5586 6.0734-32.299 12.845-56.551 8.5716-30.699 14.871-49.562 20.46-81.904 7.4023-42.834 15.773-54.907 22.897-88.378 5.566-26.152 11.112-44.111 15.955-68.626 11.15-47.159 23.259-60.488 35.279-73.748 1.4-1.55 4.2-4.39 5.75-5.58v1.22e-4c2.63-2.03 5.44-4.0001 8.34-5.8001-3.72 3.6801-4.62 9.6901-2.38 14.53 0.27002 0.59 0.55 1.21 0.85 1.87 0.01979 0.05023 0.05001 0.10002 0.07002 0.13999 9.37 20.61 29.54 67.27 34.71 146.93v8e-3c-0.19 0.45501-4.0398 19.018-10.864 41.961s-15.896 41.508-24.9 71.872c-4.5019 15.182-9.1815 35.712-14.557 62.005-5.3756 26.293-12.174 59.078-16.699 66.195-1.1968 1.8825-5.3907 1.7861-5.3907 1.7861-27.91-1.74-63.82-14.6-76.03-22.009zm76.03 22.009c-0.52998 2.7799-1.85 4.2599-2.56 5.5898-1.97 3.6899-2.02 5.6598-2.85 6.9798-0.49997 0.80997-1.32 1.44-2.27 1.45-21.5 0.35002-56.43-11.66-68.48-18.359-0.32998-0.18-2.72-1.7299-3.02-1.9099-4.37-2.4799-5.5584-3.9535-4.7284-7.0034 0.42001-1.54 2.0084-2.7463 2.9384-6.8862 0.29997-1.32 0.55585-2.0573 1.25-4.22 0.72999 0.59998 1.59 1.1701 2.58 1.7401 0.34999 0.19999 0.74 0.38999 1.11 0.60998 10.18 6.2598 43.16 19.249 76.03 22.009zm476.74-21.899c0.36999-0.23001 0.76-0.41002 1.11-0.60998 1-0.55998 2.58-1.7399 2.58-1.7399s1.4018-0.9971 2.6457-2.3528c6.0176-6.5586-6.0734-32.299-12.845-56.551-8.5716-30.699-14.871-49.562-20.46-81.904-7.4023-42.834-15.773-54.907-22.897-88.378-5.566-26.152-11.112-44.111-15.955-68.626-11.15-47.159-23.259-60.488-35.279-73.748-1.4-1.55-4.2-4.39-5.75-5.58v1.21e-4c-2.63-2.03-5.44-4.0001-8.34-5.8001 3.72 3.6801 4.62 9.6901 2.38 14.53-0.27002 0.59-0.55 1.21-0.85 1.87-0.0198 0.05023-0.05 0.10002-0.07 0.13999-9.37 20.61-29.54 67.27-34.71 146.93v8e-3c0.19 0.45501 4.0398 19.018 10.864 41.961 6.8241 22.943 15.896 41.508 24.9 71.872 4.5019 15.182 9.1815 35.712 14.557 62.005s12.174 59.078 16.699 66.195c1.1968 1.8825 5.3907 1.7861 5.3907 1.7861 27.91-1.74 63.82-14.6 76.03-22.009zm-76.03 22.009c0.52998 2.7799 1.85 4.2599 2.56 5.5898 1.97 3.6899 2.02 5.6598 2.85 6.9798 0.49997 0.80997 1.32 1.44 2.27 1.45 21.5 0.35002 56.43-11.66 68.48-18.359 0.32998-0.18001 2.72-1.73 3.02-1.9099 4.37-2.4799 5.5584-3.9535 4.7284-7.0034-0.42001-1.5399-2.0084-2.7463-2.9384-6.8862-0.29997-1.32-0.55585-2.0573-1.25-4.22-0.72999 0.59998-1.59 1.1701-2.58 1.7401-0.34998 0.19999-0.74 0.38999-1.11 0.60998-10.18 6.2598-43.16 19.249-76.03 22.009zm-333.63-421.42c-5.36 2.36-17.1 7.21-27.85 13.95-3.72 3.73-4.6199 9.8-2.3799 14.7 0.27002 0.6 0.5499 1.2299 0.8499 1.8899 0.01978 0.05023 0.05001 0.10008 0.07007 0.1401 9.37 20.86 29.54 68.08 34.71 148.69v0.02c-0.53427 17.131-0.5468 22.767-1.0368 32.868-2.0932 23.83-1.2568 28.678-1.9083 51.424-1.1244 29.416 0.1573 33.553-3.1962 64.176-2.2072 27.136-3.0608 35.224-5.648 50.937-8.1561 33.972-9.1137 59.249-7.2532 95.326 1.3114 14.521 7.6675 18.304 7.6675 18.304 1.415 0.99485 3.655 1.7748 6.355 2.3948h1.6e-5c2.28 0.51998 4.88 0.93997 7.58 1.26 2.7 0.33004 5.49 0.56997 8.1399 0.74998 11.98 1.36 30.34-2.9999 53.46-1.66 16.25 0.93997 34.86 2.2199 55.26 3.1299 1.3 0.06 4.96 0.29996 8.58 0.29002 4.14-0.01 8.3-0.28003 10.08-0.36001 19.74-0.90998 37.78-2.1399 53.59-3.0599 23.12-1.34 41.48 3.0199 53.46 1.66 2.64-0.18001 5.44-0.41003 8.14-0.74998 2.7-0.31999 5.31-0.73997 7.59-1.26 2.75-0.62996 5.01-1.43 6.3801-2.4199 0 0 6.3111-3.7585 7.6225-18.28 1.8605-36.078 0.90294-61.356-7.2532-95.329-2.5871-15.713-3.4408-23.802-5.648-50.939-3.3534-30.624-2.0717-34.762-3.1962-64.179-0.65153-22.747 0.18489-27.596-1.9083-51.426-0.49002-10.101-0.50255-15.737-1.0368-32.869v-0.01c5.17-80.61 25.33-127.84 34.71-148.69 0.01-0.05023 0.0401-0.09009 0.07-0.1401 0.30003-0.67 0.58-1.2899 0.85-1.8899 2.25-4.9 1.36-10.98-2.36-14.7h-1.6e-4c-10.74-6.7399-22.48-11.58-27.85-13.95-32.7-14.37-47-26.45-53.193-31.445 0 0-16.424 9.9638-24.608 13.484-12.178 5.1233-30.05 9.7194-54.992 9.7347l-1.0724-0.0047c-24.93-0.02-42.802-4.6163-54.98-9.7397-8.1839-3.5205-24.605-13.48-24.605-13.48-6.19 5-20.49 17.08-53.19 31.45zm272.64 492.4c-1.3701 0.98997-3.6301 1.7899-6.3801 2.4199h3e-5c-2.28 0.51999-4.89 0.93998-7.59 1.26-2.7 0.33997-5.5 0.56998-8.14 0.74997-11.98 1.36-30.34-2.9999-53.46-1.66-15.81 0.91998-33.85 2.1499-53.59 3.0599-1.78 0.08-5.94 0.34996-10.08 0.36001-3.62 0.01-7.28-0.23002-8.58-0.29002-20.4-0.90997-39.01-2.1899-55.26-3.1299-23.12-1.34-41.48 3.0199-53.46 1.66-2.6499-0.18001-5.4399-0.41996-8.1399-0.74998-2.7-0.31999-5.3-0.73998-7.58-1.26-2.7-0.61998-4.94-1.4-6.3099-2.3699-0.66995 4.2599 0.13493 18.78-1.245 22.85-0.44001 1.2899-1.77 3.8998 0.34999 6.2096 1.19 1.2899 3.79 2.2799 7.09 3.0398 4.55 1.05 10.42 1.65 15.72 2.0099 11.98 1.37 30.34-2.9998 53.46-1.6599 18.48 1.0699 40 2.5798 63.74 3.4897h0.18c23.74-0.90991 45.26-2.4198 63.74-3.4897 23.12-1.3399 41.48 3.0298 53.46 1.6599 5.3-0.34997 11.17-0.95993 15.72-2.0099 3.3-0.75994 5.9-1.7499 7.09-3.0398 2.12-2.3098 0.79-4.9096 0.34998-6.2096-1.38-4.0698-0.42495-18.65-1.085-22.9z" fill="none" stroke="#000" stroke-width=".99972"/>
			</g>
			<g id="detalles" transform="matrix(.18195 0 0 .18116 1.2131 -1.828)" fill="none" opacity=".5" stroke="#000">
				<path id="costuras" transform="matrix(5.496 0 0 5.52 -6.6672 10.091)" d="m55.646 0.77332s-2.9878 1.8041-4.4769 2.4419c-2.2158 0.92813-5.4676 1.7608-10.006 1.7635l-0.19513-8.44e-4c-4.536-0.003623-7.7878-0.83628-10.004-1.7644-1.4891-0.63777-4.4769-2.442-4.4769-2.442m29.158 0.00273s-2.9883 1.805-4.4773 2.4427c-2.2158 0.9281-5.4676 1.7607-10.006 1.7635l-0.19513-8.51e-4c-4.536-0.0036226-7.7878-0.83625-10.004-1.7644-1.4891-0.63775-4.4769-2.4419-4.4769-2.4419m43.232 7.7194c0.13646 0.17754 0.28202 0.31161 0.28202 0.31161 0.4949 0.48732 0.62773 1.3261 0.31659 1.9964l-0.15284 0.33333c-0.0073 0.01449-0.01456 0.02899-0.02002 0.04167-1.4483 3.1685-5.2329 11.469-6.3009 25.951-0.01638 0.22645-0.05095 0.99094 0.18923 1.5815m-51.588-30.216c-0.13646 0.17754-0.28202 0.31161-0.28202 0.31161-0.4949 0.48732-0.62773 1.3261-0.31659 1.9964l0.15284 0.33333c0.0073 0.01449 0.01456 0.02899 0.02001 0.04167 1.4483 3.1685 5.2329 11.469 6.3009 25.951 0.01638 0.22645 0.05095 0.99094-0.18923 1.5815m-1.7758 56.111c0.16194 0.05254 0.34025 0.10145 0.53129 0.14493 0.41485 0.0942 0.88792 0.17029 1.3792 0.22826 0.49126 0.05978 0.9989 0.10326 1.4811 0.13587 2.1798 0.24638 5.5204-0.54348 9.727-0.30072 2.9567 0.17029 6.3428 0.40218 10.055 0.56703 0.23654 0.01087 0.90247 0.05435 1.5611 0.05254 0.75327-0.0018 1.5102-0.05072 1.8341-0.06522 3.5935-0.16486 6.8741-0.38768 9.7507-0.55435 4.2067-0.24276 7.5473 0.5471 9.727 0.30072 0.48035-0.03261 0.98981-0.07428 1.4811-0.13587 0.49126-0.05797 0.96616-0.13406 1.381-0.22826 0.28748-0.06522 0.54403-0.1413 0.75873-0.22826" fill="none" opacity="1" stroke="#000" stroke-dasharray="2.17805, 0.181504" stroke-width=".1815"/>
			</g>
			<g id="imagen">
				<path id="espacio imagen" d="m57.136 22.509 0.21863 56.762-32.36-0.24838-0.21863-56.534z" color="#000000" fill="none" mask="url(#mask-powermask-path-effect4288)" stroke-width="1.1908" style="-inkscape-stroke:none"/>
			</g>
			<g id="texto" transform="translate(4.5148,19.015)" font-family="'Century Schoolbook'" font-weight="bold" stroke-width=".1815" text-anchor="middle">
				<text id="text1154" x="36.616711" y="40.438358" fill="#000000" font-size="7.7611px" stroke="#000000" text-align="center" style="font-variant-caps:normal;font-variant-east-asian:normal;font-variant-ligatures:normal;font-variant-numeric:normal" xml:space="preserve"><tspan id="tspan1150" x="36.616711" y="40.438358">SUPER</tspan><tspan id="tspan1152" x="36.616711" y="50.139744">EQUIPO</tspan></text>
				<text id="text1158" transform="translate(-4.5057,-14.857)" x="40.598637" y="42.656906" fill="#00ffff" font-size="22.578px" stroke="#050505" stroke-width=".52917" text-align="center" style="font-variant-caps:normal;font-variant-east-asian:normal;font-variant-ligatures:normal;font-variant-numeric:normal" xml:space="preserve"><tspan id="tspan1156" x="40.598637" y="42.656906" fill="#00ffff" font-family="'Century Schoolbook'" font-size="22.578px" font-weight="bold" stroke="#050505" stroke-width=".52917" style="font-variant-caps:normal;font-variant-east-asian:normal;font-variant-ligatures:normal;font-variant-numeric:normal">10</tspan></text>
			</g>
		</g>
	</g>
</svg>
