<svg id="remera" class="classClothes" width="300" height="400" version="1.1" viewBox="0 0 79.375 105.83" xmlns="http://www.w3.org/2000/svg" xmlns:xlink="http://www.w3.org/1999/xlink">
	<defs id="defs1131">
		<linearGradient id="linearGradient13432">
			<stop id="stop1107" stop-color="#fff" stop-opacity="0" offset="0"/>
			<stop id="stop1109" stop-opacity=".68947" offset=".79532"/>
		</linearGradient>
		<filter id="filter2535" x="-.0034166" y="-.0026727" width="1.0068" height="1.0053" color-interpolation-filters="sRGB">
			<feGaussianBlur id="feGaussianBlur1112" stdDeviation="0.61972863"/>
		</filter>
		<radialGradient id="radialGradient11949" cx="66.375" cy="17.927" r="8.2522" gradientTransform="matrix(-.55636 -3.6327 1.9487 -.29845 82.605 284.81)" gradientUnits="userSpaceOnUse" xlink:href="#linearGradient13432"/>
		<radialGradient id="radialGradient13426" cx="217.76" cy="219.92" r="164.75" gradientTransform="matrix(1.0583 .00019382 -.00052472 2.8902 -10.875 -451.04)" gradientUnits="userSpaceOnUse">
			<stop id="stop1116" stop-color="#fff" stop-opacity="0" offset="0"/>
			<stop id="stop1118" offset="1"/>
		</radialGradient>
		<radialGradient id="radialGradient13436" cx="66.375" cy="17.927" r="8.2522" gradientTransform="matrix(.55636 -3.6327 -1.9487 -.29845 -.47416 284.79)" gradientUnits="userSpaceOnUse" xlink:href="#linearGradient13432"/>
		<radialGradient id="radialGradient21406" cx="219.56" cy="-1.7173" r="80.455" gradientTransform="matrix(-2.3794 -.036249 .010689 -.70772 741.99 26.303)" gradientUnits="userSpaceOnUse">
			<stop id="stop1122" stop-opacity=".7" offset="0"/>
			<stop id="stop1124" stop-opacity=".2" offset="1"/>
		</radialGradient>
		<mask id="mask-powermask-path-effect4288" maskUnits="userSpaceOnUse">
			<path id="mask-powermask-path-effect4288_box" d="m23.776 21.489h34.579v58.782h-34.579z" fill="#fff"/>
			<path id="path1128" d="m52.393 46.857q0-0.33864-0.18806-0.53873-0.18805-0.2001-0.44744-0.2001-0.23344 0-0.35017 0.15392-0.01297 0.0154-0.49283 0.36942t-1.3942 0.76962q-0.91433 0.4156-2.2437 0.75423t-3.0413 0.33863q-1.2191 0-2.516-0.18471t-2.6717-0.56952q-1.3747-0.4002-2.529-0.86967t-2.101-1.0544q-0.11672-0.07696-0.29829-0.07696-0.25938 0-0.44095 0.2078t-0.18157 0.54643q0 0.46177 0.36314 0.67726 2.7235 1.6162 6.2901 2.355v1.7393q0.19454 2.4936 1.1802 4.0328 0.95972 1.5085 2.4771 1.5085 0.58362 0 1.0829-0.26937 0.49931-0.26937 0.88839-0.78501t0.64846-1.2468q0.25939-0.73114 0.37611-1.6547v-3.0785q0.93378-0.10775 1.8222-0.4079 0.88839-0.30015 1.6082-0.65418 0.71979-0.35402 1.2256-0.69266 0.5058-0.33863 0.68737-0.53873 0.24641-0.2155 0.24641-0.63109zm-17.223-5.3412q0 0.38481 0.10375 0.73884t0.29829 0.62339q0.19454 0.26937 0.47337 0.43099 0.27884 0.16162 0.62901 0.16162 0.83003 0 1.4785-0.83119 0.63549-0.8004 0.63549-1.8933 0-0.38481-0.10375-0.73883t-0.29829-0.63109q-0.19454-0.27706-0.47338-0.43868t-0.629-0.16162q-0.83003 0-1.4785 0.8158-0.63549 0.8158-0.63549 1.924zm10.609 1.57q0 0.24628 0.07782 0.34633t0.26587 0.12314q0.18805 0.0231 0.49931 0.0231t0.76518 0.03849q0.45392 0.03849 1.0635 0.15392 0.60955 0.11544 1.4136 0.37712l0.11672 0.0154q0.14266 0 0.26587-0.14623t0.12321-0.36172-0.14266-0.34633q-0.14266-0.13083-0.47986-0.22319-0.3372-0.09235-0.86894-0.18471-0.53174-0.09235-1.3099-0.21549 0.51877-0.30785 1.1218-0.608 0.60307-0.30015 1.2904-0.608 0.28532-0.09235 0.28532-0.46177 0-0.2155-0.12321-0.35403t-0.27884-0.13853q-0.20751 0-1.5693 0.69266-0.68737 0.35402-1.2645 0.71575-0.57713 0.36172-1.057 0.76193-0.19454 0.13853-0.19454 0.4002zm9.9344 5.7568q0 0.49256-0.02593 1.0159t-0.06485 1.0467q-0.46689 0.66187-1.6341 1.1698-0.58362 0.26167-1.3164 0.49256t-1.6276 0.44638q-0.88191 0.2001-1.7638 0.33863-0.88191 0.13853-1.7768 0.2155-0.83003 4.1713-3.6962 4.1713-3.0218 0-4.0853-3.9097-2.6587-0.12314-4.7597-0.36942t-3.4368-0.6157q-1.3229-0.36942-2.2437-0.78501-0.46689-0.2155-0.843-0.4156t-0.68737-0.38481q-0.57064-0.35402-1.3099-1.1544-0.03891-0.15392-0.06485-0.50025t-0.02594-0.90046q0-0.92354 0.11024-1.7778 0.11024-0.85428 0.32423-1.6855t0.53174-1.6624q0.31774-0.83119 0.73276-1.7086 0.42798-0.89276 0.99214-1.7393 0.56416-0.84658 1.245-1.6085t1.459-1.4161 1.6082-1.1621l-1.7508-6.08-0.05187-0.4156q0-0.49256 0.27884-0.87737t0.74573-0.38481q0.3372 0 0.62901 0.23089t0.39556 0.63109l1.673 5.8953q2.3734-1.0775 5.3563-1.0775 1.1543 0 2.2048 0.12314t2.0232 0.35403q1.9194 0.47716 4.1112 1.7547l1.5693-5.4335q0.10375-0.38481 0.3761-0.6157t0.60955-0.23089q0.23345 0 0.42799 0.10775t0.33071 0.28476q0.13618 0.17701 0.21399 0.4002 0.07782 0.22319 0.07782 0.46947l-0.05187 0.4002-1.7249 6.003q1.284 1.1544 2.2113 2.4012t1.5304 2.6398q0.60307 1.393 0.88839 2.9553t0.28532 3.3632z" fill="currentColor" stroke-width=".014129"/>
		</mask>
	</defs>
	<g id="corte 2" class="cutClothes">
		<g id="frontal" class="viewClothes" transform="translate(-1.3872,2.0367)">
			<g id="color" class="colors">
				<path id="torso" class="torso" transform="matrix(.18195 0 0 .18116 1.2131 -1.828)" d="m274.58 24.58c-12.18 5.12-30.05 9.71-54.98 9.74h-1.06c-24.93-0.02-42.802-4.6164-54.98-9.74-1.4527-0.62494-3.1951-1.3803-4.76-2.15 1.36 2.74 3.31 6.1699 5.86 9.7999 0.50458 0.70978 1.0626 1.4615 1.51 2.07 2.8116 3.7627 5.9539 7.157 9.36 10.29 0.98258 0.90537 1.8722 1.6403 2.8 2.3999 2.86 2.34 6.05 4.5701 9.61 6.6001 4.5 2.56 11.31 4.75 19.18 5.91 0.01 0 0.03 0.01 0.04 0.01 5.47 1 18.4 1 23.87 0 0.01 0 0.03-0.01 0.04-0.01 7.87-1.17 14.68-3.35 19.18-5.91 3.49-1.99 6.65-4.1801 9.48-6.4901 4.2327-3.4206 7.9581-7.3143 11.31-11.52 0.84-1.07 1.62-2.1201 2.36-3.1601 0.04-0.06 0.09-0.13 0.13-0.19 2.55-3.63 4.45-7.0599 5.81-9.7999-1.5119 0.72686-3.0876 1.433-4.76 2.15zm105.67 31.93c-10.74-6.74-22.48-11.58-27.85-13.95-32.7-14.37-47-26.45-53.19-31.45 0.11 0.09 0.22 0.19 0.32 0.27-1.71 8.18-9.84 41.13-45.89 57.49-12.37 5.62-23.96 7.61-34.18 7.62-0.13 0-0.25-0.0101-0.38-0.0101s-0.25 0.0101-0.38 0.0101c-10.22-0.01-21.81-2-34.18-7.62-36.05-16.36-44.18-49.31-45.89-57.49 0.1-0.09 0.22-0.18 0.32-0.27-6.19 5-20.49 17.08-53.19 31.45-5.36 2.36-17.1 7.21-27.85 13.95-3.72 3.73-4.6199 9.8-2.3799 14.7 0.27 0.6 0.5499 1.2299 0.8499 1.8899 0.02 0.05 0.0501 0.1001 0.0701 0.1401 9.37 20.86 29.54 68.08 34.71 148.69v0.01c0.6 4.79 1.1501 9.69 1.6501 14.71 0.01 0.02 0.0099 0.03 0.0099 0.05 1.76 8.9 1.1901 18.6 1.1901 29.17 0 0 2.19 36.38 0.72 54.36 0.19 11.85-0.5101 22.08-0.1301 34.05 0.28 17.55-1.62 33.97-2.58 48.15-0.97 14.18-3.67 25.4-5.86 47.2-2.7 26.83-1.1699 27.57-4.7899 70.57-0.31 3.73-0.97 11.15-1.54 14.81-0.67 4.26 0.17 4.72-1.21 8.79-0.44 1.29-1.77 3.9 0.35 6.21 1.19 1.29 3.79 2.28 7.09 3.04 4.55 1.05 10.42 1.65 15.72 2.01 11.98 1.37 30.34-3 53.46-1.66 18.48 1.07 40 2.58 63.74 3.49h0.18c23.74-0.91 45.26-2.42 63.74-3.49 23.12-1.34 41.48 3.03 53.46 1.66 5.3-0.35 11.17-0.96 15.72-2.01 3.3-0.76 5.9-1.75 7.09-3.04 2.12-2.31 0.79-4.91 0.35-6.21-1.38-4.07-0.46-4.59-1.12-8.84-0.58-3.66-1.32-11.03-1.63-14.76-3.61-43-2.09-43.73-4.79-70.57-2.18-21.8-4.89-33.02-5.86-47.2-0.96-14.18-2.87-30.6-2.58-48.15 0.38-11.97-0.31-22.2-0.13-34.05-1.47-17.97 0.72-54.36 0.72-54.36 0-10.57-0.57-20.27 1.19-29.17 0-0.02 0-0.03 0.01-0.05 0.49-5.02 1.05-9.93 1.65-14.71v-0.01c5.17-80.61 25.33-127.84 34.71-148.69 0.01-0.05 0.04-0.0901 0.07-0.1401 0.3-0.67 0.58-1.2899 0.85-1.8899 2.25-4.9 1.36-10.98-2.36-14.7z" fill="#f00"/>
				<path id="franja" class="franja" d="m60.273 3.3599 0.82429 0.46088 0.83789 0.44551 0.65155 0.33209 0.91384 0.44674 0.96386 0.44943 0.86833 0.38761 0.98562 0.42912 0.91814 0.41423 0.8191 0.39144-51.171 72.581 0.13693-1.2826 0.10246-0.84446 0.12819-0.96986 0.15766-1.1088 0.17022-1.1604 0.16833-1.2113 0.12814-1.1043 0.07988-0.94033 0.08779-1.1772 0.06969-0.86266 0.1082-1.3592 0.07537-1.0533 0.06264-1.0584 0.03475-0.77044 0.0297-1.0629 0.0056-0.9841zm-1.2584-0.75399 0.213 0.13238 0.23465 0.14348 0.20587 0.12311c-7.6499 10.851-41.268 58.536-41.268 58.536l0.01144-1.3375s33.029-46.852 40.603-57.597zm9.6734 4.8312 0.33751 0.17833 0.34052 0.18587-52.727 74.789 0.01236-0.18625 0.01412-0.20386 0.01331-0.1845 0.0134-0.17911 0.01382-0.17861 0.01422-0.17807 0.01412-0.17173 0.01665-0.19674z" fill="#0ff"/>
				<path id="mangas" class="mangas" d="m71.912 9.491c-0.47852-0.36776-0.98978-0.72466-1.5174-1.0508 0.67684 0.66669 0.84059 1.7555 0.43303 2.6323-0.04913 0.10688-0.10007 0.2192-0.15465 0.33877-0.0036 0.0091-0.0091 0.01812-0.01274 0.02536-1.7048 3.7337-5.3747 12.187-6.3153 26.618v0.0018c0.27656 0.65943 0.49307 1.0634 0.79692 1.8424 0.07096 0.18116 0.06186 0.72465 0.30749 0.9366 5.0781-0.31522 11.612-2.645 13.833-3.9874 0.06732-0.04167 0.13828-0.07428 0.20196-0.11051 0.18194-0.10145 0.3366-0.20652 0.46942-0.31522 0.07824-0.41124-0.26018-0.52718-0.33842-0.79168-1.1463-3.9258-2.3708-6.9367-2.8056-10.623-1.1026-9.3371-1.6648-12.103-3.8518-14.506-0.25472-0.2808-0.76417-0.7953-1.0462-1.0109zm-61.692-0.021754c0.47852-0.36776 0.98978-0.72466 1.5174-1.0508-0.67684 0.66669-0.84059 1.7555-0.43303 2.6323 0.04913 0.10688 0.10007 0.2192 0.15465 0.33877 0.0036 0.0091 0.0091 0.01812 0.01274 0.02536 1.7048 3.7337 5.3747 12.187 6.3153 26.618v0.0018c-0.27656 0.65943-0.49307 1.0634-0.79692 1.8424-0.07096 0.18116-0.06186 0.72465-0.30749 0.9366-5.0781-0.31522-11.612-2.645-13.833-3.9874-0.06732-0.04167-0.13828-0.07428-0.20196-0.11051-0.18194-0.10145-0.3366-0.20652-0.46942-0.31522-0.07824-0.41124 0.26018-0.52718 0.33842-0.79168 1.1463-3.9258 2.3708-6.9367 2.8056-10.623 1.1026-9.3371 1.6648-12.103 3.8518-14.506 0.25472-0.2808 0.76417-0.7953 1.0462-1.0109z" fill="#0ff"/>
				<path id="bordes" class="bordes" d="m65.449 40.836c0.09643 0.50363 0.3366 0.77175 0.46578 1.0127 0.35843 0.66849 0.36753 1.0254 0.51854 1.2645 0.09097 0.14674 0.24017 0.26087 0.41302 0.26268 3.9118 0.06341 10.267-2.1123 12.46-3.3261 0.06004-0.03261 0.49489-0.31341 0.54948-0.34602 0.7951-0.44928 0.90609-0.80979 0.75508-1.3623-0.07642-0.27899-0.26018-0.40399-0.42939-1.154-0.05458-0.23913-0.03093-0.68841-0.22743-0.7645-0.13282 0.1087-0.28929 0.21196-0.46942 0.31522-0.06368 0.03623-0.13464 0.07065-0.20196 0.11051-1.8522 1.1341-7.8528 3.4874-13.833 3.9874zm-48.767-0.02175c-0.09643 0.50363-0.3366 0.77175-0.46578 1.0127-0.35843 0.66849-0.36753 1.0254-0.51854 1.2645-0.09097 0.14674-0.24017 0.26087-0.41302 0.26268-3.9118 0.06341-10.267-2.1123-12.46-3.3261-0.06004-0.03261-0.49489-0.31341-0.54948-0.34602-0.7951-0.44928-0.90609-0.80979-0.75508-1.3623 0.07642-0.27899 0.26018-0.40399 0.42939-1.154 0.05458-0.23913 0.03093-0.68841 0.22743-0.7645 0.13282 0.1087 0.28929 0.21196 0.46942 0.31522 0.06368 0.03623 0.13464 0.07065 0.20196 0.11051 1.8522 1.1341 7.8528 3.4874 13.833 3.9874z" fill="#008080"/>
				<path id="cuello" class="cuello" transform="matrix(.18195 0 0 .18116 1.2131 -1.828)" d="m285.2 1.97c-0.36-0.02-0.83 0.2-1.35 0.59l0.01-0.01001c-6.97 5.62-26.5 16.98-64.3 17.01h-0.96c-37.8-0.03-57.33-11.38-64.3-17.01v0.01001c-0.52-0.39-0.99-0.61-1.35-0.59-1.22 0.08-1.22 3.01 2.3 12.14 0.21 0.54 0.43 1.1 0.66 1.69 0 0.01 0.01 0.02 0.01 0.03 0.23 0.56 0.47 1.12 0.7 1.69 0.37 0.87 0.89 2.06 1.54 3.59 0.06 0.13 0.12 0.27 0.18 0.4 0.11 0.23 0.22 0.46 0.35 0.7 0.03 0.06 0.06 0.15 0.11 0.22 0.34 0.17 0.69 0.33 1.04 0.5 1.2566 0.59083 2.5046 1.1272 3.72 1.65 12.178 5.1236 30.05 9.72 54.98 9.74h1.06c24.93-0.03 42.8-4.62 54.98-9.74 1.2565-0.53479 2.6152-1.1464 3.72-1.65 0.35-0.17 0.7-0.33 1.04-0.5l0.11-0.22c0.13-0.25 0.24-0.47 0.35-0.7 0.06-0.13 0.12-0.27 0.18-0.4 0.66-1.53 1.17-2.72 1.54-3.59 0.23-0.56 0.47-1.12 0.7-1.69 0-0.01 0.01-0.02 0.01-0.03 0.24-0.59 0.45-1.14 0.66-1.69 3.53-9.13 3.53-12.06 2.31-12.14zm14.34 9.42c-1.71 8.18-9.84 41.13-45.89 57.49-12.37 5.62-23.96 7.61-34.18 7.62h-0.77c-10.22-0.01-21.81-2-34.18-7.62-36.05-16.36-44.18-49.31-45.89-57.49 2.48-2.1 6.54-5.37 8.4-7.21 1.16-1.14 2.09-2.12 2.65-2.78 0.43-0.51 1-0.76001 1.59-0.79001 0.34-0.02 0.6 0.080014 0.81 0.17001 0.24 0.1 0.47 0.24 0.66 0.43h0.01c0.5 0.46 1 0.88999 1.56 1.34l0.01 0.02002c-2.36-1.77-3.75-0.17001 1.62 13.24 0.01 0.03 0.02 0.0599 0.04 0.1099 0.23 0.62 1.01 2.38 2.31 5.44 0.02 0.06 0.05 0.1101 0.08 0.1701 0.11 0.23 0.23 0.4599 0.35 0.6999 0.03 0.07 0.07 0.16 0.12 0.25 1.36 2.74 3.27 6.12 5.82 9.75 0.50458 0.70978 1.0626 1.4615 1.51 2.07 2.8116 3.7627 5.9539 7.157 9.36 10.29 0.7 0.64 1.42 1.2699 2.17 1.8899 0.2 0.18 0.41 0.34 0.63 0.51 2.86 2.34 6.05 4.5701 9.61 6.6001 4.5 2.56 11.31 4.75 19.18 5.91 0.01 0 0.03 0.01 0.04 0.01 5.47 1 18.4 1 23.87 0 0.01 0 0.03-0.01 0.04-0.01 7.87-1.17 14.68-3.35 19.18-5.91 3.49-1.99 6.65-4.1801 9.48-6.4901 4.2327-3.4206 7.9581-7.3143 11.31-11.52 0.84-1.07 1.62-2.1201 2.36-3.1601 0.04-0.06 0.09-0.13 0.13-0.19 2.55-3.63 4.46-7.01 5.82-9.75 0.05-0.08 0.09-0.18 0.12-0.25 0.13-0.25 0.24-0.4699 0.35-0.6999 0.03-0.06 0.06-0.1101 0.08-0.1701 1.31-3.05 2.08-4.82 2.31-5.44 0.02-0.04 0.03-0.0799 0.04-0.1099 5.37-13.41 3.98-15.01 1.62-13.24l0.01-0.02002c0.56-0.45 1.07-0.87999 1.56-1.34h0.01c0.2-0.19 0.42-0.33 0.67-0.43 0.21-0.09 0.46-0.19001 0.8-0.17001 0.59 0.04 1.16 0.29001 1.59 0.79001 0.56 0.66 1.49 1.65 2.65 2.78 1.84 1.84 5.9 5.11 8.38 7.21z" fill="#008080"/>
			</g>
			<g id="sombras">
				<path id="sombra completo" transform="matrix(.18195 0 0 .18116 1.2131 -1.828)" d="m151 2.7644e-4 -1.5195 0.99838-8.0009 7.5021-7.998 7.4992-14.502 9.4988-13 7.5021-48 23.499-0.13917 0.0599s-5.7117 3.7691-8.3417 5.7991c-1.55 1.19-4.3486 4.0324-5.7486 5.5824-12.02 13.26-15.111 28.53-21.171 80.07-2.39 20.35-9.1195 36.969-15.42 58.639-0.43 1.46-2.2904 2.1-1.8603 4.37-1.08 0.42-0.94971 2.8989-1.2497 4.2189-0.93 4.14-1.9402 4.8296-2.3602 6.3696-0.83 3.05-0.22045 5.0421 4.1495 7.5221 0.3 0.18 2.692 1.7283 3.022 1.9083 12.05 6.7 46.978 18.712 68.477 18.362 0.95-0.01 1.7722-0.64193 2.2722-1.4519 0.83-1.32 0.87874-3.2901 2.8487-6.9801 0.71-1.33 2.029-2.8081 2.559-5.5881 1.35-1.17 1.3028-4.1716 1.6928-5.1716 1.67-4.3 4.3796-10.169 4.3796-10.169v-9e-3l0.88899 5.9674 1.9995 19.001v19.001l0.99975 21v72l-0.99975 23-9.0006 83.501-3.4991 54.999-0.99975 7.4992-0.49988 4.5012v8.9997l-0.99976 3.0008-0.99975 2.998v3.0008l1.9995 2.4988 6.0014 2.0025 10.997 1.4976 8.0009 1.0012 7.0011-0.49919 8.4979-0.50204 9.0006-0.49919 15.002-0.99837 66.998 3.5h17.002l18.498-1.0012 38.502-2.2506h20.501l14.499 1.2494 11.5 1.0012 12-1.0012 8.5008-1.2494 6.9983-3.249 0.99975-3.9992-1.9995-6.0017v-6.5009l-1.4996-10.5-1.4996-23.499-1.4996-24.999-1.4996-23-3.502-24.999-1.9995-18.501-0.99976-9.4988-0.99975-13.752-0.99976-13.749-0.49987-12.5 0.49987-15.501-0.49987-10.001v-9.998l-0.49988-6.5009v-24.001l0.99975-14 0.75834-14.499v-19.999l2.9112-22.295c1.2174 2.785 2.2954 4.9825 3.7093 8.6231 0.39001 1 0.33992 4.0016 1.6899 5.1716 0.52999 2.78 1.8519 4.2609 2.5619 5.5909 1.97 3.69 2.0187 5.6601 2.8487 6.9801 0.49998 0.81 1.3193 1.4391 2.2693 1.4491 21.5 0.35002 56.43-11.662 68.48-18.362 0.32999-0.18 2.7192-1.7283 3.0192-1.9083 4.37-2.48 4.9824-4.4692 4.1524-7.5192-0.42001-1.54-1.4302-2.2325-2.3602-6.3725-0.29998-1.32-0.16969-3.7988-1.2497-4.2188 0.43001-2.27-1.4303-2.91-1.8603-4.37-6.3-21.67-13.032-38.289-15.422-58.639-6.06-51.54-9.1481-66.81-21.168-80.07-1.4-1.55-4.2014-4.3924-5.7514-5.5824-2.9337-2.0537-5.6703-4.1063-8.0889-5.9784l-42.001-20.501-23-12.999-14.999-10.999-7.501-6.5009-3.4793-3.4601-1.4996-1.5004-0.99976-0.49919-1.4996 0.49919-1.4996 1.5004-4.0019 3.0008-5.4986 2.998-7.0011 3.5-11.5 3.5-6.9983 1.5004-5.5015 1.0012-4.4989 0.49919-7.501 1.0012h-19.501l-8.9978-0.50204-11.5-1.4976-8.5008-2.0025-6.5012-1.4976-7.998-3.0008-6.0014-3.0008-5.4986-3.5-4.0019-3.0408z" fill="#ccc" fill-opacity=".3" filter="url(#filter2535)" style="mix-blend-mode:normal"/>
				<path id="sombra torso" transform="matrix(.18195 0 0 .18116 1.2131 -1.828)" d="m105.98 33 13-7.5 14.5-9.5 16-15 1.52-1 2 1 4 3.04 5.5 3.5 6 3 8 3 6.5 1.5 8.5 2 11.5 1.5 9 0.5h19.5l7.5-1 4.5-0.5 5.5-1 7-1.5 11.5-3.5 7-3.5 5.5-3 4-3 1.5-1.5 1.5-0.5 1 0.5 1.5 1.5 3.48 3.46 7.5 6.5 15 11 23 13 42 20.5 2 3.5 1 4.5v4l-11.5 28-9.5 29-7 30.5-5.5 33-2.24 32-3 23v20l-0.76 14.5-1 14v24l0.5 6.5v10l0.5 10-0.5 15.5 0.5 12.5 2 27.5 1 9.5 2 18.5 3.5 25 1.5 23 1.5 25 1.5 23.5 1.5 10.5v6.5l2 6-1 4-7 3.25-8.5 1.25-12 1-11.5-1-14.5-1.25h-20.5l-38.5 2.25-18.5 1h-17l-67-3.5-15 1-9 0.5-8.5 0.5-7 0.5-8-1-11-1.5-6-2-2-2.5v-3l2-6v-9l0.5-4.5 1-7.5 3.5-55 9-83.5 1-23v-72l-1-21v-19l-2-19-4.5-40.5-9-49.5-9-30-11.5-28-3-8.5-1-4.5 1-4 3-4.5z" fill="url(#radialGradient13426)" opacity=".5"/>
				<path id="sombra manga derecha" d="m65.915 41.848c0.35843 0.66849 0.36753 1.0254 0.51854 1.2645 0.09097 0.14674 0.24017 0.26087 0.41302 0.26268 3.9118 0.06341 10.267-2.1123 12.46-3.3261 0.06004-0.03261 0.49489-0.31341 0.54948-0.34602 0.7951-0.44928 0.90609-0.80979 0.75508-1.3623-0.07642-0.27899-0.26018-0.40399-0.42939-1.154-0.05458-0.23913-0.03093-0.68841-0.22743-0.7645 0.07824-0.41124-0.26018-0.52718-0.33842-0.79168-1.1463-3.9258-2.3708-6.9367-2.8056-10.623-1.1026-9.3371-1.6648-12.103-3.8518-14.506-0.25472-0.2808-0.76417-0.7953-1.0462-1.0109l4e-6 1.4e-5c-0.47852-0.36776-0.98978-0.72466-1.5174-1.0508 0.67684 0.66669 0.84059 1.7555 0.43303 2.6323-0.04913 0.10688-0.10007 0.2192-0.15465 0.33877-0.0036 0.0091-0.0091 0.01812-0.01274 0.02536-1.7048 3.7337-5.3747 12.187-6.3153 26.618v0.0018c0.27656 0.65943 0.49307 1.0634 0.79692 1.8424 0.07096 0.18116 0.06186 0.72465 0.30749 0.9366 0.09643 0.50363 0.3366 0.77175 0.46578 1.0127z" fill="url(#radialGradient11949)" opacity=".5" stroke="#000" stroke-width=".18155"/>
				<path id="sombra manga izquierda" d="m16.216 41.826c-0.35843 0.66849-0.36753 1.0254-0.51854 1.2645-0.09097 0.14674-0.24017 0.26087-0.41302 0.26268-3.9118 0.06341-10.267-2.1123-12.46-3.3261-0.06004-0.03261-0.49489-0.31341-0.54948-0.34602-0.7951-0.44928-0.90609-0.80979-0.75508-1.3623 0.07642-0.27899 0.26018-0.40399 0.42939-1.154 0.05458-0.23913 0.03093-0.68841 0.22743-0.7645-0.07824-0.41124 0.26018-0.52718 0.33842-0.79168 1.1463-3.9258 2.3708-6.9367 2.8056-10.623 1.1026-9.3371 1.6648-12.103 3.8518-14.506 0.25472-0.2808 0.76417-0.7953 1.0462-1.0109l-4e-6 1.4e-5c0.47852-0.36776 0.98978-0.72466 1.5174-1.0508-0.67684 0.66669-0.84059 1.7555-0.43303 2.6323 0.04913 0.10688 0.10007 0.2192 0.15465 0.33877 0.0036 0.0091 0.0091 0.01812 0.01274 0.02536 1.7048 3.7337 5.3747 12.187 6.3153 26.618v0.0018c-0.27656 0.65943-0.49307 1.0634-0.79692 1.8424-0.07096 0.18116-0.06186 0.72465-0.30749 0.9366-0.09643 0.50363-0.3366 0.77175-0.46578 1.0127z" fill="url(#radialGradient13436)" opacity=".5" stroke="#000" stroke-width=".18155"/>
				<path id="sombra cuello" transform="matrix(.18195 0 0 .18116 1.2131 -1.828)" d="m154.3 2.55c6.97 5.63 26.5 16.98 64.3 17.01h0.96c37.8-0.03 58.167-12.075 65.137-17.695-1.9296 1.5637 0.76769-0.58679 1.4233-1.0849 0.21-0.09 0.46-0.19001 0.8-0.17001 0.59 0.04 1.16 0.29001 1.59 0.79001 0.56 0.66 1.49 1.65 2.65 2.78 1.84 1.84 5.9 5.11 8.38 7.21-1.71 8.18-9.84 41.13-45.89 57.49-12.37 5.62-23.96 7.61-34.18 7.62h-0.77c-10.22-0.01-21.81-2-34.18-7.62-36.05-16.36-44.18-49.31-45.89-57.49 2.48-2.1 6.54-5.37 8.4-7.21 1.16-1.14 2.09-2.12 2.65-2.78 0.43-0.51 1-0.76001 1.59-0.79001 0.34-0.02 0.6 0.080014 0.81 0.17001 0.24 0.1 0.66 0.43 0.66 0.43z" fill="url(#radialGradient21406)" opacity=".8"/>
			</g>
			<g id="contornos">
				<path id="contorno completo" transform="matrix(.18195 0 0 .18116 1.2131 -1.828)" d="m285.2 1.97c-0.36-0.02-0.83 0.2-1.35 0.59l0.01-0.01001c-6.97 5.62-26.5 16.98-64.3 17.01h-0.96c-37.8-0.03-57.33-11.38-64.3-17.01v0.01001c-0.52-0.39-0.99-0.61-1.35-0.59-1.22 0.08-1.22 3.01 2.3 12.14 0.21 0.54 0.43 1.1 0.66 1.69 0 0.01 0.01 0.02 0.01 0.03 0.23 0.56 0.47 1.12 0.7 1.69 0.37 0.87 0.89 2.06 1.54 3.59 0.06 0.13 0.12 0.27 0.18 0.4 0.11 0.23 0.22 0.46 0.35 0.7 0.03 0.06 0.06 0.15 0.11 0.22 0.34 0.17 0.69 0.33 1.04 0.5 1.2566 0.59083 2.5046 1.1272 3.72 1.65 12.178 5.1236 30.05 9.72 54.98 9.74h1.06c24.93-0.03 42.8-4.62 54.98-9.74 1.2565-0.53479 2.6152-1.1464 3.72-1.65 0.35-0.17 0.7-0.33 1.04-0.5l0.11-0.22c0.13-0.25 0.24-0.47 0.35-0.7 0.06-0.13 0.12-0.27 0.18-0.4 0.66-1.53 1.17-2.72 1.54-3.59 0.23-0.56 0.47-1.12 0.7-1.69 0-0.01 0.01-0.02 0.01-0.03 0.24-0.59 0.45-1.14 0.66-1.69 3.53-9.13 3.53-12.06 2.31-12.14zm14.34 9.42c-1.71 8.18-9.84 41.13-45.89 57.49-12.37 5.62-23.96 7.61-34.18 7.62h-0.77c-10.22-0.01-21.81-2-34.18-7.62-36.05-16.36-44.18-49.31-45.89-57.49 2.48-2.1 6.54-5.37 8.4-7.21 1.16-1.14 2.09-2.12 2.65-2.78 0.43-0.51 1-0.76001 1.59-0.79001 0.34-0.02 0.6 0.080014 0.81 0.17001 0.24 0.1 0.47 0.24 0.66 0.43h0.01c0.5 0.46 1 0.88999 1.56 1.34l0.01 0.02002c-2.36-1.77-3.75-0.17001 1.62 13.24 0.01 0.03 0.02 0.0599 0.04 0.1099 0.23 0.62 1.01 2.38 2.31 5.44 0.02 0.06 0.05 0.1101 0.08 0.1701 0.11 0.23 0.23 0.4599 0.35 0.6999 0.03 0.07 0.07 0.16 0.12 0.25 1.36 2.74 3.27 6.12 5.82 9.75 0.50458 0.70978 1.0626 1.4615 1.51 2.07 2.8116 3.7627 5.9539 7.157 9.36 10.29 0.7 0.64 1.42 1.2699 2.17 1.8899 0.2 0.18 0.41 0.34 0.63 0.51 2.86 2.34 6.05 4.5701 9.61 6.6001 4.5 2.56 11.31 4.75 19.18 5.91 0.01 0 0.03 0.01 0.04 0.01 5.47 1 18.4 1 23.87 0 0.01 0 0.03-0.01 0.04-0.01 7.87-1.17 14.68-3.35 19.18-5.91 3.49-1.99 6.65-4.1801 9.48-6.4901 4.2327-3.4206 7.9581-7.3143 11.31-11.52 0.84-1.07 1.62-2.1201 2.36-3.1601 0.04-0.06 0.09-0.13 0.13-0.19 2.55-3.63 4.46-7.01 5.82-9.75 0.05-0.08 0.09-0.18 0.12-0.25 0.13-0.25 0.24-0.4699 0.35-0.6999 0.03-0.06 0.06-0.1101 0.08-0.1701 1.31-3.05 2.08-4.82 2.31-5.44 0.02-0.04 0.03-0.0799 0.04-0.1099 5.37-13.41 3.98-15.01 1.62-13.24l0.01-0.02002c0.56-0.45 1.07-0.87999 1.56-1.34h0.01c0.2-0.19 0.42-0.33 0.67-0.43 0.21-0.09 0.46-0.19001 0.8-0.17001 0.59 0.04 1.16 0.29001 1.59 0.79001 0.56 0.66 1.49 1.65 2.65 2.78 1.84 1.84 5.9 5.11 8.38 7.21zm134.98 205.88c-0.17-0.54001-0.34-1.17-0.49999-1.91-0.29998-1.32-0.16999-3.8-1.25-4.22-0.74 0.6-1.59 1.17-2.59 1.74-0.35 0.19998-0.73001 0.37999-1.1 0.60999-10.18 6.27-43.15 19.25-76.03 22.01 0.52999 2.78 1.86 4.25 2.57 5.58 0.07 0.13 0.12999 0.25 0.20001 0.37 0.39 0.77 0.7 1.46 0.96 2.07h0.42001c0.67001-0.0199 1.43-0.0502 1.92-0.08 26.91-1.74 59.74-13.9 70.57-20.21 0.17-0.10002 0.57-0.33997 0.98001-0.6 0.44002-0.26998 0.91-0.56 1.07-0.65 0.93-0.53002 2.63-1.86 3.59-2.63-0.27002-0.51998-0.53999-1.18-0.81-2.08zm-81.47 18.23c0.52999 2.78 1.85 4.26 2.56 5.59 1.97 3.69 2.02 5.66 2.85 6.98 0.49999 0.81 1.32 1.44 2.27 1.45 21.5 0.35002 56.43-11.66 68.48-18.36 0.32999-0.18001 2.72-1.73 3.02-1.91 4.37-2.48 4.98-4.47 4.15-7.52-0.42001-1.54-1.43-2.23-2.36-6.37-0.29998-1.32-0.16999-3.8-1.25-4.22-0.72999 0.6-1.59 1.17-2.58 1.74-0.34999 0.19999-0.74 0.38998-1.11 0.61-10.18 6.26-43.16 19.25-76.03 22.01zm35.52-173.02c-2.63-2.03-5.44-4.0001-8.34-5.8001 3.72 3.6801 4.62 9.6901 2.38 14.53-0.27002 0.59-0.55 1.21-0.85 1.87-0.0198 0.05023-0.05 0.10002-0.07 0.13998-9.37 20.61-29.54 67.27-34.71 146.93v0.01c1.52 3.64 2.71 5.87 4.38 10.17 0.39001 1 0.33999 4 1.69 5.17 27.91-1.74 63.82-14.6 76.03-22.01 0.37-0.23001 0.76-0.41002 1.11-0.61 1-0.56 1.85-1.14 2.58-1.74 0.43002-2.27-1.43-2.91-1.86-4.37-6.3-21.67-13.03-38.29-15.42-58.64-6.06-51.54-9.15-66.81-21.17-80.07-1.4-1.55-4.2-4.39-5.75-5.58zm-385.01 154.68c0.17-0.54001 0.33999-1.17 0.49998-1.91 0.29998-1.32 0.17-3.8 1.25-4.22 0.74 0.6 1.59 1.17 2.59 1.74 0.34999 0.19999 0.73 0.37999 1.1 0.61 10.18 6.27 43.15 19.25 76.03 22.01-0.52999 2.78-1.86 4.25-2.57 5.58-0.07002 0.12999-0.12998 0.25-0.2 0.37-0.39001 0.77-0.7 1.46-0.96 2.07h-0.42002c-0.67-0.0199-1.43-0.0502-1.92-0.08-26.91-1.74-59.74-13.9-70.57-20.21-0.17-0.10002-0.57-0.33997-0.98-0.6-0.44002-0.26998-0.91-0.56001-1.07-0.65-0.93-0.53003-2.63-1.86-3.59-2.63 0.27003-0.51998 0.54-1.18 0.81-2.08zm81.46 18.22c-0.52999 2.78-1.85 4.26-2.56 5.59-1.97 3.69-2.02 5.66-2.85 6.98-0.49998 0.81-1.32 1.44-2.27 1.45-21.5 0.35002-56.43-11.66-68.48-18.36-0.32999-0.18001-2.72-1.73-3.02-1.91-4.37-2.48-4.98-4.47-4.15-7.52 0.42002-1.54 1.43-2.23 2.36-6.37 0.29998-1.32 0.17-3.8 1.25-4.22 0.73 0.6 1.59 1.17 2.58 1.74 0.34999 0.19999 0.74 0.38998 1.11 0.61 10.18 6.26 43.16 19.25 76.03 22.01zm-35.52-173.02c2.63-2.03 5.44-4.0001 8.34-5.8001-3.72 3.6801-4.62 9.6901-2.38 14.53 0.27002 0.59 0.55 1.21 0.85 1.87 0.01979 0.05023 0.05002 0.10002 0.07002 0.13999 9.37 20.61 29.54 67.27 34.71 146.93v0.01c-1.52 3.64-2.71 5.87-4.38 10.17-0.39001 1-0.33999 4-1.69 5.17-27.91-1.74-63.82-14.6-76.03-22.01-0.37-0.23001-0.76-0.41002-1.11-0.61-1-0.56-1.85-1.14-2.58-1.74-0.43002-2.27 1.43-2.91 1.86-4.37 6.3-21.67 13.03-38.29 15.42-58.64 6.06-51.54 9.15-66.81 21.17-80.07 1.4-1.55 4.2-4.39 5.75-5.58zm30.33 472.65c1.37 0.97 3.61 1.75 6.31 2.37 2.28 0.52 4.88 0.94 7.58 1.26 2.7 0.33 5.49 0.57 8.1399 0.75 11.98 1.36 30.34-3 53.46-1.66 16.25 0.94 34.86 2.22 55.26 3.13 1.3 0.06 4.96 0.3 8.58 0.29 4.14-0.01 8.3-0.28 10.08-0.36 19.74-0.91 37.78-2.14 53.59-3.06 23.12-1.34 41.48 3.02 53.46 1.66 2.64-0.18 5.44-0.41 8.14-0.75 2.7-0.32 5.31-0.74 7.59-1.26 2.75-0.63 5.01-1.43 6.38-2.42m21.85-478.45c-10.74-6.74-22.48-11.58-27.85-13.95-32.7-14.37-47-26.45-53.19-31.45 0.11 0.09 0.22 0.19 0.32 0.27-1.71 8.18-9.84 41.13-45.89 57.49-12.37 5.62-23.96 7.61-34.18 7.62-0.13 0-0.25-0.0101-0.38-0.0101s-0.25 0.0101-0.38 0.0101c-10.22-0.01-21.81-2-34.18-7.62-36.05-16.36-44.18-49.31-45.89-57.49 0.1-0.09 0.22-0.18 0.32-0.27-6.19 5-20.49 17.08-53.19 31.45-5.36 2.36-17.1 7.21-27.85 13.95-3.72 3.73-4.6199 9.8-2.3799 14.7 0.27 0.6 0.5499 1.2299 0.8499 1.8899 0.02 0.05 0.0501 0.1001 0.0701 0.1401 9.37 20.86 29.54 68.08 34.71 148.69v0.01c0.6 4.79 1.1501 9.69 1.6501 14.71 0.01 0.02 0.0099 0.03 0.0099 0.05 1.76 8.9 1.1901 18.6 1.1901 29.17 0 0 2.19 36.38 0.72 54.36 0.19 11.85-0.5101 22.08-0.1301 34.05 0.28 17.55-1.62 33.97-2.58 48.15-0.97 14.18-3.67 25.4-5.86 47.2-2.7 26.83-1.1699 27.57-4.7899 70.57-0.31 3.73-0.97 11.15-1.54 14.81-0.67 4.26 0.17 4.72-1.21 8.79-0.44 1.29-1.77 3.9 0.35 6.21 1.19 1.29 3.79 2.28 7.09 3.04 4.55 1.05 10.42 1.65 15.72 2.01 11.98 1.37 30.34-3 53.46-1.66 18.48 1.07 40 2.58 63.74 3.49h0.18c23.74-0.91 45.26-2.42 63.74-3.49 23.12-1.34 41.48 3.03 53.46 1.66 5.3-0.35 11.17-0.96 15.72-2.01 3.3-0.76 5.9-1.75 7.09-3.04 2.12-2.31 0.79-4.91 0.35-6.21-1.38-4.07-0.46-4.59-1.12-8.84-0.58-3.66-1.32-11.03-1.63-14.76-3.61-43-2.09-43.73-4.79-70.57-2.18-21.8-4.89-33.02-5.86-47.2-0.96-14.18-2.87-30.6-2.58-48.15 0.38-11.97-0.31-22.2-0.13-34.05-1.47-17.97 0.72-54.36 0.72-54.36 0-10.57-0.57-20.27 1.19-29.17 0-0.02 0-0.03 0.01-0.05 0.49-5.02 1.05-9.93 1.65-14.71v-0.01c5.17-80.61 25.33-127.84 34.71-148.69 0.01-0.05 0.04-0.0901 0.07-0.1401 0.3-0.67 0.58-1.2899 0.85-1.8899 2.25-4.9 1.36-10.98-2.36-14.7z" fill="none" stroke="#000"/>
			</g>
			<g id="detalles" transform="matrix(.18195 0 0 .18116 1.2131 -1.828)" fill="none" opacity=".5">
				<path id="costuras" d="m136.83 17.13c4.05 14.57 15.41 40.51 46.4 54.58 11.51 5.23 23.44 7.88 35.46 7.9h0.76c12.03-0.02 23.96-2.67 35.46-7.9 31.8-14.43 42.93-41.37 46.7-55.69m74.9 40.95c0.75 0.98 1.55 1.7201 1.55 1.7201 2.72 2.69 3.45 7.32 1.74 11.02l-0.84 1.84c-0.04 0.08-0.08 0.16-0.11 0.23-7.96 17.49-28.76 63.31-34.63 143.25-0.09 1.25-0.28 5.47 1.04 8.73m83.47-13.7-0.64 0.35c-0.19 0.1-0.39 0.21-0.57 0.33-5.48 3.37-18.12 8.89-33.95 13.58l-1.66 0.49c-9.66 2.82-23.86 6.34-37.55 7.37m-292.63-175.21c-0.75 0.98-1.55 1.7201-1.55 1.7201-2.72 2.69-3.45 7.32-1.74 11.02l0.84 1.84c0.04 0.08 0.08 0.16 0.11 0.23 7.96 17.49 28.76 63.31 34.63 143.25 0.09 1.25 0.28 5.47-1.04 8.73m-83.38-13.7 0.64 0.35c0.19 0.1 0.39 0.21 0.57 0.33 5.48 3.37 18.12 8.89 33.95 13.58l1.66 0.49c9.66 2.82 23.86 6.34 37.55 7.37m-0.7501 301.31c0.89 0.29 1.87 0.56 2.92 0.8 2.28 0.52 4.88 0.94 7.58 1.26 2.7 0.33 5.49 0.57 8.14 0.75 11.98 1.36 30.34-3 53.46-1.66 16.25 0.94 34.86 2.22 55.26 3.13 1.3 0.06 4.96 0.3 8.58 0.29 4.14-0.01 8.3-0.28 10.08-0.36 19.75-0.91 37.78-2.14 53.59-3.06 23.12-1.34 41.48 3.02 53.46 1.66 2.64-0.18 5.44-0.41 8.14-0.75 2.7-0.32 5.31-0.74 7.59-1.26 1.58-0.36 2.99-0.78 4.17-1.26" fill="none" stroke="#000" stroke-dasharray="5.82933, 1.45733" stroke-width="1.4573"/>
			</g>
			<g id="imagen">
				<path id="espacio imagen" d="m57.136 22.509 0.21863 56.762-32.36-0.24838-0.21863-56.534z" color="#000000" fill="none" mask="url(#mask-powermask-path-effect4288)" stroke-width="1.1908" style="-inkscape-stroke:none"/>
			</g>
			<g id="texto" transform="translate(4.5148,19.015)" fill="#000000" font-family="'Century Schoolbook'" font-weight="bold" stroke="#000000" stroke-width=".1815" text-anchor="middle">
				<text id="text1154" x="36.616711" y="40.438358" font-size="7.7611px" text-align="center" style="font-variant-caps:normal;font-variant-east-asian:normal;font-variant-ligatures:normal;font-variant-numeric:normal" xml:space="preserve"><tspan id="tspan1150" x="36.616711" y="40.438358">SUPER</tspan><tspan id="tspan1152" x="36.616711" y="50.139744">EQUIPO</tspan></text>
				<text id="text1158" transform="translate(-4.5057,-14.857)" x="40.598637" y="42.656906" font-size="22.578px" stroke-width=".52917" text-align="center" style="font-variant-caps:normal;font-variant-east-asian:normal;font-variant-ligatures:normal;font-variant-numeric:normal" xml:space="preserve"><tspan id="tspan1156" x="40.598637" y="42.656906" fill="#000000" font-family="'Century Schoolbook'" font-size="22.578px" font-weight="bold" stroke="#000000" stroke-width=".52917" style="font-variant-caps:normal;font-variant-east-asian:normal;font-variant-ligatures:normal;font-variant-numeric:normal">10</tspan></text>
			</g>
		</g>
	</g>
</svg>
