<svg id="remera" class="classClothes" width="300" height="400" version="1.1" viewBox="0 0 79.375 105.83" xmlns="http://www.w3.org/2000/svg" xmlns:xlink="http://www.w3.org/1999/xlink">
	<defs id="defs2959">
		<linearGradient id="linearGradient13432">
			<stop id="stop2933" stop-color="#fff" stop-opacity="0" offset="0"/>
			<stop id="stop2935" stop-opacity=".68947" offset=".79532"/>
		</linearGradient>
		<radialGradient id="radialGradient11949" cx="66.375" cy="17.927" r="8.2522" gradientTransform="matrix(-.55636 -3.6327 1.9487 -.29845 82.605 284.81)" gradientUnits="userSpaceOnUse" xlink:href="#linearGradient13432"/>
		<radialGradient id="radialGradient13426" cx="217.76" cy="219.92" r="164.75" gradientTransform="matrix(1.0583 .00019382 -.00052472 2.8902 -10.875 -451.04)" gradientUnits="userSpaceOnUse">
			<stop id="stop2939" stop-color="#fff" stop-opacity="0" offset="0"/>
			<stop id="stop2941" offset="1"/>
		</radialGradient>
		<radialGradient id="radialGradient13436" cx="66.375" cy="17.927" r="8.2522" gradientTransform="matrix(.55636 -3.6327 -1.9487 -.29845 -.47416 284.79)" gradientUnits="userSpaceOnUse" xlink:href="#linearGradient13432"/>
		<radialGradient id="radialGradient22425" cx="41.046" cy="6.3152" r="14.411" gradientTransform="matrix(-1.9085 -.024631 .0064841 -.50241 119.32 3.1128)" gradientUnits="userSpaceOnUse">
			<stop id="stop2945" stop-opacity=".7" offset="0"/>
			<stop id="stop2947" stop-color="#333" stop-opacity="0" offset="1"/>
		</radialGradient>
		<mask id="mask-powermask-path-effect4300" maskUnits="userSpaceOnUse">
			<path id="mask-powermask-path-effect4300_box" d="m23.776 21.489h34.579v58.782h-34.579z" fill="#fff"/>
			<path id="path2951" d="m23.776 21.489h34.579v58.782h-34.579z" fill="#fff"/>
			<path id="path2953" d="m52.393 46.857q0-0.33864-0.18806-0.53873-0.18805-0.2001-0.44744-0.2001-0.23344 0-0.35017 0.15392-0.01297 0.0154-0.49283 0.36942t-1.3942 0.76962q-0.91433 0.4156-2.2437 0.75423t-3.0413 0.33863q-1.2191 0-2.516-0.18471t-2.6717-0.56952q-1.3747-0.4002-2.529-0.86967t-2.101-1.0544q-0.11672-0.07696-0.29829-0.07696-0.25938 0-0.44095 0.2078t-0.18157 0.54643q0 0.46177 0.36314 0.67726 2.7235 1.6162 6.2901 2.355v1.7393q0.19454 2.4936 1.1802 4.0328 0.95972 1.5085 2.4771 1.5085 0.58362 0 1.0829-0.26937 0.49931-0.26937 0.88839-0.78501t0.64846-1.2468q0.25939-0.73114 0.37611-1.6547v-3.0785q0.93378-0.10775 1.8222-0.4079 0.88839-0.30015 1.6082-0.65418 0.71979-0.35402 1.2256-0.69266 0.5058-0.33863 0.68737-0.53873 0.24641-0.2155 0.24641-0.63109zm-17.223-5.3412q0 0.38481 0.10375 0.73884t0.29829 0.62339q0.19454 0.26937 0.47337 0.43099 0.27884 0.16162 0.62901 0.16162 0.83003 0 1.4785-0.83119 0.63549-0.8004 0.63549-1.8933 0-0.38481-0.10375-0.73883t-0.29829-0.63109q-0.19454-0.27706-0.47338-0.43868t-0.629-0.16162q-0.83003 0-1.4785 0.8158-0.63549 0.8158-0.63549 1.924zm10.609 1.57q0 0.24628 0.07782 0.34633t0.26587 0.12314q0.18805 0.0231 0.49931 0.0231t0.76518 0.03849q0.45392 0.03849 1.0635 0.15392 0.60955 0.11544 1.4136 0.37712l0.11672 0.0154q0.14266 0 0.26587-0.14623t0.12321-0.36172-0.14266-0.34633q-0.14266-0.13083-0.47986-0.22319-0.3372-0.09235-0.86894-0.18471-0.53174-0.09235-1.3099-0.21549 0.51877-0.30785 1.1218-0.608 0.60307-0.30015 1.2904-0.608 0.28532-0.09235 0.28532-0.46177 0-0.2155-0.12321-0.35403t-0.27884-0.13853q-0.20751 0-1.5693 0.69266-0.68737 0.35402-1.2645 0.71575-0.57713 0.36172-1.057 0.76193-0.19454 0.13853-0.19454 0.4002zm9.9344 5.7568q0 0.49256-0.02593 1.0159t-0.06485 1.0467q-0.46689 0.66187-1.6341 1.1698-0.58362 0.26167-1.3164 0.49256t-1.6276 0.44638q-0.88191 0.2001-1.7638 0.33863-0.88191 0.13853-1.7768 0.2155-0.83003 4.1713-3.6962 4.1713-3.0218 0-4.0853-3.9097-2.6587-0.12314-4.7597-0.36942t-3.4368-0.6157q-1.3229-0.36942-2.2437-0.78501-0.46689-0.2155-0.843-0.4156t-0.68737-0.38481q-0.57064-0.35402-1.3099-1.1544-0.03891-0.15392-0.06485-0.50025t-0.02594-0.90046q0-0.92354 0.11024-1.7778 0.11024-0.85428 0.32423-1.6855t0.53174-1.6624q0.31774-0.83119 0.73276-1.7086 0.42798-0.89276 0.99214-1.7393 0.56416-0.84658 1.245-1.6085t1.459-1.4161 1.6082-1.1621l-1.7508-6.08-0.05187-0.4156q0-0.49256 0.27884-0.87737t0.74573-0.38481q0.3372 0 0.62901 0.23089t0.39556 0.63109l1.673 5.8953q2.3734-1.0775 5.3563-1.0775 1.1543 0 2.2048 0.12314t2.0232 0.35403q1.9194 0.47716 4.1112 1.7547l1.5693-5.4335q0.10375-0.38481 0.3761-0.6157t0.60955-0.23089q0.23345 0 0.42799 0.10775t0.33071 0.28476q0.13618 0.17701 0.21399 0.4002 0.07782 0.22319 0.07782 0.46947l-0.05187 0.4002-1.7249 6.003q1.284 1.1544 2.2113 2.4012t1.5304 2.6398q0.60307 1.393 0.88839 2.9553t0.28532 3.3632z" fill="currentColor" stroke-width=".014129"/>
		</mask>
		<filter id="filter2535-9" x="-.0034166" y="-.0026727" width="1.0068" height="1.0053" color-interpolation-filters="sRGB">
			<feGaussianBlur id="feGaussianBlur2956" stdDeviation="0.61972863"/>
		</filter>
	</defs>
	<g id="corte 2" class="cutClothes">
		<g id="dorsal" class="viewClothes">
			<g id="color" class="colors" transform="translate(-1.3872 2.0367)">
				<path id="torso" class="torso" transform="matrix(.18195 0 0 .18116 1.2131 -1.828)" d="m81.98 44.75 30.5-15.5 21-13.25 6.1033-5.5726 4.7201 3.528 5.1549 3.1143 6.113 3.8 7.9887 3.7103 8.5539 3.2716 8.7597 2.4139 9.7243 1.8861 12.287 1.5155 10.248 0.51009 10.559 0.03294 10.754-0.47996 10.419-1.1679 9.4041-1.8005 6.6966-1.7064 7.3041-2.2431 11.77-4.9448 7.0257-3.8414 5.8021-3.7807 5.1292-4.3895 9.983 7.6443 19 12 24.715 12.95 28.785 14.05 2 3.5 1 4.5v4l-11.5 28-9.5 29-7 30.5-5.5 33-2.24 32-3 23v20l-0.76 14.5-1 14v24l0.5 6.5v10l0.5 10-0.5 15.5 0.5 12.5 2 27.5 1 9.5 2 18.5 3.5 25 1.5 23 1.5 25 1.5 23.5 1.5 10.5v6.5l2 6-1 4-7 3.25-8.5 1.25-12 1-11.5-1-14.5-1.25h-20.5l-38.5 2.25-18.5 1h-17l-67-3.5-15 1-9 0.5-8.5 0.5-7 0.5-8-1-11-1.5-6-2-2-2.5v-3l2-6v-9l0.5-4.5 1-7.5 3.5-55 9-83.5 1-23v-72l-1-21v-19l-2-19-4.5-40.5-9-49.5-9-30-11.5-28-3-8.5-1-4.5 1-4 3-4.5z" fill="#f00"/>
				<path id="franja" class="franja" d="m21.929 3.5561-0.82429 0.46088-0.83789 0.44551-0.65155 0.33209-0.91384 0.44674-0.96386 0.44943-0.86833 0.38761-0.98562 0.42912-0.91814 0.41423-0.8191 0.39144 51.171 72.581-0.13693-1.2826-0.10246-0.84446-0.12819-0.96986-0.15766-1.1088-0.17022-1.1604-0.16833-1.2113-0.12814-1.1043-0.07988-0.94033-0.08779-1.1772-0.06969-0.86266-0.1082-1.3592-0.07537-1.0533-0.06264-1.0584-0.03475-0.77044-0.0297-1.0629-0.0056-0.9841zm1.2584-0.75399-0.213 0.13238-0.23465 0.14348-0.20587 0.12311c7.6499 10.851 41.268 58.536 41.268 58.536l-0.01144-1.3375s-33.029-46.852-40.603-57.597zm-9.6734 4.8312-0.33751 0.17833-0.34052 0.18587 52.727 74.789-0.01236-0.18625-0.01412-0.20386-0.01331-0.1845-0.0134-0.17911-0.01382-0.17861-0.01422-0.17807-0.01412-0.17173-0.01665-0.19674z" fill="#0ff"/>
				<path id="mangas" class="mangas" d="m71.912 9.491c-0.47852-0.36776-0.98978-0.72466-1.5174-1.0508 0.67684 0.66669 0.84059 1.7555 0.43303 2.6323-0.04913 0.10688-0.10007 0.2192-0.15465 0.33877-0.0036 0.0091-0.0091 0.01812-0.01274 0.02536-1.7048 3.7337-5.3747 12.187-6.3153 26.618v0.0018c0.27656 0.65943 0.49307 1.0634 0.79692 1.8424 0.07096 0.18116 0.06186 0.72465 0.30749 0.9366 5.0781-0.31522 11.612-2.645 13.833-3.9874 0.06732-0.04167 0.13828-0.07428 0.20196-0.11051 0.18194-0.10145 0.3366-0.20652 0.46942-0.31522 0.07824-0.41124-0.26018-0.52718-0.33842-0.79168-1.1463-3.9258-2.3708-6.9367-2.8056-10.623-1.1026-9.3371-1.6648-12.103-3.8518-14.506-0.25472-0.2808-0.76417-0.7953-1.0462-1.0109zm-61.692-0.021754c0.47852-0.36776 0.98978-0.72466 1.5174-1.0508-0.67684 0.66669-0.84059 1.7555-0.43303 2.6323 0.04913 0.10688 0.10007 0.2192 0.15465 0.33877 0.0036 0.0091 0.0091 0.01812 0.01274 0.02536 1.7048 3.7337 5.3747 12.187 6.3153 26.618v0.0018c-0.27656 0.65943-0.49307 1.0634-0.79692 1.8424-0.07096 0.18116-0.06186 0.72465-0.30749 0.9366-5.0781-0.31522-11.612-2.645-13.833-3.9874-0.06732-0.04167-0.13828-0.07428-0.20196-0.11051-0.18194-0.10145-0.3366-0.20652-0.46942-0.31522-0.07824-0.41124 0.26018-0.52718 0.33842-0.79168 1.1463-3.9258 2.3708-6.9367 2.8056-10.623 1.1026-9.3371 1.6648-12.103 3.8518-14.506 0.25472-0.2808 0.76417-0.7953 1.0462-1.0109z" fill="#0ff"/>
				<path id="bordes" class="bordes" d="m65.449 40.836c0.09643 0.50363 0.3366 0.77175 0.46578 1.0127 0.35843 0.66849 0.36753 1.0254 0.51854 1.2645 0.09097 0.14674 0.24017 0.26087 0.41302 0.26268 3.9118 0.06341 10.267-2.1123 12.46-3.3261 0.06004-0.03261 0.49489-0.31341 0.54948-0.34602 0.7951-0.44928 0.90609-0.80979 0.75508-1.3623-0.07642-0.27899-0.26018-0.40399-0.42939-1.154-0.05458-0.23913-0.03093-0.68841-0.22743-0.7645-0.13282 0.1087-0.28929 0.21196-0.46942 0.31522-0.06368 0.03623-0.13464 0.07065-0.20196 0.11051-1.8522 1.1341-7.8528 3.4874-13.833 3.9874zm-48.767-0.02175c-0.09643 0.50363-0.3366 0.77175-0.46578 1.0127-0.35843 0.66849-0.36753 1.0254-0.51854 1.2645-0.09097 0.14674-0.24017 0.26087-0.41302 0.26268-3.9118 0.06341-10.267-2.1123-12.46-3.3261-0.06004-0.03261-0.49489-0.31341-0.54948-0.34602-0.7951-0.44928-0.90609-0.80979-0.75508-1.3623 0.07642-0.27899 0.26018-0.40399 0.42939-1.154 0.05458-0.23913 0.03093-0.68841 0.22743-0.7645 0.13282 0.1087 0.28929 0.21196 0.46942 0.31522 0.06368 0.03623 0.13464 0.07065 0.20196 0.11051 1.8522 1.1341 7.8528 3.4874 13.833 3.9874z" fill="#008080"/>
				<path id="cuello" class="cuello" d="m28.687-1.828c2.6382 1.6377 3.184 1.9094 5.8223 2.7247 2.5927 0.49819 3.6389 0.63407 6.4428 0.68078 3.0639-0.046712 4.1556-0.18258 6.8393-0.68078 2.7292-0.9511 3.366-1.2681 5.6403-2.7174l2.0009 1.7782c-0.97128 1.0014-2.5616 1.848-4.2606 2.6675-2.2349 0.83142-4.6087 1.4682-7.3021 1.6577-1.5158 0.081554-2.9747 0.17531-5.7425-0.011426-2.7283-0.24836-5.1624-0.75413-7.155-1.6462-2.1211-0.92611-2.7801-1.3644-4.3625-2.5639z" fill="#008080"/>
			</g>
			<g id="sombras" transform="translate(-1.3872,2.0367)">
				<path id="sombra completo" transform="matrix(.18195 0 0 .18116 1.2131 -1.828)" d="m151 2.7644e-4 -1.5195 0.99838-8.0009 7.5021-7.998 7.4992-14.502 9.4988-13 7.5021-48 23.499-0.13917 0.0599s-5.7117 3.7691-8.3417 5.7991c-1.55 1.19-4.3486 4.0324-5.7486 5.5824-12.02 13.26-15.111 28.53-21.171 80.07-2.39 20.35-9.1195 36.969-15.42 58.639-0.43 1.46-2.2904 2.1-1.8603 4.37-1.08 0.42-0.94971 2.8989-1.2497 4.2189-0.93 4.14-1.9402 4.8296-2.3602 6.3696-0.83 3.05-0.22045 5.0421 4.1495 7.5221 0.3 0.18 2.692 1.7283 3.022 1.9083 12.05 6.7 46.978 18.712 68.477 18.362 0.95-0.01 1.7722-0.64193 2.2722-1.4519 0.83-1.32 0.87874-3.2901 2.8487-6.9801 0.71-1.33 2.029-2.8081 2.559-5.5881 1.35-1.17 1.3028-4.1716 1.6928-5.1716 1.67-4.3 4.3796-10.169 4.3796-10.169v-9e-3l0.88899 5.9674 1.9995 19.001v19.001l0.99975 21v72l-0.99975 23-9.0006 83.501-3.4991 54.999-0.99975 7.4992-0.49988 4.5012v8.9997l-0.99976 3.0008-0.99975 2.998v3.0008l1.9995 2.4988 6.0014 2.0025 10.997 1.4976 8.0009 1.0012 7.0011-0.49919 8.4979-0.50204 9.0006-0.49919 15.002-0.99837 66.998 3.5h17.002l18.498-1.0012 38.502-2.2506h20.501l14.499 1.2494 11.5 1.0012 12-1.0012 8.5008-1.2494 6.9983-3.249 0.99975-3.9992-1.9995-6.0017v-6.5009l-1.4996-10.5-1.4996-23.499-1.4996-24.999-1.4996-23-3.502-24.999-1.9995-18.501-0.99976-9.4988-0.99975-13.752-0.99976-13.749-0.49987-12.5 0.49987-15.501-0.49987-10.001v-9.998l-0.49988-6.5009v-24.001l0.99975-14 0.75834-14.499v-19.999l2.9112-22.295c1.2174 2.785 2.2954 4.9825 3.7093 8.6231 0.39001 1 0.33992 4.0016 1.6899 5.1716 0.52999 2.78 1.8519 4.2609 2.5619 5.5909 1.97 3.69 2.0187 5.6601 2.8487 6.9801 0.49998 0.81 1.3193 1.4391 2.2693 1.4491 21.5 0.35002 56.43-11.662 68.48-18.362 0.32999-0.18 2.7192-1.7283 3.0192-1.9083 4.37-2.48 4.9824-4.4692 4.1524-7.5192-0.42001-1.54-1.4302-2.2325-2.3602-6.3725-0.29998-1.32-0.16969-3.7988-1.2497-4.2188 0.43001-2.27-1.4303-2.91-1.8603-4.37-6.3-21.67-13.032-38.289-15.422-58.639-6.06-51.54-9.1481-66.81-21.168-80.07-1.4-1.55-4.2014-4.3924-5.7514-5.5824-2.9337-2.0537-5.6703-4.1063-8.0889-5.9784l-42.001-20.501-23-12.999-14.999-10.999-7.501-6.5009-3.4793-3.4601-1.4996-1.5004-0.99976-0.49919-1.4996 0.49919-1.4996 1.5004-4.0019 3.0008-5.4986 2.998-7.0011 3.5-11.5 3.5-6.9983 1.5004-5.5015 1.0012-4.4989 0.49919-7.501 1.0012h-19.501l-8.9978-0.50204-11.5-1.4976-8.5008-2.0025-6.5012-1.4976-7.998-3.0008-6.0014-3.0008-5.4986-3.5-4.0019-3.0408z" fill="#ccc" fill-opacity=".3" filter="url(#filter2535-9)" style="mix-blend-mode:normal"/>
				<path id="sombra torso" transform="matrix(.18195 0 0 .18116 1.2131 -1.828)" d="m105.98 33 13-7.5 14.5-9.5 16-15 1.52-1 2 1 4 3.04 5.5 3.5 6 3 8 3 6.5 1.5 8.5 2 11.5 1.5 9 0.5h19.5l7.5-1 4.5-0.5 5.5-1 7-1.5 11.5-3.5 7-3.5 5.5-3 4-3 1.5-1.5 1.5-0.5 1 0.5 1.5 1.5 3.48 3.46 7.5 6.5 15 11 23 13 42 20.5 2 3.5 1 4.5v4l-11.5 28-9.5 29-7 30.5-5.5 33-2.24 32-3 23v20l-0.76 14.5-1 14v24l0.5 6.5v10l0.5 10-0.5 15.5 0.5 12.5 2 27.5 1 9.5 2 18.5 3.5 25 1.5 23 1.5 25 1.5 23.5 1.5 10.5v6.5l2 6-1 4-7 3.25-8.5 1.25-12 1-11.5-1-14.5-1.25h-20.5l-38.5 2.25-18.5 1h-17l-67-3.5-15 1-9 0.5-8.5 0.5-7 0.5-8-1-11-1.5-6-2-2-2.5v-3l2-6v-9l0.5-4.5 1-7.5 3.5-55 9-83.5 1-23v-72l-1-21v-19l-2-19-4.5-40.5-9-49.5-9-30-11.5-28-3-8.5-1-4.5 1-4 3-4.5z" fill="url(#radialGradient13426)" opacity=".5"/>
				<path id="sombra manga derecha" d="m65.915 41.848c0.35843 0.66849 0.36753 1.0254 0.51854 1.2645 0.09097 0.14674 0.24017 0.26087 0.41302 0.26268 3.9118 0.06341 10.267-2.1123 12.46-3.3261 0.06004-0.03261 0.49489-0.31341 0.54948-0.34602 0.7951-0.44928 0.90609-0.80979 0.75508-1.3623-0.07642-0.27899-0.26018-0.40399-0.42939-1.154-0.05458-0.23913-0.03093-0.68841-0.22743-0.7645 0.07824-0.41124-0.26018-0.52718-0.33842-0.79168-1.1463-3.9258-2.3708-6.9367-2.8056-10.623-1.1026-9.3371-1.6648-12.103-3.8518-14.506-0.25472-0.2808-0.76417-0.7953-1.0462-1.0109l4e-6 1.4e-5c-0.47852-0.36776-0.98978-0.72466-1.5174-1.0508 0.67684 0.66669 0.84059 1.7555 0.43303 2.6323-0.04913 0.10688-0.10007 0.2192-0.15465 0.33877-0.0036 0.0091-0.0091 0.01812-0.01274 0.02536-1.7048 3.7337-5.3747 12.187-6.3153 26.618v0.0018c0.27656 0.65943 0.49307 1.0634 0.79692 1.8424 0.07096 0.18116 0.06186 0.72465 0.30749 0.9366 0.09643 0.50363 0.3366 0.77175 0.46578 1.0127z" fill="url(#radialGradient11949)" opacity=".5" stroke="#000" stroke-width=".18155"/>
				<path id="sombra manga izquierda" d="m16.216 41.826c-0.35843 0.66849-0.36753 1.0254-0.51854 1.2645-0.09097 0.14674-0.24017 0.26087-0.41302 0.26268-3.9118 0.06341-10.267-2.1123-12.46-3.3261-0.06004-0.03261-0.49489-0.31341-0.54948-0.34602-0.7951-0.44928-0.90609-0.80979-0.75508-1.3623 0.07642-0.27899 0.26018-0.40399 0.42939-1.154 0.05458-0.23913 0.03093-0.68841 0.22743-0.7645-0.07824-0.41124 0.26018-0.52718 0.33842-0.79168 1.1463-3.9258 2.3708-6.9367 2.8056-10.623 1.1026-9.3371 1.6648-12.103 3.8518-14.506 0.25472-0.2808 0.76417-0.7953 1.0462-1.0109l-4e-6 1.4e-5c0.47852-0.36776 0.98978-0.72466 1.5174-1.0508-0.67684 0.66669-0.84059 1.7555-0.43303 2.6323 0.04913 0.10688 0.10007 0.2192 0.15465 0.33877 0.0036 0.0091 0.0091 0.01812 0.01274 0.02536 1.7048 3.7337 5.3747 12.187 6.3153 26.618v0.0018c-0.27656 0.65943-0.49307 1.0634-0.79692 1.8424-0.07096 0.18116-0.06186 0.72465-0.30749 0.9366-0.09643 0.50363-0.3366 0.77175-0.46578 1.0127z" fill="url(#radialGradient13436)" opacity=".5" stroke="#000" stroke-width=".18155"/>
				<path id="sombra cuello" d="m28.687-1.828c2.6382 1.6377 3.184 1.9094 5.8223 2.7247 2.5927 0.49819 3.6389 0.63407 6.4428 0.68078 3.0639-0.046712 4.1556-0.18258 6.8393-0.68078 2.7292-0.9511 3.366-1.2681 5.6403-2.7174l2.5872 2.365 2.9585 1.885 2.9442 1.7212 3.2811 1.7118c-4.6901 1.0558-4.5983 0.97239-9.7702 1.8371-4.2553 0.49767-4.1709 0.44232-9.7128 0.66352-4.6986 0-4.6986-0.021754-8.5743-0.021754-5.1421 0-5.4112-0.2908-10.536-0.43701-4.6532-0.81286-4.9008-0.81672-10.481-1.6252l3.7153-1.8111 3.0166-1.6766 3.1936-2.2256z" fill="url(#radialGradient22425)"/>
			</g>
			<g id="contornos" transform="translate(-1.3872,2.0367)">
				<path id="contorno completo" d="m28.687-1.828c2.6382 1.6377 3.184 1.9094 5.8223 2.7247 2.5927 0.49819 3.6389 0.63407 6.4428 0.68078 3.0639-0.046712 4.1556-0.18258 6.8393-0.68078 2.7292-0.9511 3.366-1.2681 5.6403-2.7174l2.0009 1.7782c-0.97128 1.0014-2.5616 1.848-4.2606 2.6675-2.2349 0.83142-4.6087 1.4682-7.3021 1.6577-1.5158 0.081554-2.9747 0.17531-5.7425-0.011426-2.7283-0.24836-5.1624-0.75413-7.155-1.6462-2.1211-0.92611-2.7801-1.3644-4.3625-2.5639zm51.585 39.361c-0.03093-0.09783-0.06186-0.21196-0.09097-0.34602-0.05458-0.23913-0.03093-0.68841-0.22743-0.7645-0.13464 0.1087-0.28929 0.21196-0.47124 0.31522-0.06368 0.03623-0.13282 0.06884-0.20014 0.11051-1.8522 1.1359-7.851 3.4874-13.833 3.9874 0.09643 0.50363 0.33842 0.76994 0.4676 1.0109 0.01274 0.02355 0.02365 0.04529 0.03639 0.06703 0.07096 0.13949 0.12736 0.2645 0.17467 0.375h0.07642c0.1219-0.0036 0.26018-0.0091 0.34934-0.01449 4.8962-0.31522 10.869-2.5181 12.84-3.6613 0.03093-0.01812 0.10371-0.06159 0.17831-0.1087 0.08006-0.04891 0.16557-0.10145 0.19468-0.11776 0.16921-0.09602 0.47852-0.33696 0.65318-0.47646-0.04913-0.0942-0.09825-0.21377-0.14738-0.37682zm-14.823 3.3026c0.09643 0.50363 0.3366 0.77175 0.46578 1.0127 0.35843 0.66849 0.36753 1.0254 0.51854 1.2645 0.09097 0.14674 0.24017 0.26087 0.41302 0.26268 3.9118 0.06341 10.267-2.1123 12.46-3.3261 0.06004-0.03261 0.49489-0.31341 0.54948-0.34602 0.7951-0.44928 0.90609-0.80979 0.75508-1.3623-0.07642-0.27899-0.26018-0.40399-0.42939-1.154-0.05458-0.23913-0.03093-0.68841-0.22743-0.7645-0.13282 0.1087-0.28929 0.21196-0.46942 0.31522-0.06368 0.03623-0.13464 0.07065-0.20196 0.11051-1.8522 1.1341-7.8528 3.4874-13.833 3.9874zm6.4627-31.345c-0.47852-0.36776-0.98978-0.72466-1.5174-1.0508 0.67684 0.66669 0.84059 1.7555 0.43303 2.6323-0.04913 0.10688-0.10007 0.2192-0.15465 0.33877-0.0036 0.0091-0.0091 0.01812-0.01274 0.02536-1.7048 3.7337-5.3747 12.187-6.3153 26.618v0.0018c0.27656 0.65943 0.49307 1.0634 0.79692 1.8424 0.07096 0.18116 0.06186 0.72465 0.30749 0.9366 5.0781-0.31522 11.612-2.645 13.833-3.9874 0.06732-0.04167 0.13828-0.07428 0.20196-0.11051 0.18194-0.10145 0.3366-0.20652 0.46942-0.31522 0.07824-0.41124-0.26018-0.52718-0.33842-0.79168-1.1463-3.9258-2.3708-6.9367-2.8056-10.623-1.1026-9.3371-1.6648-12.103-3.8518-14.506-0.25472-0.2808-0.76417-0.7953-1.0462-1.0109zm-70.051 28.022c0.03093-0.09783 0.06186-0.21196 0.09097-0.34602 0.05458-0.23913 0.03093-0.68841 0.22743-0.7645 0.13464 0.1087 0.28929 0.21196 0.47124 0.31522 0.06368 0.03623 0.13282 0.06884 0.20014 0.11051 1.8522 1.1359 7.851 3.4874 13.833 3.9874-0.09643 0.50363-0.33842 0.76994-0.4676 1.0109-0.01274 0.02355-0.02365 0.04529-0.03639 0.06703-0.07096 0.13949-0.12736 0.2645-0.17467 0.375h-0.07642c-0.1219-0.0036-0.26018-0.0091-0.34934-0.01449-4.8962-0.31522-10.869-2.5181-12.84-3.6613-0.03093-0.01812-0.10371-0.06159-0.17831-0.1087-0.08006-0.04891-0.16557-0.10145-0.19468-0.11776-0.16921-0.09602-0.47852-0.33696-0.65319-0.47646 0.04913-0.0942 0.09825-0.21377 0.14738-0.37682zm14.821 3.3008c-0.09643 0.50363-0.3366 0.77175-0.46578 1.0127-0.35843 0.66849-0.36753 1.0254-0.51854 1.2645-0.09097 0.14674-0.24017 0.26087-0.41302 0.26268-3.9118 0.06341-10.267-2.1123-12.46-3.3261-0.06004-0.03261-0.49489-0.31341-0.54948-0.34602-0.7951-0.44928-0.90609-0.80979-0.75508-1.3623 0.07642-0.27899 0.26018-0.40399 0.42939-1.154 0.05458-0.23913 0.03093-0.68841 0.22743-0.7645 0.13282 0.1087 0.28929 0.21196 0.46942 0.31522 0.06368 0.03623 0.13464 0.07065 0.20196 0.11051 1.8522 1.1341 7.8528 3.4874 13.833 3.9874zm-6.4627-31.345c0.47852-0.36776 0.98978-0.72466 1.5174-1.0508-0.67684 0.66669-0.84059 1.7555-0.43303 2.6323 0.04913 0.10688 0.10007 0.2192 0.15465 0.33877 0.0036 0.0091 0.0091 0.01812 0.01274 0.02536 1.7048 3.7337 5.3747 12.187 6.3153 26.618v0.0018c-0.27656 0.65943-0.49307 1.0634-0.79692 1.8424-0.07096 0.18116-0.06186 0.72465-0.30749 0.9366-5.0781-0.31522-11.612-2.645-13.833-3.9874-0.06732-0.04167-0.13828-0.07428-0.20196-0.11051-0.18194-0.10145-0.3366-0.20652-0.46942-0.31522-0.07824-0.41124 0.26018-0.52718 0.33842-0.79168 1.1463-3.9258 2.3708-6.9367 2.8056-10.623 1.1026-9.3371 1.6648-12.103 3.8518-14.506 0.25472-0.2808 0.76417-0.7953 1.0462-1.0109zm5.5184 85.626c0.24926 0.17573 0.65682 0.31703 1.1481 0.42935 0.41484 0.0942 0.8879 0.17029 1.3791 0.22826 0.49125 0.05978 0.99888 0.10326 1.481 0.13587 2.1797 0.24638 5.5202-0.54348 9.7268-0.30073 2.9566 0.17029 6.3426 0.40218 10.054 0.56704 0.23653 0.01087 0.90245 0.05435 1.5611 0.05254 0.75326-0.0018 1.5102-0.05072 1.834-0.06522 3.5916-0.16486 6.8739-0.38769 9.7505-0.55435 4.2066-0.24276 7.5471 0.54711 9.7268 0.30073 0.48034-0.03261 0.98978-0.07428 1.481-0.13587 0.49125-0.05797 0.96613-0.13406 1.381-0.22826 0.50035-0.11413 0.91155-0.25906 1.1608-0.43841m-45.927-90.936 2.3653-1.3587 2.6382-1.721 2.9111-2.7174 0.27656-0.18116 0.36389 0.18116 0.72778 0.55073 1.0007 0.63407 1.0917 0.54349 1.4556 0.54348 1.1826 0.27174 1.5465 0.36232 2.0924 0.27174 1.6375 0.090581h3.5479l1.3646-0.18116 0.81876-0.090581 1.0007-0.18116 1.2736-0.27174 2.0924-0.63407 1.2736-0.63407 1.0007-0.54348 0.72778-0.54348 0.27292-0.27174 0.27292-0.090581 0.18195 0.090581 0.27292 0.27174 0.63317 0.62682 1.3646 1.1776 2.7292 1.9928 4.1848 2.3551 7.6417 3.7138 0.36389 0.63407 0.18194 0.81523v0.72465l-2.0924 5.0725-1.7285 5.2537-1.2736 5.5254-1.0007 5.9783-0.40756 5.7972-0.54584 4.1667v3.6232l-0.13828 2.6268-0.18195 2.5363v4.3479l0.09097 1.1776v1.8116l0.09097 1.8116-0.09097 2.808 0.09097 2.2645 0.18195 2.491 0.18194 2.491 0.18195 1.721 0.36389 3.3515 0.63681 4.529 0.27292 4.1667 0.27292 4.529 0.27292 4.2573 0.27292 1.9022v1.1776l0.36389 1.087-0.18195 0.72465-1.2736 0.58878-1.5465 0.22645-2.1833 0.18116-2.0924-0.18116-2.6382-0.22645h-3.7299l-7.0049 0.40761-3.366 0.18116h-3.0931l-12.19-0.63406-2.7292 0.18116-1.6375 0.09058-1.5465 0.09058-1.2736 0.09058-1.4556-0.18116-2.0014-0.27174-1.0917-0.36232-0.36389-0.4529v-0.54348l0.36389-1.087v-1.6305l0.09097-0.81523 0.18195-1.3587 0.63681-9.9639 1.6375-15.127 0.18194-4.1667v-13.044l-0.18194-3.8044v-3.4421l-0.36389-3.4421-0.81876-7.337-1.6375-8.9675-1.6375-5.4348-2.0924-5.0725-0.54584-1.5399-0.18195-0.81523 0.18195-0.72465 0.54584-0.81523z" fill="none" stroke="#000" stroke-width=".26458"/>
			</g>
			<g id="detalles" transform="matrix(.18195 0 0 .18116 -.17409 .20872)" fill="none" opacity=".5">
				<path id="costuras" d="m137.11 13.476c10.715 8.2258 13.285 9.9874 26.633 15.677 14.634 5.0295 17.659 5.7652 33.159 8.4301l21.884 1.1955 23.008-1.1852c16.15-3.1051 18.741-4.222 32.97-8.4403 14.268-6.5435 17.832-8.6536 26.452-16.058m75.29 43.875c0.75 0.98 1.55 1.7201 1.55 1.7201 2.72 2.69 3.45 7.32 1.74 11.02l-0.84 1.84c-0.04 0.08-0.08 0.16-0.11 0.23-7.96 17.49-28.76 63.31-34.63 143.25-0.09 1.25-0.28 5.47 1.04 8.73m83.47-13.7-0.64 0.35c-0.19 0.1-0.39 0.21-0.57 0.33-5.48 3.37-18.12 8.89-33.95 13.58l-1.66 0.49c-9.66 2.82-23.86 6.34-37.55 7.37m-292.63-175.21c-0.75 0.98-1.55 1.7201-1.55 1.7201-2.72 2.69-3.45 7.32-1.74 11.02l0.84 1.84c0.04 0.08 0.08 0.16 0.11 0.23 7.96 17.49 28.76 63.31 34.63 143.25 0.09 1.25 0.28 5.47-1.04 8.73m-83.38-13.7 0.64 0.35c0.19 0.1 0.39 0.21 0.57 0.33 5.48 3.37 18.12 8.89 33.95 13.58l1.66 0.49c9.66 2.82 23.86 6.34 37.55 7.37m-0.7501 301.31c0.89 0.29 1.87 0.56 2.92 0.8 2.28 0.52 4.88 0.94 7.58 1.26 2.7 0.33 5.49 0.57 8.14 0.75 11.98 1.36 30.34-3 53.46-1.66 16.25 0.94 34.86 2.22 55.26 3.13 1.3 0.06 4.96 0.3 8.58 0.29 4.14-0.01 8.3-0.28 10.08-0.36 19.75-0.91 37.78-2.14 53.59-3.06 23.12-1.34 41.48 3.02 53.46 1.66 2.64-0.18 5.44-0.41 8.14-0.75 2.7-0.32 5.31-0.74 7.59-1.26 1.58-0.36 2.99-0.78 4.17-1.26" fill="none" stroke="#000" stroke-dasharray="3.99892, 0.99973" stroke-width=".99973"/>
			</g>
			<g id="imagen" transform="translate(-1.3872,2.0367)">
				<path id="espacio imagen" d="m57.136 22.509 0.21863 56.762-32.36-0.24838-0.21863-56.534z" color="#000000" fill="none" mask="url(#mask-powermask-path-effect4300)" stroke-width="1.1908" style="-inkscape-stroke:none"/>
			</g>
			<g id="texto" transform="translate(3.1276,21.051)" fill="#000000" font-family="'Century Schoolbook'" font-weight="bold" stroke="#000" stroke-width=".1815" text-anchor="middle">
				<text id="text2982" x="36.616711" y="40.438358" font-size="7.7611px" text-align="center" style="font-variant-caps:normal;font-variant-east-asian:normal;font-variant-ligatures:normal;font-variant-numeric:normal" xml:space="preserve"><tspan id="tspan2978" x="36.616711" y="40.438358">SUPER</tspan><tspan id="tspan2980" x="36.616711" y="50.139744">EQUIPO</tspan></text>
				<text id="text2986" transform="translate(-4.5057,-14.857)" x="40.598637" y="42.656906" font-size="22.578px" stroke="#000000" stroke-width=".52917" text-align="center" style="font-variant-caps:normal;font-variant-east-asian:normal;font-variant-ligatures:normal;font-variant-numeric:normal" xml:space="preserve"><tspan id="tspan2984" x="40.598637" y="42.656906" fill="#000000" font-family="'Century Schoolbook'" font-size="22.578px" font-weight="bold" stroke="#000000" stroke-width=".52917" style="font-variant-caps:normal;font-variant-east-asian:normal;font-variant-ligatures:normal;font-variant-numeric:normal">10</tspan></text>
			</g>
		</g>
	</g>
</svg>
